M48
;DRILL file {KiCad (5.0.0)} date 10/25/18 18:08:00
;FORMAT={-:-/ absolute / metric / decimal}
FMAT,2
METRIC,TZ
T1C0.500
T2C3.175
%
G90
G05
M71
T1
X180.9Y-29.95
X181.9Y-29.95
X182.9Y-29.95
X183.9Y-29.95
X184.9Y-29.95
X185.9Y-29.95
X186.9Y-29.95
X27.3Y-157.55
X27.3Y-158.55
X27.3Y-159.55
X27.3Y-160.55
X27.3Y-161.55
X27.3Y-162.55
X27.3Y-163.55
X88.4Y-153.65
X89.4Y-153.65
X90.4Y-153.65
X91.4Y-153.65
X92.4Y-153.65
X93.4Y-153.65
X94.4Y-153.65
X188.4Y-153.65
X189.4Y-153.65
X190.4Y-153.65
X191.4Y-153.65
X192.4Y-153.65
X193.4Y-153.65
X194.4Y-153.65
X27.3Y-66.05
X27.3Y-67.05
X27.3Y-68.05
X27.3Y-69.05
X27.3Y-70.05
X27.3Y-71.05
X27.3Y-72.05
X242.4Y-153.65
X243.4Y-153.65
X244.4Y-153.65
X245.4Y-153.65
X246.4Y-153.65
X247.4Y-153.65
X248.4Y-153.65
X34.4Y-29.95
X35.4Y-29.95
X36.4Y-29.95
X37.4Y-29.95
X38.4Y-29.95
X39.4Y-29.95
X40.4Y-29.95
X267.Y-20.05
X267.Y-21.05
X267.Y-22.05
X267.Y-23.05
X267.Y-24.05
X267.Y-25.05
X267.Y-26.05
X107.4Y-29.95
X108.4Y-29.95
X109.4Y-29.95
X110.4Y-29.95
X111.4Y-29.95
X112.4Y-29.95
X113.4Y-29.95
X267.Y-66.05
X267.Y-67.05
X267.Y-68.05
X267.Y-69.05
X267.Y-70.05
X267.Y-71.05
X267.Y-72.05
X27.3Y-20.05
X27.3Y-21.05
X27.3Y-22.05
X27.3Y-23.05
X27.3Y-24.05
X27.3Y-25.05
X27.3Y-26.05
X34.4Y-153.65
X35.4Y-153.65
X36.4Y-153.65
X37.4Y-153.65
X38.4Y-153.65
X39.4Y-153.65
X40.4Y-153.65
X27.3Y-111.55
X27.3Y-112.55
X27.3Y-113.55
X27.3Y-114.55
X27.3Y-115.55
X27.3Y-116.55
X27.3Y-117.55
X267.Y-157.55
X267.Y-158.55
X267.Y-159.55
X267.Y-160.55
X267.Y-161.55
X267.Y-162.55
X267.Y-163.55
X253.9Y-29.95
X254.9Y-29.95
X255.9Y-29.95
X256.9Y-29.95
X257.9Y-29.95
X258.9Y-29.95
X259.9Y-29.95
X267.Y-111.55
X267.Y-112.55
X267.Y-113.55
X267.Y-114.55
X267.Y-115.55
X267.Y-116.55
X267.Y-117.55
T2
X22.05Y-158.9
X207.13Y-57.97
X272.25Y-158.9
X272.25Y-24.7
X22.05Y-24.7
X91.9Y-62.55
X91.9Y-99.05
X195.9Y-62.55
X195.9Y-99.05
X207.13Y-112.58
X253.612Y-57.97
X253.612Y-111.31
T0
M30
