M48
;DRILL file {KiCad (5.0.0)} date 04/01/19 15:55:39
;FORMAT={-:-/ absolute / metric / decimal}
FMAT,2
METRIC,TZ
T1C0.500
T2C1.016
T3C1.270
T4C1.524
T5C1.600
T6C3.500
%
G90
G05
M71
T1
X-3.65Y-20.
X-3.65Y-37.5
X-3.65Y-55.
X-3.65Y-72.5
X-3.65Y-90.
X-3.65Y-107.5
X-1.Y-8.
X-1.Y-25.45
X-1.Y-42.95
X-1.Y-60.45
X-1.Y-77.95
X-1.Y-95.45
X0.6Y-18.1
X0.6Y-35.6
X0.6Y-53.1
X0.6Y-70.6
X0.6Y-88.1
X0.6Y-105.6
X11.Y-8.5
X11.Y-26.
X11.Y-43.5
X11.Y-61.
X11.Y-78.5
X11.Y-96.
X15.85Y-5.
X15.85Y-7.
X19.55Y-5.
X19.55Y-7.
X19.7Y-22.9
X19.7Y-24.1
X19.7Y-46.4
X19.7Y-47.6
X19.7Y-69.9
X19.7Y-71.1
X19.7Y-93.4
X19.7Y-94.6
X26.35Y-28.5
X26.35Y-30.5
X26.35Y-52.
X26.35Y-54.
X26.35Y-75.5
X26.35Y-77.5
X26.35Y-99.
X26.35Y-101.
X26.85Y-16.5
X26.85Y-18.5
X26.85Y-40.
X26.85Y-42.
X26.85Y-63.5
X26.85Y-65.5
X26.85Y-87.
X26.85Y-89.
X27.9Y-20.3
X27.9Y-26.8
X27.9Y-43.8
X27.9Y-50.3
X27.9Y-67.3
X27.9Y-73.8
X27.9Y-90.8
X27.9Y-97.3
X28.4Y-22.9
X28.4Y-24.1
X28.4Y-46.4
X28.4Y-47.6
X28.4Y-69.9
X28.4Y-71.1
X28.4Y-93.4
X28.4Y-94.6
X28.85Y-97.3
X28.9Y-20.3
X28.9Y-26.8
X28.9Y-43.8
X28.9Y-50.3
X28.9Y-67.3
X28.9Y-73.8
X28.9Y-90.8
X29.85Y-23.
X29.85Y-24.1
X29.85Y-46.5
X29.85Y-47.6
X29.85Y-70.
X29.85Y-71.1
X29.85Y-93.5
X29.85Y-94.6
X30.Y-12.
X30.Y-28.5
X30.Y-35.5
X30.Y-59.
X30.Y-82.5
X30.05Y-30.5
X30.05Y-52.
X30.05Y-54.
X30.05Y-75.5
X30.05Y-77.5
X30.05Y-99.
X30.05Y-101.
X30.55Y-16.5
X30.55Y-18.5
X30.55Y-40.
X30.55Y-42.
X30.55Y-63.5
X30.55Y-65.5
X30.55Y-87.
X30.55Y-89.
X30.7Y-22.45
X30.7Y-23.55
X30.7Y-24.65
X30.7Y-45.95
X30.7Y-47.05
X30.7Y-48.15
X30.7Y-69.45
X30.7Y-70.55
X30.7Y-71.65
X30.7Y-92.95
X30.7Y-94.05
X30.7Y-95.15
X32.1Y-28.7
X32.1Y-52.2
X32.1Y-75.7
X32.3Y-33.3
X32.3Y-56.8
X32.3Y-80.3
X33.1Y-28.6
X33.1Y-52.1
X33.1Y-75.6
X33.1Y-99.1
X33.9Y-33.5
X33.9Y-57.
X33.9Y-80.5
X34.05Y-28.15
X34.05Y-51.65
X34.05Y-75.15
X34.05Y-98.65
X34.25Y-31.
X34.25Y-54.5
X34.25Y-78.
X34.25Y-101.5
X35.05Y-28.15
X35.05Y-51.65
X35.05Y-75.15
X35.05Y-98.65
X36.05Y-28.15
X36.05Y-51.65
X36.05Y-75.15
X36.05Y-98.65
X36.9Y-18.45
X36.9Y-41.95
X36.9Y-65.45
X36.9Y-88.95
X37.Y-10.55
X37.65Y-22.45
X37.65Y-23.55
X37.65Y-24.65
X37.65Y-45.95
X37.65Y-47.05
X37.65Y-48.15
X37.65Y-69.45
X37.65Y-70.55
X37.65Y-71.65
X37.65Y-92.95
X37.65Y-94.05
X37.65Y-95.15
X37.95Y-28.5
X37.95Y-30.5
X37.95Y-52.
X37.95Y-54.
X37.95Y-75.5
X37.95Y-77.5
X37.95Y-99.
X37.95Y-101.
X38.15Y-15.
X38.15Y-38.5
X38.15Y-62.
X38.15Y-85.5
X38.45Y-16.5
X38.45Y-18.5
X38.45Y-40.
X38.45Y-42.
X38.45Y-63.5
X38.45Y-65.5
X38.45Y-87.
X38.45Y-89.
X38.5Y-23.
X38.5Y-24.1
X38.5Y-46.5
X38.5Y-47.6
X38.5Y-70.
X38.5Y-71.1
X38.5Y-93.5
X38.5Y-94.6
X39.45Y-26.8
X39.45Y-50.3
X39.45Y-73.8
X39.45Y-97.3
X40.45Y-26.8
X40.45Y-50.3
X40.45Y-73.8
X40.45Y-97.3
X41.65Y-28.5
X41.65Y-30.5
X41.65Y-52.
X41.65Y-54.
X41.65Y-75.5
X41.65Y-77.5
X41.65Y-99.
X41.65Y-101.
X42.15Y-16.5
X42.15Y-18.5
X42.15Y-40.
X42.15Y-42.
X42.15Y-63.5
X42.15Y-65.5
X42.15Y-87.
X42.15Y-89.
X42.9Y-88.
X54.3Y-91.
X55.Y-13.6
X56.5Y-77.6
X57.5Y-16.75
X57.65Y-85.5
X58.Y-8.85
X58.Y-12.55
X58.Y-20.45
X58.Y-24.15
X58.5Y-77.6
X59.8Y-14.6
X59.9Y-15.6
X60.Y-8.85
X60.Y-12.55
X60.Y-20.45
X60.Y-24.15
X60.Y-33.3
X60.35Y-16.55
X60.35Y-17.55
X60.35Y-18.55
X61.Y-103.55
X61.15Y-55.5
X61.7Y-10.4
X61.7Y-11.4
X61.7Y-21.95
X61.7Y-22.95
X63.Y-103.55
X63.85Y-13.2
X63.85Y-20.15
X64.Y-59.3
X64.4Y-2.2
X64.4Y-10.9
X64.4Y-12.35
X64.4Y-21.
X64.95Y-13.2
X64.95Y-20.15
X65.5Y-12.35
X65.5Y-21.
X65.6Y-2.2
X65.6Y-10.9
X66.Y-41.85
X66.05Y-13.2
X66.05Y-20.15
X67.35Y-108.9
X68.2Y-10.4
X68.2Y-11.4
X68.3Y-67.9
X68.3Y-74.25
X69.Y-33.35
X69.Y-84.85
X69.45Y-65.35
X69.45Y-66.65
X69.45Y-67.9
X69.45Y-74.25
X69.45Y-75.55
X69.55Y-19.4
X69.65Y-52.
X69.65Y-54.
X69.65Y-56.
X69.85Y-79.
X69.85Y-81.
X70.Y-9.35
X70.Y-13.05
X70.Y-20.95
X70.Y-24.65
X70.2Y-18.6
X70.7Y-113.95
X71.Y-33.35
X71.Y-84.85
X72.Y-9.35
X72.Y-13.05
X72.Y-20.95
X72.Y-24.65
X72.Y-60.45
X72.Y-93.35
X72.6Y-36.
X72.7Y-69.15
X72.7Y-70.45
X72.7Y-71.7
X72.7Y-73.
X73.Y-84.85
X73.5Y-20.8
X73.5Y-111.65
X73.55Y-79.
X73.55Y-81.
X73.7Y-69.15
X73.7Y-70.45
X73.7Y-71.7
X73.7Y-73.
X74.15Y-113.
X74.15Y-115.
X74.6Y-87.5
X75.5Y-111.65
X76.5Y-12.5
X77.5Y-111.65
X77.8Y-91.
X77.85Y-61.
X77.85Y-63.
X77.9Y-69.15
X77.9Y-70.45
X77.9Y-71.7
X77.9Y-73.
X78.5Y-16.4
X78.55Y-109.
X78.7Y-14.8
X78.9Y-69.15
X78.9Y-70.45
X78.9Y-71.7
X78.9Y-73.
X79.5Y-81.65
X81.Y-16.75
X81.15Y-85.5
X81.5Y-8.85
X81.5Y-12.55
X81.5Y-20.45
X81.5Y-24.15
X81.55Y-61.
X81.55Y-63.
X82.15Y-66.65
X82.15Y-67.9
X82.15Y-74.25
X82.15Y-75.55
X82.15Y-76.8
X83.3Y-14.6
X83.3Y-67.9
X83.3Y-74.25
X83.4Y-15.6
X83.5Y-8.85
X83.5Y-12.55
X83.5Y-20.45
X83.5Y-24.15
X83.5Y-33.3
X83.85Y-16.55
X83.85Y-17.55
X83.85Y-18.55
X84.5Y-77.6
X84.5Y-103.55
X85.2Y-10.4
X85.2Y-11.4
X85.2Y-21.95
X85.2Y-22.95
X86.5Y-77.6
X86.5Y-103.55
X87.35Y-13.2
X87.35Y-20.15
X87.9Y-2.2
X87.9Y-10.9
X87.9Y-12.35
X87.9Y-21.
X88.45Y-13.2
X88.45Y-20.15
X89.Y-12.35
X89.Y-21.
X89.1Y-2.2
X89.1Y-10.9
X89.15Y-55.5
X89.5Y-41.85
X89.55Y-13.2
X89.55Y-20.15
X90.85Y-108.9
X91.7Y-10.4
X91.7Y-11.4
X92.Y-59.3
X92.5Y-33.35
X92.5Y-84.85
X93.05Y-19.4
X93.5Y-9.35
X93.5Y-13.05
X93.5Y-20.95
X93.5Y-24.65
X93.7Y-18.6
X94.2Y-113.95
X94.5Y-33.35
X94.5Y-84.85
X95.5Y-9.35
X95.5Y-13.05
X95.5Y-20.95
X95.5Y-24.65
X95.5Y-93.35
X96.1Y-36.
X96.5Y-84.85
X97.Y-20.65
X97.Y-111.65
X97.65Y-52.
X97.65Y-54.
X97.65Y-56.
X97.65Y-113.
X97.65Y-115.
X98.1Y-87.5
X99.Y-111.65
X100.Y-12.5
X101.Y-111.65
X101.3Y-91.
X102.Y-16.4
X102.05Y-109.
X102.2Y-14.8
X103.5Y-77.6
X104.5Y-16.75
X104.65Y-85.5
X105.Y-8.85
X105.Y-12.55
X105.Y-20.45
X105.Y-24.15
X105.5Y-77.6
X106.8Y-14.6
X106.9Y-15.6
X107.Y-8.85
X107.Y-12.55
X107.Y-20.45
X107.Y-24.15
X107.Y-33.3
X107.35Y-16.55
X107.35Y-17.55
X107.35Y-18.55
X108.Y-103.55
X108.15Y-55.5
X108.7Y-10.4
X108.7Y-11.4
X108.7Y-21.95
X108.7Y-22.95
X110.Y-103.55
X110.85Y-13.2
X110.85Y-20.15
X111.Y-59.3
X111.4Y-2.2
X111.4Y-10.9
X111.4Y-12.35
X111.4Y-21.
X111.95Y-13.2
X111.95Y-20.15
X112.5Y-12.35
X112.5Y-21.
X112.6Y-2.2
X112.6Y-10.9
X113.Y-41.85
X113.05Y-13.2
X113.05Y-20.15
X114.35Y-108.9
X115.2Y-10.4
X115.2Y-11.4
X115.3Y-67.9
X115.3Y-74.25
X116.Y-33.35
X116.Y-84.85
X116.45Y-65.05
X116.45Y-66.65
X116.45Y-67.9
X116.45Y-74.25
X116.45Y-75.55
X116.55Y-19.4
X116.65Y-52.
X116.65Y-54.
X116.65Y-56.
X116.85Y-79.
X116.85Y-81.
X117.Y-9.35
X117.Y-13.05
X117.Y-20.95
X117.Y-24.65
X117.2Y-18.6
X117.7Y-113.95
X118.Y-33.35
X118.Y-84.85
X119.Y-9.35
X119.Y-13.05
X119.Y-20.95
X119.Y-24.65
X119.Y-60.45
X119.Y-93.35
X119.6Y-36.
X119.7Y-69.15
X119.7Y-70.45
X119.7Y-71.7
X119.7Y-73.
X120.Y-84.85
X120.5Y-20.65
X120.5Y-111.65
X120.55Y-79.
X120.55Y-81.
X120.7Y-69.15
X120.7Y-70.45
X120.7Y-71.7
X120.7Y-73.
X121.15Y-113.
X121.15Y-115.
X121.6Y-87.5
X122.5Y-111.65
X123.5Y-12.5
X124.5Y-111.65
X124.8Y-91.
X124.85Y-61.
X124.85Y-63.
X124.9Y-69.15
X124.9Y-70.45
X124.9Y-71.7
X124.9Y-73.
X125.5Y-16.4
X125.55Y-109.
X125.7Y-14.8
X125.9Y-69.15
X125.9Y-70.45
X125.9Y-71.7
X125.9Y-73.
X126.5Y-81.65
X128.Y-16.75
X128.15Y-85.5
X128.5Y-8.85
X128.5Y-12.55
X128.5Y-20.45
X128.5Y-24.15
X128.55Y-61.
X128.55Y-63.
X129.15Y-66.65
X129.15Y-67.9
X129.15Y-74.25
X129.15Y-75.55
X129.15Y-76.8
X130.3Y-14.6
X130.3Y-67.9
X130.3Y-74.25
X130.4Y-15.6
X130.5Y-8.85
X130.5Y-12.55
X130.5Y-20.45
X130.5Y-24.15
X130.5Y-33.3
X130.85Y-16.55
X130.85Y-17.55
X130.85Y-18.55
X131.5Y-77.6
X131.5Y-103.55
X132.2Y-10.4
X132.2Y-11.4
X132.2Y-21.95
X132.2Y-22.95
X133.5Y-77.6
X133.5Y-103.55
X134.35Y-13.2
X134.35Y-20.15
X134.9Y-2.2
X134.9Y-10.9
X134.9Y-12.35
X134.9Y-21.
X135.45Y-13.2
X135.45Y-20.15
X136.Y-12.35
X136.Y-21.
X136.1Y-2.2
X136.1Y-10.9
X136.15Y-55.5
X136.5Y-41.85
X136.55Y-13.2
X136.55Y-20.15
X137.85Y-108.9
X138.7Y-10.4
X138.7Y-11.4
X139.Y-59.3
X139.5Y-33.35
X139.5Y-84.85
X140.05Y-19.4
X140.5Y-9.35
X140.5Y-13.05
X140.5Y-20.95
X140.5Y-24.65
X140.7Y-18.6
X141.2Y-113.95
X141.5Y-33.35
X141.5Y-84.85
X142.5Y-9.35
X142.5Y-13.05
X142.5Y-20.95
X142.5Y-24.65
X142.5Y-93.35
X143.1Y-36.
X143.5Y-84.85
X144.Y-20.65
X144.Y-111.65
X144.65Y-52.
X144.65Y-54.
X144.65Y-56.
X144.65Y-113.
X144.65Y-115.
X145.1Y-87.5
X146.Y-111.65
X147.Y-12.5
X148.Y-64.2
X148.Y-111.65
X148.75Y-17.3
X148.75Y-18.3
X148.75Y-19.3
X149.05Y-109.
X153.55Y-20.35
X159.4Y-60.2
X159.4Y-61.2
X180.15Y-17.3
X181.05Y-19.3
X182.25Y-18.3
X188.9Y-45.95
X190.Y-45.95
X191.1Y-45.95
X192.2Y-45.95
X196.5Y-9.05
X197.65Y-26.15
X198.Y2.55
X198.5Y-25.6
X199.15Y-8.
X199.35Y-25.
X200.25Y-24.5
X200.35Y-82.2
X200.95Y-48.
X203.Y-57.65
X205.Y-57.65
X208.95Y-66.
X209.Y-59.15
X209.65Y0.
X209.65Y-2.
X210.5Y-94.85
X211.Y-93.95
X211.5Y-94.85
X213.5Y-94.85
X214.Y-93.95
X214.5Y-94.85
X216.95Y-96.
X217.35Y-45.5
X217.85Y-47.5
X217.85Y-49.5
X217.85Y-95.5
X217.85Y-96.5
X218.85Y-51.5
X218.85Y-53.5
X221.65Y-45.5
X221.65Y-47.5
X221.65Y-49.5
X223.15Y-95.5
X223.15Y-96.5
X224.05Y-96.
T2
X165.96Y-27.5
X165.96Y-30.04
X165.96Y-32.58
X165.96Y-35.12
X165.96Y-37.66
X165.96Y-40.2
X165.96Y-42.74
X165.96Y-45.28
X165.96Y-49.344
X165.96Y-51.884
X165.96Y-54.424
X165.96Y-56.964
X165.96Y-59.504
X165.96Y-62.044
X165.96Y-64.584
X165.96Y-67.124
X165.96Y-69.664
X165.96Y-72.204
X168.5Y-27.5
X168.5Y-30.04
X168.5Y-32.58
X168.5Y-35.12
X168.5Y-37.66
X168.5Y-40.2
X168.5Y-42.74
X168.5Y-45.28
X168.5Y-49.344
X168.5Y-51.884
X168.5Y-54.424
X168.5Y-56.964
X168.5Y-59.504
X168.5Y-62.044
X168.5Y-64.584
X168.5Y-67.124
X168.5Y-69.664
X168.5Y-72.204
X211.68Y-27.5
X211.68Y-30.04
X211.68Y-32.58
X211.68Y-35.12
X211.68Y-37.66
X211.68Y-40.2
X211.68Y-45.28
X211.68Y-47.82
X211.68Y-50.36
X211.68Y-52.9
X211.68Y-55.44
X211.68Y-57.98
X211.68Y-60.52
X211.68Y-63.06
X214.22Y-27.5
X214.22Y-30.04
X214.22Y-32.58
X214.22Y-35.12
X214.22Y-37.66
X214.22Y-40.2
X214.22Y-45.28
X214.22Y-47.82
X214.22Y-50.36
X214.22Y-52.9
X214.22Y-55.44
X214.22Y-57.98
X214.22Y-60.52
X214.22Y-63.06
X155.99Y-32.58
X155.99Y-35.12
X155.99Y-37.66
X155.99Y-40.2
X155.99Y-42.74
X155.99Y-45.28
X155.99Y-47.82
X155.99Y-50.36
X155.99Y-52.9
X155.99Y-55.44
X155.99Y-57.98
X158.53Y-32.58
X158.53Y-35.12
X158.53Y-37.66
X158.53Y-40.2
X158.53Y-42.74
X158.53Y-45.28
X158.53Y-47.82
X158.53Y-50.36
X158.53Y-52.9
X158.53Y-55.44
X158.53Y-57.98
T3
X219.Y-58.
X221.54Y-58.
X4.Y-99.46
X4.Y-102.
X84.5Y-96.5
X87.04Y-96.5
X89.58Y-96.5
X4.Y-81.96
X4.Y-84.5
X61.Y-27.5
X63.54Y-27.5
X66.08Y-27.5
X68.62Y-27.5
X101.5Y-99.
X104.04Y-99.
X131.5Y-64.
X134.04Y-64.
X4.Y-11.96
X4.Y-14.5
X131.5Y-70.5
X134.04Y-70.5
X136.58Y-70.5
X139.12Y-70.5
X141.66Y-70.5
X108.Y-27.5
X110.54Y-27.5
X113.08Y-27.5
X115.62Y-27.5
X131.5Y-45.5
X134.04Y-45.5
X136.58Y-45.5
X202.Y-7.5
X204.54Y-7.5
X84.5Y-64.
X87.04Y-64.
X201.96Y-1.
X204.5Y-1.
X103.5Y-70.5
X106.04Y-70.5
X108.58Y-70.5
X111.12Y-70.5
X113.66Y-70.5
X45.Y-43.38
X45.Y-45.92
X45.Y-48.46
X45.Y-51.
X84.5Y-45.5
X87.04Y-45.5
X89.58Y-45.5
X54.5Y-99.
X57.04Y-99.
X4.Y-46.96
X4.Y-49.5
X108.Y-96.5
X110.54Y-96.5
X113.08Y-96.5
X45.Y-90.38
X45.Y-92.92
X45.Y-95.46
X45.Y-98.
X45.Y-66.88
X45.Y-69.42
X45.Y-71.96
X45.Y-74.5
X200.46Y-50.5
X203.Y-50.5
X78.Y-99.
X80.54Y-99.
X56.5Y-70.5
X59.04Y-70.5
X61.58Y-70.5
X64.12Y-70.5
X66.66Y-70.5
X4.Y-29.46
X4.Y-32.
X84.5Y-27.5
X87.04Y-27.5
X89.58Y-27.5
X92.12Y-27.5
X61.Y-96.5
X63.54Y-96.5
X66.08Y-96.5
X125.Y-99.
X127.54Y-99.
X103.5Y-64.
X106.04Y-64.
X16.46Y-1.
X19.Y-1.
X84.5Y-70.5
X87.04Y-70.5
X89.58Y-70.5
X92.12Y-70.5
X94.66Y-70.5
X131.5Y-27.5
X134.04Y-27.5
X136.58Y-27.5
X139.12Y-27.5
X108.Y-45.5
X110.54Y-45.5
X113.08Y-45.5
X218.5Y-99.
X221.04Y-99.
X56.5Y-64.
X59.04Y-64.
X4.Y-64.46
X4.Y-67.
X131.5Y-96.5
X134.04Y-96.5
X136.58Y-96.5
X45.Y-19.88
X45.Y-22.42
X45.Y-24.96
X45.Y-27.5
X61.Y-45.5
X63.54Y-45.5
X66.08Y-45.5
T4
X213.5Y-102.5
X213.5Y-106.462
X213.5Y-110.425
X213.5Y-114.387
T5
X7.Y-112.5
X7.Y0.
X184.Y0.
X203.Y-112.5
T6
X-7.Y-112.5
X-7.Y0.
X221.5Y-112.5
X221.5Y0.
X99.5Y-43.5
T0
M30
