M48
;DRILL file {KiCad (5.0.0)} date 04/01/19 15:55:39
;FORMAT={-:-/ absolute / metric / decimal}
FMAT,2
METRIC,TZ
T1C0.500
T2C3.175
%
G90
G05
M71
T1
X141.Y5.6
X142.Y5.6
X143.Y5.6
X144.Y5.6
X145.Y5.6
X146.Y5.6
X147.Y5.6
X48.5Y-118.1
X49.5Y-118.1
X50.5Y-118.1
X51.5Y-118.1
X52.5Y-118.1
X53.5Y-118.1
X54.5Y-118.1
X-12.6Y-122.
X-12.6Y-123.
X-12.6Y-124.
X-12.6Y-125.
X-12.6Y-126.
X-12.6Y-127.
X-12.6Y-128.
X202.5Y-118.1
X203.5Y-118.1
X204.5Y-118.1
X205.5Y-118.1
X206.5Y-118.1
X207.5Y-118.1
X208.5Y-118.1
X-12.6Y-30.5
X-12.6Y-31.5
X-12.6Y-32.5
X-12.6Y-33.5
X-12.6Y-34.5
X-12.6Y-35.5
X-12.6Y-36.5
X-5.5Y5.6
X-4.5Y5.6
X-3.5Y5.6
X-2.5Y5.6
X-1.5Y5.6
X-0.5Y5.6
X0.5Y5.6
X227.1Y15.5
X227.1Y14.5
X227.1Y13.5
X227.1Y12.5
X227.1Y11.5
X227.1Y10.5
X227.1Y9.5
X67.5Y5.6
X68.5Y5.6
X69.5Y5.6
X70.5Y5.6
X71.5Y5.6
X72.5Y5.6
X73.5Y5.6
X148.5Y-118.1
X149.5Y-118.1
X150.5Y-118.1
X151.5Y-118.1
X152.5Y-118.1
X153.5Y-118.1
X154.5Y-118.1
X227.1Y-30.5
X227.1Y-31.5
X227.1Y-32.5
X227.1Y-33.5
X227.1Y-34.5
X227.1Y-35.5
X227.1Y-36.5
X-5.5Y-118.1
X-4.5Y-118.1
X-3.5Y-118.1
X-2.5Y-118.1
X-1.5Y-118.1
X-0.5Y-118.1
X0.5Y-118.1
X-12.6Y15.5
X-12.6Y14.5
X-12.6Y13.5
X-12.6Y12.5
X-12.6Y11.5
X-12.6Y10.5
X-12.6Y9.5
X227.1Y-122.
X227.1Y-123.
X227.1Y-124.
X227.1Y-125.
X227.1Y-126.
X227.1Y-127.
X227.1Y-128.
X-12.6Y-76.
X-12.6Y-77.
X-12.6Y-78.
X-12.6Y-79.
X-12.6Y-80.
X-12.6Y-81.
X-12.6Y-82.
X214.Y5.6
X215.Y5.6
X216.Y5.6
X217.Y5.6
X218.Y5.6
X219.Y5.6
X220.Y5.6
X227.1Y-76.
X227.1Y-77.
X227.1Y-78.
X227.1Y-79.
X227.1Y-80.
X227.1Y-81.
X227.1Y-82.
T2
X156.Y-27.
X52.Y-27.
X232.35Y10.85
X-17.85Y-123.35
X156.Y-63.5
X52.Y-63.5
X167.23Y-22.42
X167.23Y-77.03
X213.712Y-22.42
X213.712Y-75.76
X-17.85Y10.85
X232.35Y-123.35
T0
M30
