G04 #@! TF.GenerationSoftware,KiCad,Pcbnew,(5.0.0)*
G04 #@! TF.CreationDate,2018-11-26T17:37:18-05:00*
G04 #@! TF.ProjectId,PREP400,505245503430302E6B696361645F7063,1*
G04 #@! TF.SameCoordinates,PX4585da0PY443c430*
G04 #@! TF.FileFunction,Soldermask,Bot*
G04 #@! TF.FilePolarity,Negative*
%FSLAX46Y46*%
G04 Gerber Fmt 4.6, Leading zero omitted, Abs format (unit mm)*
G04 Created by KiCad (PCBNEW (5.0.0)) date 11/26/18 17:37:18*
%MOMM*%
%LPD*%
G01*
G04 APERTURE LIST*
%ADD10C,3.200000*%
%ADD11C,0.900000*%
%ADD12O,2.127200X2.127200*%
%ADD13R,2.127200X2.127200*%
%ADD14C,3.575000*%
%ADD15O,1.924000X3.448000*%
%ADD16O,3.448000X1.924000*%
%ADD17O,4.972000X2.686000*%
%ADD18C,2.540000*%
%ADD19C,5.400000*%
G04 APERTURE END LIST*
D10*
G04 #@! TO.C,TP19*
X7000000Y0D03*
G04 #@! TD*
G04 #@! TO.C,TP22*
X203000000Y-112500000D03*
G04 #@! TD*
G04 #@! TO.C,TP20*
X184000000Y0D03*
G04 #@! TD*
G04 #@! TO.C,TP21*
X7000000Y-112500000D03*
G04 #@! TD*
D11*
G04 #@! TO.C,REF\002A\002A*
X149500000Y-118100000D03*
X150500000Y-118100000D03*
X151500000Y-118100000D03*
X152500000Y-118100000D03*
X153500000Y-118100000D03*
X148500000Y-118100000D03*
X154500000Y-118100000D03*
G04 #@! TD*
G04 #@! TO.C,REF\002A\002A*
X49500000Y-118100000D03*
X50500000Y-118100000D03*
X51500000Y-118100000D03*
X52500000Y-118100000D03*
X53500000Y-118100000D03*
X48500000Y-118100000D03*
X54500000Y-118100000D03*
G04 #@! TD*
G04 #@! TO.C,REF\002A\002A*
X-4500000Y-118100000D03*
X-3500000Y-118100000D03*
X-2500000Y-118100000D03*
X-1500000Y-118100000D03*
X-500000Y-118100000D03*
X-5500000Y-118100000D03*
X500000Y-118100000D03*
G04 #@! TD*
G04 #@! TO.C,REF\002A\002A*
X203500000Y-118100000D03*
X204500000Y-118100000D03*
X205500000Y-118100000D03*
X206500000Y-118100000D03*
X207500000Y-118100000D03*
X202500000Y-118100000D03*
X208500000Y-118100000D03*
G04 #@! TD*
G04 #@! TO.C,REF\002A\002A*
X227100000Y-127000000D03*
X227100000Y-126000000D03*
X227100000Y-125000000D03*
X227100000Y-124000000D03*
X227100000Y-123000000D03*
X227100000Y-128000000D03*
X227100000Y-122000000D03*
G04 #@! TD*
G04 #@! TO.C,REF\002A\002A*
X227100000Y10500000D03*
X227100000Y11500000D03*
X227100000Y12500000D03*
X227100000Y13500000D03*
X227100000Y14500000D03*
X227100000Y9500000D03*
X227100000Y15500000D03*
G04 #@! TD*
G04 #@! TO.C,REF\002A\002A*
X227100000Y-81000000D03*
X227100000Y-80000000D03*
X227100000Y-79000000D03*
X227100000Y-78000000D03*
X227100000Y-77000000D03*
X227100000Y-82000000D03*
X227100000Y-76000000D03*
G04 #@! TD*
G04 #@! TO.C,REF\002A\002A*
X227100000Y-35500000D03*
X227100000Y-34500000D03*
X227100000Y-33500000D03*
X227100000Y-32500000D03*
X227100000Y-31500000D03*
X227100000Y-36500000D03*
X227100000Y-30500000D03*
G04 #@! TD*
G04 #@! TO.C,REF\002A\002A*
X-12600000Y-123000000D03*
X-12600000Y-124000000D03*
X-12600000Y-125000000D03*
X-12600000Y-126000000D03*
X-12600000Y-127000000D03*
X-12600000Y-122000000D03*
X-12600000Y-128000000D03*
G04 #@! TD*
G04 #@! TO.C,REF\002A\002A*
X-12600000Y14500000D03*
X-12600000Y13500000D03*
X-12600000Y12500000D03*
X-12600000Y11500000D03*
X-12600000Y10500000D03*
X-12600000Y15500000D03*
X-12600000Y9500000D03*
G04 #@! TD*
G04 #@! TO.C,REF\002A\002A*
X-12600000Y-31500000D03*
X-12600000Y-32500000D03*
X-12600000Y-33500000D03*
X-12600000Y-34500000D03*
X-12600000Y-35500000D03*
X-12600000Y-30500000D03*
X-12600000Y-36500000D03*
G04 #@! TD*
G04 #@! TO.C,REF\002A\002A*
X-12600000Y-77000000D03*
X-12600000Y-78000000D03*
X-12600000Y-79000000D03*
X-12600000Y-80000000D03*
X-12600000Y-81000000D03*
X-12600000Y-76000000D03*
X-12600000Y-82000000D03*
G04 #@! TD*
G04 #@! TO.C,REF\002A\002A*
X-500000Y5600000D03*
X-1500000Y5600000D03*
X-2500000Y5600000D03*
X-3500000Y5600000D03*
X-4500000Y5600000D03*
X500000Y5600000D03*
X-5500000Y5600000D03*
G04 #@! TD*
G04 #@! TO.C,REF\002A\002A*
X219000000Y5600000D03*
X218000000Y5600000D03*
X217000000Y5600000D03*
X216000000Y5600000D03*
X215000000Y5600000D03*
X220000000Y5600000D03*
X214000000Y5600000D03*
G04 #@! TD*
G04 #@! TO.C,REF\002A\002A*
X72500000Y5600000D03*
X71500000Y5600000D03*
X70500000Y5600000D03*
X69500000Y5600000D03*
X68500000Y5600000D03*
X73500000Y5600000D03*
X67500000Y5600000D03*
G04 #@! TD*
G04 #@! TO.C,REF\002A\002A*
X146000000Y5600000D03*
X145000000Y5600000D03*
X144000000Y5600000D03*
X143000000Y5600000D03*
X142000000Y5600000D03*
X147000000Y5600000D03*
X141000000Y5600000D03*
G04 #@! TD*
D12*
G04 #@! TO.C,U1*
X165960000Y-27500000D03*
D13*
X168500000Y-27500000D03*
D12*
X165960000Y-30040000D03*
X168500000Y-30040000D03*
X165960000Y-32580000D03*
X168500000Y-32580000D03*
X165960000Y-35120000D03*
X168500000Y-35120000D03*
X165960000Y-37660000D03*
X168500000Y-37660000D03*
X165960000Y-40200000D03*
X168500000Y-40200000D03*
X165960000Y-42740000D03*
X168500000Y-42740000D03*
X165960000Y-45280000D03*
X168500000Y-45280000D03*
X165960000Y-49344000D03*
D13*
X168500000Y-49344000D03*
D12*
X165960000Y-51884000D03*
X168500000Y-51884000D03*
X165960000Y-54424000D03*
X168500000Y-54424000D03*
X165960000Y-56964000D03*
X168500000Y-56964000D03*
X165960000Y-59504000D03*
X168500000Y-59504000D03*
X165960000Y-62044000D03*
X168500000Y-62044000D03*
X165960000Y-64584000D03*
X168500000Y-64584000D03*
X165960000Y-67124000D03*
X168500000Y-67124000D03*
X165960000Y-69664000D03*
X168500000Y-69664000D03*
X165960000Y-72204000D03*
X168500000Y-72204000D03*
X214220000Y-40200000D03*
D13*
X211680000Y-40200000D03*
D12*
X214220000Y-37660000D03*
X211680000Y-37660000D03*
X214220000Y-35120000D03*
X211680000Y-35120000D03*
X214220000Y-32580000D03*
X211680000Y-32580000D03*
X214220000Y-30040000D03*
X211680000Y-30040000D03*
X214220000Y-27500000D03*
X211680000Y-27500000D03*
X214220000Y-63060000D03*
D13*
X211680000Y-63060000D03*
D12*
X214220000Y-60520000D03*
X211680000Y-60520000D03*
X214220000Y-57980000D03*
X211680000Y-57980000D03*
X214220000Y-55440000D03*
X211680000Y-55440000D03*
X214220000Y-52900000D03*
X211680000Y-52900000D03*
X214220000Y-50360000D03*
X211680000Y-50360000D03*
X214220000Y-47820000D03*
X211680000Y-47820000D03*
X214220000Y-45280000D03*
X211680000Y-45280000D03*
D14*
X167230000Y-22420000D03*
X213712000Y-22420000D03*
X213712000Y-75760000D03*
X167230000Y-77030000D03*
G04 #@! TD*
D15*
G04 #@! TO.C,J25*
X66660000Y-70500000D03*
X64120000Y-70500000D03*
X61580000Y-70500000D03*
X59040000Y-70500000D03*
X56500000Y-70500000D03*
G04 #@! TD*
G04 #@! TO.C,J24*
X94660000Y-70500000D03*
X92120000Y-70500000D03*
X89580000Y-70500000D03*
X87040000Y-70500000D03*
X84500000Y-70500000D03*
G04 #@! TD*
G04 #@! TO.C,J23*
X113660000Y-70500000D03*
X111120000Y-70500000D03*
X108580000Y-70500000D03*
X106040000Y-70500000D03*
X103500000Y-70500000D03*
G04 #@! TD*
G04 #@! TO.C,J22*
X141660000Y-70500000D03*
X139120000Y-70500000D03*
X136580000Y-70500000D03*
X134040000Y-70500000D03*
X131500000Y-70500000D03*
G04 #@! TD*
G04 #@! TO.C,J17*
X66080000Y-45500000D03*
X63540000Y-45500000D03*
X61000000Y-45500000D03*
G04 #@! TD*
G04 #@! TO.C,J16*
X89580000Y-45500000D03*
X87040000Y-45500000D03*
X84500000Y-45500000D03*
G04 #@! TD*
G04 #@! TO.C,J15*
X113080000Y-45500000D03*
X110540000Y-45500000D03*
X108000000Y-45500000D03*
G04 #@! TD*
G04 #@! TO.C,J14*
X136580000Y-45500000D03*
X134040000Y-45500000D03*
X131500000Y-45500000D03*
G04 #@! TD*
G04 #@! TO.C,J7*
X66080000Y-96500000D03*
X63540000Y-96500000D03*
X61000000Y-96500000D03*
G04 #@! TD*
G04 #@! TO.C,J6*
X89580000Y-96500000D03*
X87040000Y-96500000D03*
X84500000Y-96500000D03*
G04 #@! TD*
G04 #@! TO.C,J5*
X113080000Y-96500000D03*
X110540000Y-96500000D03*
X108000000Y-96500000D03*
G04 #@! TD*
G04 #@! TO.C,J4*
X136580000Y-96500000D03*
X134040000Y-96500000D03*
X131500000Y-96500000D03*
G04 #@! TD*
D12*
G04 #@! TO.C,P1*
X158530000Y-57980000D03*
X155990000Y-57980000D03*
X158530000Y-55440000D03*
X155990000Y-55440000D03*
X158530000Y-52900000D03*
X155990000Y-52900000D03*
X158530000Y-50360000D03*
X155990000Y-50360000D03*
X158530000Y-47820000D03*
X155990000Y-47820000D03*
X158530000Y-45280000D03*
X155990000Y-45280000D03*
X158530000Y-42740000D03*
X155990000Y-42740000D03*
X158530000Y-40200000D03*
X155990000Y-40200000D03*
X158530000Y-37660000D03*
X155990000Y-37660000D03*
X158530000Y-35120000D03*
X155990000Y-35120000D03*
X158530000Y-32580000D03*
D13*
X155990000Y-32580000D03*
G04 #@! TD*
D16*
G04 #@! TO.C,J29*
X45000000Y-90380000D03*
X45000000Y-92920000D03*
X45000000Y-95460000D03*
X45000000Y-98000000D03*
G04 #@! TD*
G04 #@! TO.C,J28*
X45000000Y-66880000D03*
X45000000Y-69420000D03*
X45000000Y-71960000D03*
X45000000Y-74500000D03*
G04 #@! TD*
G04 #@! TO.C,J27*
X45000000Y-43380000D03*
X45000000Y-45920000D03*
X45000000Y-48460000D03*
X45000000Y-51000000D03*
G04 #@! TD*
G04 #@! TO.C,J26*
X45000000Y-19880000D03*
X45000000Y-22420000D03*
X45000000Y-24960000D03*
X45000000Y-27500000D03*
G04 #@! TD*
D15*
G04 #@! TO.C,J21*
X68620000Y-27500000D03*
X66080000Y-27500000D03*
X63540000Y-27500000D03*
X61000000Y-27500000D03*
G04 #@! TD*
G04 #@! TO.C,J20*
X92120000Y-27500000D03*
X89580000Y-27500000D03*
X87040000Y-27500000D03*
X84500000Y-27500000D03*
G04 #@! TD*
G04 #@! TO.C,J19*
X115620000Y-27500000D03*
X113080000Y-27500000D03*
X110540000Y-27500000D03*
X108000000Y-27500000D03*
G04 #@! TD*
G04 #@! TO.C,J18*
X139120000Y-27500000D03*
X136580000Y-27500000D03*
X134040000Y-27500000D03*
X131500000Y-27500000D03*
G04 #@! TD*
D17*
G04 #@! TO.C,J1*
X213500000Y-102500000D03*
X213500000Y-106462400D03*
X213500000Y-110424800D03*
X213500000Y-114387200D03*
G04 #@! TD*
D16*
G04 #@! TO.C,J13*
X4000000Y-102000000D03*
X4000000Y-99460000D03*
G04 #@! TD*
G04 #@! TO.C,J12*
X4000000Y-84500000D03*
X4000000Y-81960000D03*
G04 #@! TD*
G04 #@! TO.C,J11*
X4000000Y-67000000D03*
X4000000Y-64460000D03*
G04 #@! TD*
G04 #@! TO.C,J10*
X4000000Y-49500000D03*
X4000000Y-46960000D03*
G04 #@! TD*
G04 #@! TO.C,J9*
X4000000Y-32000000D03*
X4000000Y-29460000D03*
G04 #@! TD*
G04 #@! TO.C,J8*
X4000000Y-14500000D03*
X4000000Y-11960000D03*
G04 #@! TD*
D15*
G04 #@! TO.C,J3*
X19000000Y-1000000D03*
X16460000Y-1000000D03*
G04 #@! TD*
G04 #@! TO.C,J2*
X204500000Y-1000000D03*
X201960000Y-1000000D03*
G04 #@! TD*
D12*
G04 #@! TO.C,JP1*
X221040000Y-99000000D03*
X218500000Y-99000000D03*
G04 #@! TD*
G04 #@! TO.C,JP2*
X204540000Y-7500000D03*
X202000000Y-7500000D03*
G04 #@! TD*
G04 #@! TO.C,JP3*
X127540000Y-99000000D03*
X125000000Y-99000000D03*
G04 #@! TD*
G04 #@! TO.C,JP4*
X104040000Y-99000000D03*
X101500000Y-99000000D03*
G04 #@! TD*
G04 #@! TO.C,JP5*
X80540000Y-99000000D03*
X78000000Y-99000000D03*
G04 #@! TD*
G04 #@! TO.C,JP6*
X57040000Y-99000000D03*
X54500000Y-99000000D03*
G04 #@! TD*
G04 #@! TO.C,JP7*
X221540000Y-58000000D03*
X219000000Y-58000000D03*
G04 #@! TD*
G04 #@! TO.C,JP8*
X200460000Y-50500000D03*
X203000000Y-50500000D03*
G04 #@! TD*
G04 #@! TO.C,JP9*
X134040000Y-64000000D03*
X131500000Y-64000000D03*
G04 #@! TD*
G04 #@! TO.C,JP10*
X106040000Y-64000000D03*
X103500000Y-64000000D03*
G04 #@! TD*
G04 #@! TO.C,JP11*
X87040000Y-64000000D03*
X84500000Y-64000000D03*
G04 #@! TD*
G04 #@! TO.C,JP12*
X59040000Y-64000000D03*
X56500000Y-64000000D03*
G04 #@! TD*
D18*
G04 #@! TO.C,F1*
X0Y0D03*
G04 #@! TD*
G04 #@! TO.C,F2*
X214500000Y0D03*
G04 #@! TD*
G04 #@! TO.C,F3*
X0Y-112500000D03*
G04 #@! TD*
D19*
G04 #@! TO.C,H4*
X221500000Y-112500000D03*
G04 #@! TD*
G04 #@! TO.C,H3*
X-7000000Y-112500000D03*
G04 #@! TD*
G04 #@! TO.C,H2*
X221500000Y0D03*
G04 #@! TD*
G04 #@! TO.C,H1*
X-7000000Y0D03*
G04 #@! TD*
G04 #@! TO.C,H5*
X99500000Y-43500000D03*
G04 #@! TD*
D14*
G04 #@! TO.C,H9*
X156000000Y-63500000D03*
G04 #@! TD*
G04 #@! TO.C,H7*
X156000000Y-27000000D03*
G04 #@! TD*
G04 #@! TO.C,H8*
X52000000Y-63500000D03*
G04 #@! TD*
G04 #@! TO.C,H6*
X52000000Y-27000000D03*
G04 #@! TD*
G04 #@! TO.C,H10*
X-17850000Y10850000D03*
G04 #@! TD*
G04 #@! TO.C,H11*
X232350000Y10850000D03*
G04 #@! TD*
G04 #@! TO.C,H13*
X232350000Y-123350000D03*
G04 #@! TD*
G04 #@! TO.C,H12*
X-17850000Y-123350000D03*
G04 #@! TD*
M02*
