G04 #@! TF.GenerationSoftware,KiCad,Pcbnew,(5.0.0)*
G04 #@! TF.CreationDate,2019-04-01T15:57:56-04:00*
G04 #@! TF.ProjectId,PREP400,505245503430302E6B696361645F7063,2*
G04 #@! TF.SameCoordinates,Original*
G04 #@! TF.FileFunction,Profile,NP*
%FSLAX46Y46*%
G04 Gerber Fmt 4.6, Leading zero omitted, Abs format (unit mm)*
G04 Created by KiCad (PCBNEW (5.0.0)) date 04/01/19 15:57:56*
%MOMM*%
%LPD*%
G01*
G04 APERTURE LIST*
%ADD10C,0.150000*%
%ADD11C,2.540000*%
G04 APERTURE END LIST*
D10*
X310250000Y-199900000D02*
X310250000Y-55700000D01*
X50050000Y-55700000D02*
X50050000Y-199900000D01*
X310250000Y-55700000D02*
X50050000Y-55700000D01*
X50050000Y-199900000D02*
X310250000Y-199900000D01*
X58900000Y-199850000D02*
X58900000Y-199800000D01*
D11*
X293150000Y-64550000D02*
X301400000Y-64550000D01*
X67150000Y-191050000D02*
X58900000Y-191050000D01*
X58900000Y-199850000D02*
X58900000Y-199900000D01*
X301400000Y-153800000D02*
X301400000Y-193300000D01*
X301400000Y-108300000D02*
X301400000Y-147300000D01*
X301400000Y-62300000D02*
X301400000Y-101800000D01*
X301400000Y-55800000D02*
X301400000Y-55750000D01*
X220150000Y-64550000D02*
X286650000Y-64550000D01*
X146650000Y-64550000D02*
X213650000Y-64550000D01*
X73650000Y-64550000D02*
X140150000Y-64550000D01*
X67150000Y-64550000D02*
X58900000Y-64550000D01*
X58900000Y-55800000D02*
X58900000Y-55750000D01*
X58900000Y-101800000D02*
X58900000Y-62300000D01*
X58900000Y-147300000D02*
X58900000Y-108300000D01*
X58900000Y-193300000D02*
X58900000Y-153800000D01*
X301400000Y-199800000D02*
X301400000Y-199850000D01*
X281650000Y-191050000D02*
X301400000Y-191050000D01*
X121150000Y-191050000D02*
X73650000Y-191050000D01*
X221150000Y-191050000D02*
X127650000Y-191050000D01*
X275150000Y-191050000D02*
X227650000Y-191050000D01*
M02*
