G04 #@! TF.GenerationSoftware,KiCad,Pcbnew,(5.0.0)*
G04 #@! TF.CreationDate,2019-04-01T15:57:56-04:00*
G04 #@! TF.ProjectId,PREP400,505245503430302E6B696361645F7063,2*
G04 #@! TF.SameCoordinates,Original*
G04 #@! TF.FileFunction,Soldermask,Bot*
G04 #@! TF.FilePolarity,Negative*
%FSLAX46Y46*%
G04 Gerber Fmt 4.6, Leading zero omitted, Abs format (unit mm)*
G04 Created by KiCad (PCBNEW (5.0.0)) date 04/01/19 15:57:56*
%MOMM*%
%LPD*%
G01*
G04 APERTURE LIST*
%ADD10O,1.828800X1.828800*%
%ADD11R,1.828800X1.828800*%
%ADD12C,3.276600*%
%ADD13O,2.006600X2.006600*%
%ADD14O,3.149600X1.625600*%
%ADD15O,1.625600X3.149600*%
%ADD16C,3.159000*%
%ADD17C,2.901600*%
%ADD18C,0.601600*%
%ADD19O,4.673600X2.387600*%
%ADD20C,5.101600*%
G04 APERTURE END LIST*
D10*
G04 #@! TO.C,U1*
X238860000Y-99050000D03*
D11*
X241400000Y-99050000D03*
D10*
X238860000Y-101590000D03*
X241400000Y-101590000D03*
X238860000Y-104130000D03*
X241400000Y-104130000D03*
X238860000Y-106670000D03*
X241400000Y-106670000D03*
X238860000Y-109210000D03*
X241400000Y-109210000D03*
X238860000Y-111750000D03*
X241400000Y-111750000D03*
X238860000Y-114290000D03*
X241400000Y-114290000D03*
X238860000Y-116830000D03*
X241400000Y-116830000D03*
X238860000Y-120894000D03*
D11*
X241400000Y-120894000D03*
D10*
X238860000Y-123434000D03*
X241400000Y-123434000D03*
X238860000Y-125974000D03*
X241400000Y-125974000D03*
X238860000Y-128514000D03*
X241400000Y-128514000D03*
X238860000Y-131054000D03*
X241400000Y-131054000D03*
X238860000Y-133594000D03*
X241400000Y-133594000D03*
X238860000Y-136134000D03*
X241400000Y-136134000D03*
X238860000Y-138674000D03*
X241400000Y-138674000D03*
X238860000Y-141214000D03*
X241400000Y-141214000D03*
X238860000Y-143754000D03*
X241400000Y-143754000D03*
X287120000Y-111750000D03*
D11*
X284580000Y-111750000D03*
D10*
X287120000Y-109210000D03*
X284580000Y-109210000D03*
X287120000Y-106670000D03*
X284580000Y-106670000D03*
X287120000Y-104130000D03*
X284580000Y-104130000D03*
X287120000Y-101590000D03*
X284580000Y-101590000D03*
X287120000Y-99050000D03*
X284580000Y-99050000D03*
X287120000Y-134610000D03*
D11*
X284580000Y-134610000D03*
D10*
X287120000Y-132070000D03*
X284580000Y-132070000D03*
X287120000Y-129530000D03*
X284580000Y-129530000D03*
X287120000Y-126990000D03*
X284580000Y-126990000D03*
X287120000Y-124450000D03*
X284580000Y-124450000D03*
X287120000Y-121910000D03*
X284580000Y-121910000D03*
X287120000Y-119370000D03*
X284580000Y-119370000D03*
X287120000Y-116830000D03*
X284580000Y-116830000D03*
D12*
X240130000Y-93970000D03*
X286612000Y-93970000D03*
X286612000Y-147310000D03*
X240130000Y-148580000D03*
G04 #@! TD*
D13*
G04 #@! TO.C,JP1*
X291400000Y-170550000D03*
X293940000Y-170550000D03*
G04 #@! TD*
G04 #@! TO.C,JP2*
X274900000Y-79050000D03*
X277440000Y-79050000D03*
G04 #@! TD*
G04 #@! TO.C,JP3*
X197900000Y-170550000D03*
X200440000Y-170550000D03*
G04 #@! TD*
G04 #@! TO.C,JP4*
X174400000Y-170550000D03*
X176940000Y-170550000D03*
G04 #@! TD*
G04 #@! TO.C,JP5*
X150900000Y-170550000D03*
X153440000Y-170550000D03*
G04 #@! TD*
G04 #@! TO.C,JP6*
X127400000Y-170550000D03*
X129940000Y-170550000D03*
G04 #@! TD*
G04 #@! TO.C,JP7*
X291900000Y-129550000D03*
X294440000Y-129550000D03*
G04 #@! TD*
G04 #@! TO.C,JP8*
X275900000Y-122050000D03*
X273360000Y-122050000D03*
G04 #@! TD*
G04 #@! TO.C,JP9*
X204400000Y-135550000D03*
X206940000Y-135550000D03*
G04 #@! TD*
G04 #@! TO.C,JP10*
X176400000Y-135550000D03*
X178940000Y-135550000D03*
G04 #@! TD*
G04 #@! TO.C,JP11*
X157400000Y-135550000D03*
X159940000Y-135550000D03*
G04 #@! TD*
G04 #@! TO.C,JP12*
X129400000Y-135550000D03*
X131940000Y-135550000D03*
G04 #@! TD*
D14*
G04 #@! TO.C,J13*
X76900000Y-171010000D03*
X76900000Y-173550000D03*
G04 #@! TD*
G04 #@! TO.C,J12*
X76900000Y-153510000D03*
X76900000Y-156050000D03*
G04 #@! TD*
G04 #@! TO.C,J11*
X76900000Y-136010000D03*
X76900000Y-138550000D03*
G04 #@! TD*
G04 #@! TO.C,J10*
X76900000Y-118510000D03*
X76900000Y-121050000D03*
G04 #@! TD*
G04 #@! TO.C,J9*
X76900000Y-101010000D03*
X76900000Y-103550000D03*
G04 #@! TD*
G04 #@! TO.C,J8*
X76900000Y-83510000D03*
X76900000Y-86050000D03*
G04 #@! TD*
D15*
G04 #@! TO.C,J3*
X89360000Y-72550000D03*
X91900000Y-72550000D03*
G04 #@! TD*
G04 #@! TO.C,J2*
X274860000Y-72550000D03*
X277400000Y-72550000D03*
G04 #@! TD*
D14*
G04 #@! TO.C,J29*
X117900000Y-169550000D03*
X117900000Y-167010000D03*
X117900000Y-164470000D03*
X117900000Y-161930000D03*
G04 #@! TD*
G04 #@! TO.C,J28*
X117900000Y-146050000D03*
X117900000Y-143510000D03*
X117900000Y-140970000D03*
X117900000Y-138430000D03*
G04 #@! TD*
G04 #@! TO.C,J27*
X117900000Y-122550000D03*
X117900000Y-120010000D03*
X117900000Y-117470000D03*
X117900000Y-114930000D03*
G04 #@! TD*
G04 #@! TO.C,J26*
X117900000Y-99050000D03*
X117900000Y-96510000D03*
X117900000Y-93970000D03*
X117900000Y-91430000D03*
G04 #@! TD*
D15*
G04 #@! TO.C,J21*
X133900000Y-99050000D03*
X136440000Y-99050000D03*
X138980000Y-99050000D03*
X141520000Y-99050000D03*
G04 #@! TD*
G04 #@! TO.C,J20*
X157400000Y-99050000D03*
X159940000Y-99050000D03*
X162480000Y-99050000D03*
X165020000Y-99050000D03*
G04 #@! TD*
G04 #@! TO.C,J19*
X180900000Y-99050000D03*
X183440000Y-99050000D03*
X185980000Y-99050000D03*
X188520000Y-99050000D03*
G04 #@! TD*
G04 #@! TO.C,J18*
X204400000Y-99050000D03*
X206940000Y-99050000D03*
X209480000Y-99050000D03*
X212020000Y-99050000D03*
G04 #@! TD*
G04 #@! TO.C,J17*
X133900000Y-117050000D03*
X136440000Y-117050000D03*
X138980000Y-117050000D03*
G04 #@! TD*
G04 #@! TO.C,J16*
X157400000Y-117050000D03*
X159940000Y-117050000D03*
X162480000Y-117050000D03*
G04 #@! TD*
G04 #@! TO.C,J15*
X180900000Y-117050000D03*
X183440000Y-117050000D03*
X185980000Y-117050000D03*
G04 #@! TD*
G04 #@! TO.C,J14*
X204400000Y-117050000D03*
X206940000Y-117050000D03*
X209480000Y-117050000D03*
G04 #@! TD*
G04 #@! TO.C,J7*
X133900000Y-168050000D03*
X136440000Y-168050000D03*
X138980000Y-168050000D03*
G04 #@! TD*
G04 #@! TO.C,J6*
X157400000Y-168050000D03*
X159940000Y-168050000D03*
X162480000Y-168050000D03*
G04 #@! TD*
G04 #@! TO.C,J5*
X180900000Y-168050000D03*
X183440000Y-168050000D03*
X185980000Y-168050000D03*
G04 #@! TD*
G04 #@! TO.C,J4*
X204400000Y-168050000D03*
X206940000Y-168050000D03*
X209480000Y-168050000D03*
G04 #@! TD*
G04 #@! TO.C,J25*
X129400000Y-142050000D03*
X131940000Y-142050000D03*
X134480000Y-142050000D03*
X137020000Y-142050000D03*
X139560000Y-142050000D03*
G04 #@! TD*
G04 #@! TO.C,J24*
X157400000Y-142050000D03*
X159940000Y-142050000D03*
X162480000Y-142050000D03*
X165020000Y-142050000D03*
X167560000Y-142050000D03*
G04 #@! TD*
G04 #@! TO.C,J23*
X176400000Y-142050000D03*
X178940000Y-142050000D03*
X181480000Y-142050000D03*
X184020000Y-142050000D03*
X186560000Y-142050000D03*
G04 #@! TD*
G04 #@! TO.C,J22*
X204400000Y-142050000D03*
X206940000Y-142050000D03*
X209480000Y-142050000D03*
X212020000Y-142050000D03*
X214560000Y-142050000D03*
G04 #@! TD*
D16*
G04 #@! TO.C,F1*
X72900000Y-71550000D03*
G04 #@! TD*
G04 #@! TO.C,F2*
X287400000Y-71550000D03*
G04 #@! TD*
G04 #@! TO.C,F3*
X72900000Y-184050000D03*
G04 #@! TD*
D17*
G04 #@! TO.C,TP19*
X79900000Y-71550000D03*
G04 #@! TD*
G04 #@! TO.C,TP22*
X275900000Y-184050000D03*
G04 #@! TD*
G04 #@! TO.C,TP20*
X256900000Y-71550000D03*
G04 #@! TD*
G04 #@! TO.C,TP21*
X79900000Y-184050000D03*
G04 #@! TD*
D18*
G04 #@! TO.C,REF\002A\002A*
X222400000Y-189650000D03*
X223400000Y-189650000D03*
X224400000Y-189650000D03*
X225400000Y-189650000D03*
X226400000Y-189650000D03*
X221400000Y-189650000D03*
X227400000Y-189650000D03*
G04 #@! TD*
G04 #@! TO.C,REF\002A\002A*
X122400000Y-189650000D03*
X123400000Y-189650000D03*
X124400000Y-189650000D03*
X125400000Y-189650000D03*
X126400000Y-189650000D03*
X121400000Y-189650000D03*
X127400000Y-189650000D03*
G04 #@! TD*
G04 #@! TO.C,REF\002A\002A*
X68400000Y-189650000D03*
X69400000Y-189650000D03*
X70400000Y-189650000D03*
X71400000Y-189650000D03*
X72400000Y-189650000D03*
X67400000Y-189650000D03*
X73400000Y-189650000D03*
G04 #@! TD*
G04 #@! TO.C,REF\002A\002A*
X276400000Y-189650000D03*
X277400000Y-189650000D03*
X278400000Y-189650000D03*
X279400000Y-189650000D03*
X280400000Y-189650000D03*
X275400000Y-189650000D03*
X281400000Y-189650000D03*
G04 #@! TD*
G04 #@! TO.C,REF\002A\002A*
X300000000Y-198550000D03*
X300000000Y-197550000D03*
X300000000Y-196550000D03*
X300000000Y-195550000D03*
X300000000Y-194550000D03*
X300000000Y-199550000D03*
X300000000Y-193550000D03*
G04 #@! TD*
G04 #@! TO.C,REF\002A\002A*
X300000000Y-61050000D03*
X300000000Y-60050000D03*
X300000000Y-59050000D03*
X300000000Y-58050000D03*
X300000000Y-57050000D03*
X300000000Y-62050000D03*
X300000000Y-56050000D03*
G04 #@! TD*
G04 #@! TO.C,REF\002A\002A*
X300000000Y-152550000D03*
X300000000Y-151550000D03*
X300000000Y-150550000D03*
X300000000Y-149550000D03*
X300000000Y-148550000D03*
X300000000Y-153550000D03*
X300000000Y-147550000D03*
G04 #@! TD*
G04 #@! TO.C,REF\002A\002A*
X300000000Y-107050000D03*
X300000000Y-106050000D03*
X300000000Y-105050000D03*
X300000000Y-104050000D03*
X300000000Y-103050000D03*
X300000000Y-108050000D03*
X300000000Y-102050000D03*
G04 #@! TD*
G04 #@! TO.C,REF\002A\002A*
X60300000Y-194550000D03*
X60300000Y-195550000D03*
X60300000Y-196550000D03*
X60300000Y-197550000D03*
X60300000Y-198550000D03*
X60300000Y-193550000D03*
X60300000Y-199550000D03*
G04 #@! TD*
G04 #@! TO.C,REF\002A\002A*
X60300000Y-57050000D03*
X60300000Y-58050000D03*
X60300000Y-59050000D03*
X60300000Y-60050000D03*
X60300000Y-61050000D03*
X60300000Y-56050000D03*
X60300000Y-62050000D03*
G04 #@! TD*
G04 #@! TO.C,REF\002A\002A*
X60300000Y-103050000D03*
X60300000Y-104050000D03*
X60300000Y-105050000D03*
X60300000Y-106050000D03*
X60300000Y-107050000D03*
X60300000Y-102050000D03*
X60300000Y-108050000D03*
G04 #@! TD*
G04 #@! TO.C,REF\002A\002A*
X60300000Y-148550000D03*
X60300000Y-149550000D03*
X60300000Y-150550000D03*
X60300000Y-151550000D03*
X60300000Y-152550000D03*
X60300000Y-147550000D03*
X60300000Y-153550000D03*
G04 #@! TD*
G04 #@! TO.C,REF\002A\002A*
X72400000Y-65950000D03*
X71400000Y-65950000D03*
X70400000Y-65950000D03*
X69400000Y-65950000D03*
X68400000Y-65950000D03*
X73400000Y-65950000D03*
X67400000Y-65950000D03*
G04 #@! TD*
G04 #@! TO.C,REF\002A\002A*
X291900000Y-65950000D03*
X290900000Y-65950000D03*
X289900000Y-65950000D03*
X288900000Y-65950000D03*
X287900000Y-65950000D03*
X292900000Y-65950000D03*
X286900000Y-65950000D03*
G04 #@! TD*
G04 #@! TO.C,REF\002A\002A*
X145400000Y-65950000D03*
X144400000Y-65950000D03*
X143400000Y-65950000D03*
X142400000Y-65950000D03*
X141400000Y-65950000D03*
X146400000Y-65950000D03*
X140400000Y-65950000D03*
G04 #@! TD*
G04 #@! TO.C,REF\002A\002A*
X218900000Y-65950000D03*
X217900000Y-65950000D03*
X216900000Y-65950000D03*
X215900000Y-65950000D03*
X214900000Y-65950000D03*
X219900000Y-65950000D03*
X213900000Y-65950000D03*
G04 #@! TD*
D10*
G04 #@! TO.C,P1*
X231430000Y-129530000D03*
X228890000Y-129530000D03*
X231430000Y-126990000D03*
X228890000Y-126990000D03*
X231430000Y-124450000D03*
X228890000Y-124450000D03*
X231430000Y-121910000D03*
X228890000Y-121910000D03*
X231430000Y-119370000D03*
X228890000Y-119370000D03*
X231430000Y-116830000D03*
X228890000Y-116830000D03*
X231430000Y-114290000D03*
X228890000Y-114290000D03*
X231430000Y-111750000D03*
X228890000Y-111750000D03*
X231430000Y-109210000D03*
X228890000Y-109210000D03*
X231430000Y-106670000D03*
X228890000Y-106670000D03*
X231430000Y-104130000D03*
D11*
X228890000Y-104130000D03*
G04 #@! TD*
D19*
G04 #@! TO.C,J1*
X286400000Y-174050000D03*
X286400000Y-178012400D03*
X286400000Y-181974800D03*
X286400000Y-185937200D03*
G04 #@! TD*
D20*
G04 #@! TO.C,H4*
X294400000Y-184050000D03*
G04 #@! TD*
G04 #@! TO.C,H3*
X65900000Y-184050000D03*
G04 #@! TD*
G04 #@! TO.C,H2*
X294400000Y-71550000D03*
G04 #@! TD*
G04 #@! TO.C,H1*
X65900000Y-71550000D03*
G04 #@! TD*
G04 #@! TO.C,H5*
X172400000Y-115050000D03*
G04 #@! TD*
D12*
G04 #@! TO.C,H9*
X228900000Y-135050000D03*
G04 #@! TD*
G04 #@! TO.C,H7*
X228900000Y-98550000D03*
G04 #@! TD*
G04 #@! TO.C,H8*
X124900000Y-135050000D03*
G04 #@! TD*
G04 #@! TO.C,H6*
X124900000Y-98550000D03*
G04 #@! TD*
G04 #@! TO.C,H10*
X55050000Y-60700000D03*
G04 #@! TD*
G04 #@! TO.C,H11*
X305250000Y-60700000D03*
G04 #@! TD*
G04 #@! TO.C,H13*
X305250000Y-194900000D03*
G04 #@! TD*
G04 #@! TO.C,H12*
X55050000Y-194900000D03*
G04 #@! TD*
M02*
