G04 #@! TF.FileFunction,Soldermask,Bot*
%FSLAX46Y46*%
G04 Gerber Fmt 4.6, Leading zero omitted, Abs format (unit mm)*
G04 Created by KiCad (PCBNEW 4.0.5) date 06/08/17 15:42:24*
%MOMM*%
%LPD*%
G01*
G04 APERTURE LIST*
%ADD10C,0.100000*%
%ADD11O,3.448000X1.924000*%
%ADD12O,1.924000X3.448000*%
%ADD13O,4.972000X2.686000*%
%ADD14R,2.127200X2.127200*%
%ADD15O,2.127200X2.127200*%
%ADD16C,2.540000*%
%ADD17C,5.400000*%
%ADD18C,3.575000*%
%ADD19C,3.200000*%
%ADD20C,0.900000*%
G04 APERTURE END LIST*
D10*
D11*
X43900000Y-137550000D03*
X43900000Y-135010000D03*
X43900000Y-120050000D03*
X43900000Y-117510000D03*
X43900000Y-102550000D03*
X43900000Y-100010000D03*
X43900000Y-85050000D03*
X43900000Y-82510000D03*
X43900000Y-67550000D03*
X43900000Y-65010000D03*
X43900000Y-50050000D03*
X43900000Y-47510000D03*
D12*
X58900000Y-36550000D03*
X56360000Y-36550000D03*
X244400000Y-36550000D03*
X241860000Y-36550000D03*
D13*
X253400000Y-138050000D03*
X253400000Y-142012400D03*
X253400000Y-145974800D03*
X253400000Y-149937200D03*
D14*
X195890000Y-68130000D03*
D15*
X198430000Y-68130000D03*
X195890000Y-70670000D03*
X198430000Y-70670000D03*
X195890000Y-73210000D03*
X198430000Y-73210000D03*
X195890000Y-75750000D03*
X198430000Y-75750000D03*
X195890000Y-78290000D03*
X198430000Y-78290000D03*
X195890000Y-80830000D03*
X198430000Y-80830000D03*
X195890000Y-83370000D03*
X198430000Y-83370000D03*
X195890000Y-85910000D03*
X198430000Y-85910000D03*
X195890000Y-88450000D03*
X198430000Y-88450000D03*
X195890000Y-90990000D03*
X198430000Y-90990000D03*
X195890000Y-93530000D03*
X198430000Y-93530000D03*
D11*
X84900000Y-133550000D03*
X84900000Y-131010000D03*
X84900000Y-128470000D03*
X84900000Y-125930000D03*
X84900000Y-110050000D03*
X84900000Y-107510000D03*
X84900000Y-104970000D03*
X84900000Y-102430000D03*
X84900000Y-86550000D03*
X84900000Y-84010000D03*
X84900000Y-81470000D03*
X84900000Y-78930000D03*
X84900000Y-63050000D03*
X84900000Y-60510000D03*
X84900000Y-57970000D03*
X84900000Y-55430000D03*
D12*
X100900000Y-63050000D03*
X103440000Y-63050000D03*
X105980000Y-63050000D03*
X108520000Y-63050000D03*
X124400000Y-63050000D03*
X126940000Y-63050000D03*
X129480000Y-63050000D03*
X132020000Y-63050000D03*
X147900000Y-63050000D03*
X150440000Y-63050000D03*
X152980000Y-63050000D03*
X155520000Y-63050000D03*
X171400000Y-63050000D03*
X173940000Y-63050000D03*
X176480000Y-63050000D03*
X179020000Y-63050000D03*
X100900000Y-81050000D03*
X103440000Y-81050000D03*
X105980000Y-81050000D03*
X124400000Y-81050000D03*
X126940000Y-81050000D03*
X129480000Y-81050000D03*
X147900000Y-81050000D03*
X150440000Y-81050000D03*
X152980000Y-81050000D03*
X171400000Y-81050000D03*
X173940000Y-81050000D03*
X176480000Y-81050000D03*
X100900000Y-132050000D03*
X103440000Y-132050000D03*
X105980000Y-132050000D03*
X124400000Y-132050000D03*
X126940000Y-132050000D03*
X129480000Y-132050000D03*
X147900000Y-132050000D03*
X150440000Y-132050000D03*
X152980000Y-132050000D03*
X171400000Y-132050000D03*
X173940000Y-132050000D03*
X176480000Y-132050000D03*
X96400000Y-106050000D03*
X98940000Y-106050000D03*
X101480000Y-106050000D03*
X104020000Y-106050000D03*
X106560000Y-106050000D03*
X124400000Y-106050000D03*
X126940000Y-106050000D03*
X129480000Y-106050000D03*
X132020000Y-106050000D03*
X134560000Y-106050000D03*
X143400000Y-106050000D03*
X145940000Y-106050000D03*
X148480000Y-106050000D03*
X151020000Y-106050000D03*
X153560000Y-106050000D03*
X171400000Y-106050000D03*
X173940000Y-106050000D03*
X176480000Y-106050000D03*
X179020000Y-106050000D03*
X181560000Y-106050000D03*
D15*
X258400000Y-134550000D03*
X260940000Y-134550000D03*
X241900000Y-43050000D03*
X244440000Y-43050000D03*
X164900000Y-134550000D03*
X167440000Y-134550000D03*
X141400000Y-134550000D03*
X143940000Y-134550000D03*
X117900000Y-134550000D03*
X120440000Y-134550000D03*
X94400000Y-134550000D03*
X96940000Y-134550000D03*
X258900000Y-93550000D03*
X261440000Y-93550000D03*
X242900000Y-86050000D03*
X240360000Y-86050000D03*
X171400000Y-99550000D03*
X173940000Y-99550000D03*
X143400000Y-99550000D03*
X145940000Y-99550000D03*
X124400000Y-99550000D03*
X126940000Y-99550000D03*
X96400000Y-99550000D03*
X98940000Y-99550000D03*
D16*
X39900000Y-35550000D03*
X254400000Y-35550000D03*
X39900000Y-148050000D03*
D17*
X261400000Y-148050000D03*
X32900000Y-148050000D03*
X261400000Y-35550000D03*
X32900000Y-35550000D03*
X139400000Y-79050000D03*
D15*
X205860000Y-63050000D03*
D14*
X208400000Y-63050000D03*
D15*
X205860000Y-65590000D03*
X208400000Y-65590000D03*
X205860000Y-68130000D03*
X208400000Y-68130000D03*
X205860000Y-70670000D03*
X208400000Y-70670000D03*
X205860000Y-73210000D03*
X208400000Y-73210000D03*
X205860000Y-75750000D03*
X208400000Y-75750000D03*
X205860000Y-78290000D03*
X208400000Y-78290000D03*
X205860000Y-80830000D03*
X208400000Y-80830000D03*
X205860000Y-84894000D03*
D14*
X208400000Y-84894000D03*
D15*
X205860000Y-87434000D03*
X208400000Y-87434000D03*
X205860000Y-89974000D03*
X208400000Y-89974000D03*
X205860000Y-92514000D03*
X208400000Y-92514000D03*
X205860000Y-95054000D03*
X208400000Y-95054000D03*
X205860000Y-97594000D03*
X208400000Y-97594000D03*
X205860000Y-100134000D03*
X208400000Y-100134000D03*
X205860000Y-102674000D03*
X208400000Y-102674000D03*
X205860000Y-105214000D03*
X208400000Y-105214000D03*
X205860000Y-107754000D03*
X208400000Y-107754000D03*
X254120000Y-75750000D03*
D14*
X251580000Y-75750000D03*
D15*
X254120000Y-73210000D03*
X251580000Y-73210000D03*
X254120000Y-70670000D03*
X251580000Y-70670000D03*
X254120000Y-68130000D03*
X251580000Y-68130000D03*
X254120000Y-65590000D03*
X251580000Y-65590000D03*
X254120000Y-63050000D03*
X251580000Y-63050000D03*
X254120000Y-98610000D03*
D14*
X251580000Y-98610000D03*
D15*
X254120000Y-96070000D03*
X251580000Y-96070000D03*
X254120000Y-93530000D03*
X251580000Y-93530000D03*
X254120000Y-90990000D03*
X251580000Y-90990000D03*
X254120000Y-88450000D03*
X251580000Y-88450000D03*
X254120000Y-85910000D03*
X251580000Y-85910000D03*
X254120000Y-83370000D03*
X251580000Y-83370000D03*
X254120000Y-80830000D03*
X251580000Y-80830000D03*
D18*
X207130000Y-57970000D03*
X253612000Y-57970000D03*
X253612000Y-111310000D03*
X207130000Y-112580000D03*
X195900000Y-99050000D03*
X195900000Y-62550000D03*
X91900000Y-99050000D03*
X91900000Y-62550000D03*
D19*
X46900000Y-35550000D03*
X242900000Y-148050000D03*
X223900000Y-35550000D03*
X46900000Y-148050000D03*
D18*
X22050000Y-24700000D03*
X272250000Y-24700000D03*
X272250000Y-158900000D03*
X22050000Y-158900000D03*
D20*
X194400000Y-153650000D03*
X188400000Y-153650000D03*
X193400000Y-153650000D03*
X192400000Y-153650000D03*
X191400000Y-153650000D03*
X190400000Y-153650000D03*
X189400000Y-153650000D03*
X94400000Y-153650000D03*
X88400000Y-153650000D03*
X93400000Y-153650000D03*
X92400000Y-153650000D03*
X91400000Y-153650000D03*
X90400000Y-153650000D03*
X89400000Y-153650000D03*
X40400000Y-153650000D03*
X34400000Y-153650000D03*
X39400000Y-153650000D03*
X38400000Y-153650000D03*
X37400000Y-153650000D03*
X36400000Y-153650000D03*
X35400000Y-153650000D03*
X248400000Y-153650000D03*
X242400000Y-153650000D03*
X247400000Y-153650000D03*
X246400000Y-153650000D03*
X245400000Y-153650000D03*
X244400000Y-153650000D03*
X243400000Y-153650000D03*
X267000000Y-157550000D03*
X267000000Y-163550000D03*
X267000000Y-158550000D03*
X267000000Y-159550000D03*
X267000000Y-160550000D03*
X267000000Y-161550000D03*
X267000000Y-162550000D03*
X267000000Y-20050000D03*
X267000000Y-26050000D03*
X267000000Y-21050000D03*
X267000000Y-22050000D03*
X267000000Y-23050000D03*
X267000000Y-24050000D03*
X267000000Y-25050000D03*
X267000000Y-111550000D03*
X267000000Y-117550000D03*
X267000000Y-112550000D03*
X267000000Y-113550000D03*
X267000000Y-114550000D03*
X267000000Y-115550000D03*
X267000000Y-116550000D03*
X267000000Y-66050000D03*
X267000000Y-72050000D03*
X267000000Y-67050000D03*
X267000000Y-68050000D03*
X267000000Y-69050000D03*
X267000000Y-70050000D03*
X267000000Y-71050000D03*
X27300000Y-163550000D03*
X27300000Y-157550000D03*
X27300000Y-162550000D03*
X27300000Y-161550000D03*
X27300000Y-160550000D03*
X27300000Y-159550000D03*
X27300000Y-158550000D03*
X27300000Y-26050000D03*
X27300000Y-20050000D03*
X27300000Y-25050000D03*
X27300000Y-24050000D03*
X27300000Y-23050000D03*
X27300000Y-22050000D03*
X27300000Y-21050000D03*
X27300000Y-72050000D03*
X27300000Y-66050000D03*
X27300000Y-71050000D03*
X27300000Y-70050000D03*
X27300000Y-69050000D03*
X27300000Y-68050000D03*
X27300000Y-67050000D03*
X27300000Y-117550000D03*
X27300000Y-111550000D03*
X27300000Y-116550000D03*
X27300000Y-115550000D03*
X27300000Y-114550000D03*
X27300000Y-113550000D03*
X27300000Y-112550000D03*
X34400000Y-29950000D03*
X40400000Y-29950000D03*
X35400000Y-29950000D03*
X36400000Y-29950000D03*
X37400000Y-29950000D03*
X38400000Y-29950000D03*
X39400000Y-29950000D03*
X253900000Y-29950000D03*
X259900000Y-29950000D03*
X254900000Y-29950000D03*
X255900000Y-29950000D03*
X256900000Y-29950000D03*
X257900000Y-29950000D03*
X258900000Y-29950000D03*
X107400000Y-29950000D03*
X113400000Y-29950000D03*
X108400000Y-29950000D03*
X109400000Y-29950000D03*
X110400000Y-29950000D03*
X111400000Y-29950000D03*
X112400000Y-29950000D03*
X180900000Y-29950000D03*
X186900000Y-29950000D03*
X181900000Y-29950000D03*
X182900000Y-29950000D03*
X183900000Y-29950000D03*
X184900000Y-29950000D03*
X185900000Y-29950000D03*
M02*
