G04 #@! TF.FileFunction,Profile,NP*
%FSLAX46Y46*%
G04 Gerber Fmt 4.6, Leading zero omitted, Abs format (unit mm)*
G04 Created by KiCad (PCBNEW 4.0.5) date 06/08/17 15:42:24*
%MOMM*%
%LPD*%
G01*
G04 APERTURE LIST*
%ADD10C,0.100000*%
%ADD11C,0.150000*%
%ADD12C,2.540000*%
G04 APERTURE END LIST*
D10*
D11*
X277250000Y-163900000D02*
X277250000Y-19700000D01*
X17050000Y-19700000D02*
X17050000Y-163900000D01*
X277250000Y-19700000D02*
X17050000Y-19700000D01*
X17050000Y-163900000D02*
X277250000Y-163900000D01*
X25900000Y-163850000D02*
X25900000Y-163800000D01*
D12*
X260150000Y-28550000D02*
X268400000Y-28550000D01*
X34150000Y-155050000D02*
X25900000Y-155050000D01*
X25900000Y-163850000D02*
X25900000Y-163900000D01*
X268400000Y-117800000D02*
X268400000Y-157300000D01*
X268400000Y-72300000D02*
X268400000Y-111300000D01*
X268400000Y-26300000D02*
X268400000Y-65800000D01*
X268400000Y-19800000D02*
X268400000Y-19750000D01*
X187150000Y-28550000D02*
X253650000Y-28550000D01*
X113650000Y-28550000D02*
X180650000Y-28550000D01*
X40650000Y-28550000D02*
X107150000Y-28550000D01*
X34150000Y-28550000D02*
X25900000Y-28550000D01*
X25900000Y-19800000D02*
X25900000Y-19750000D01*
X25900000Y-65800000D02*
X25900000Y-26300000D01*
X25900000Y-111300000D02*
X25900000Y-72300000D01*
X25900000Y-157300000D02*
X25900000Y-117800000D01*
X268400000Y-163800000D02*
X268400000Y-163850000D01*
X248650000Y-155050000D02*
X268400000Y-155050000D01*
X88150000Y-155050000D02*
X40650000Y-155050000D01*
X188150000Y-155050000D02*
X94650000Y-155050000D01*
X242150000Y-155050000D02*
X194650000Y-155050000D01*
M02*
