G04 #@! TF.GenerationSoftware,KiCad,Pcbnew,(5.0.0)*
G04 #@! TF.CreationDate,2018-10-25T18:05:55-04:00*
G04 #@! TF.ProjectId,PREP400,505245503430302E6B696361645F7063,A*
G04 #@! TF.SameCoordinates,Original*
G04 #@! TF.FileFunction,Soldermask,Bot*
G04 #@! TF.FilePolarity,Negative*
%FSLAX46Y46*%
G04 Gerber Fmt 4.6, Leading zero omitted, Abs format (unit mm)*
G04 Created by KiCad (PCBNEW (5.0.0)) date 10/25/18 18:05:55*
%MOMM*%
%LPD*%
G01*
G04 APERTURE LIST*
%ADD10O,2.127200X2.127200*%
%ADD11R,2.127200X2.127200*%
%ADD12C,3.575000*%
%ADD13O,1.924000X3.448000*%
%ADD14O,3.448000X1.924000*%
%ADD15O,4.972000X2.686000*%
%ADD16C,3.200000*%
%ADD17C,2.540000*%
%ADD18C,5.400000*%
%ADD19C,0.900000*%
G04 APERTURE END LIST*
D10*
G04 #@! TO.C,U1*
X205860000Y-63050000D03*
D11*
X208400000Y-63050000D03*
D10*
X205860000Y-65590000D03*
X208400000Y-65590000D03*
X205860000Y-68130000D03*
X208400000Y-68130000D03*
X205860000Y-70670000D03*
X208400000Y-70670000D03*
X205860000Y-73210000D03*
X208400000Y-73210000D03*
X205860000Y-75750000D03*
X208400000Y-75750000D03*
X205860000Y-78290000D03*
X208400000Y-78290000D03*
X205860000Y-80830000D03*
X208400000Y-80830000D03*
X205860000Y-84894000D03*
D11*
X208400000Y-84894000D03*
D10*
X205860000Y-87434000D03*
X208400000Y-87434000D03*
X205860000Y-89974000D03*
X208400000Y-89974000D03*
X205860000Y-92514000D03*
X208400000Y-92514000D03*
X205860000Y-95054000D03*
X208400000Y-95054000D03*
X205860000Y-97594000D03*
X208400000Y-97594000D03*
X205860000Y-100134000D03*
X208400000Y-100134000D03*
X205860000Y-102674000D03*
X208400000Y-102674000D03*
X205860000Y-105214000D03*
X208400000Y-105214000D03*
X205860000Y-107754000D03*
X208400000Y-107754000D03*
X254120000Y-75750000D03*
D11*
X251580000Y-75750000D03*
D10*
X254120000Y-73210000D03*
X251580000Y-73210000D03*
X254120000Y-70670000D03*
X251580000Y-70670000D03*
X254120000Y-68130000D03*
X251580000Y-68130000D03*
X254120000Y-65590000D03*
X251580000Y-65590000D03*
X254120000Y-63050000D03*
X251580000Y-63050000D03*
X254120000Y-98610000D03*
D11*
X251580000Y-98610000D03*
D10*
X254120000Y-96070000D03*
X251580000Y-96070000D03*
X254120000Y-93530000D03*
X251580000Y-93530000D03*
X254120000Y-90990000D03*
X251580000Y-90990000D03*
X254120000Y-88450000D03*
X251580000Y-88450000D03*
X254120000Y-85910000D03*
X251580000Y-85910000D03*
X254120000Y-83370000D03*
X251580000Y-83370000D03*
X254120000Y-80830000D03*
X251580000Y-80830000D03*
D12*
X207130000Y-57970000D03*
X253612000Y-57970000D03*
X253612000Y-111310000D03*
X207130000Y-112580000D03*
G04 #@! TD*
D13*
G04 #@! TO.C,J25*
X106560000Y-106050000D03*
X104020000Y-106050000D03*
X101480000Y-106050000D03*
X98940000Y-106050000D03*
X96400000Y-106050000D03*
G04 #@! TD*
G04 #@! TO.C,J24*
X134560000Y-106050000D03*
X132020000Y-106050000D03*
X129480000Y-106050000D03*
X126940000Y-106050000D03*
X124400000Y-106050000D03*
G04 #@! TD*
G04 #@! TO.C,J23*
X153560000Y-106050000D03*
X151020000Y-106050000D03*
X148480000Y-106050000D03*
X145940000Y-106050000D03*
X143400000Y-106050000D03*
G04 #@! TD*
G04 #@! TO.C,J22*
X181560000Y-106050000D03*
X179020000Y-106050000D03*
X176480000Y-106050000D03*
X173940000Y-106050000D03*
X171400000Y-106050000D03*
G04 #@! TD*
G04 #@! TO.C,J17*
X105980000Y-81050000D03*
X103440000Y-81050000D03*
X100900000Y-81050000D03*
G04 #@! TD*
G04 #@! TO.C,J16*
X129480000Y-81050000D03*
X126940000Y-81050000D03*
X124400000Y-81050000D03*
G04 #@! TD*
G04 #@! TO.C,J15*
X152980000Y-81050000D03*
X150440000Y-81050000D03*
X147900000Y-81050000D03*
G04 #@! TD*
G04 #@! TO.C,J14*
X176480000Y-81050000D03*
X173940000Y-81050000D03*
X171400000Y-81050000D03*
G04 #@! TD*
G04 #@! TO.C,J7*
X105980000Y-132050000D03*
X103440000Y-132050000D03*
X100900000Y-132050000D03*
G04 #@! TD*
G04 #@! TO.C,J6*
X129480000Y-132050000D03*
X126940000Y-132050000D03*
X124400000Y-132050000D03*
G04 #@! TD*
G04 #@! TO.C,J5*
X152980000Y-132050000D03*
X150440000Y-132050000D03*
X147900000Y-132050000D03*
G04 #@! TD*
G04 #@! TO.C,J4*
X176480000Y-132050000D03*
X173940000Y-132050000D03*
X171400000Y-132050000D03*
G04 #@! TD*
D10*
G04 #@! TO.C,P1*
X198430000Y-93530000D03*
X195890000Y-93530000D03*
X198430000Y-90990000D03*
X195890000Y-90990000D03*
X198430000Y-88450000D03*
X195890000Y-88450000D03*
X198430000Y-85910000D03*
X195890000Y-85910000D03*
X198430000Y-83370000D03*
X195890000Y-83370000D03*
X198430000Y-80830000D03*
X195890000Y-80830000D03*
X198430000Y-78290000D03*
X195890000Y-78290000D03*
X198430000Y-75750000D03*
X195890000Y-75750000D03*
X198430000Y-73210000D03*
X195890000Y-73210000D03*
X198430000Y-70670000D03*
X195890000Y-70670000D03*
X198430000Y-68130000D03*
D11*
X195890000Y-68130000D03*
G04 #@! TD*
D14*
G04 #@! TO.C,J29*
X84900000Y-125930000D03*
X84900000Y-128470000D03*
X84900000Y-131010000D03*
X84900000Y-133550000D03*
G04 #@! TD*
G04 #@! TO.C,J28*
X84900000Y-102430000D03*
X84900000Y-104970000D03*
X84900000Y-107510000D03*
X84900000Y-110050000D03*
G04 #@! TD*
G04 #@! TO.C,J27*
X84900000Y-78930000D03*
X84900000Y-81470000D03*
X84900000Y-84010000D03*
X84900000Y-86550000D03*
G04 #@! TD*
G04 #@! TO.C,J26*
X84900000Y-55430000D03*
X84900000Y-57970000D03*
X84900000Y-60510000D03*
X84900000Y-63050000D03*
G04 #@! TD*
D13*
G04 #@! TO.C,J21*
X108520000Y-63050000D03*
X105980000Y-63050000D03*
X103440000Y-63050000D03*
X100900000Y-63050000D03*
G04 #@! TD*
G04 #@! TO.C,J20*
X132020000Y-63050000D03*
X129480000Y-63050000D03*
X126940000Y-63050000D03*
X124400000Y-63050000D03*
G04 #@! TD*
G04 #@! TO.C,J19*
X155520000Y-63050000D03*
X152980000Y-63050000D03*
X150440000Y-63050000D03*
X147900000Y-63050000D03*
G04 #@! TD*
G04 #@! TO.C,J18*
X179020000Y-63050000D03*
X176480000Y-63050000D03*
X173940000Y-63050000D03*
X171400000Y-63050000D03*
G04 #@! TD*
D15*
G04 #@! TO.C,J1*
X253400000Y-138050000D03*
X253400000Y-142012400D03*
X253400000Y-145974800D03*
X253400000Y-149937200D03*
G04 #@! TD*
D14*
G04 #@! TO.C,J13*
X43900000Y-137550000D03*
X43900000Y-135010000D03*
G04 #@! TD*
G04 #@! TO.C,J12*
X43900000Y-120050000D03*
X43900000Y-117510000D03*
G04 #@! TD*
G04 #@! TO.C,J11*
X43900000Y-102550000D03*
X43900000Y-100010000D03*
G04 #@! TD*
G04 #@! TO.C,J10*
X43900000Y-85050000D03*
X43900000Y-82510000D03*
G04 #@! TD*
G04 #@! TO.C,J9*
X43900000Y-67550000D03*
X43900000Y-65010000D03*
G04 #@! TD*
G04 #@! TO.C,J8*
X43900000Y-50050000D03*
X43900000Y-47510000D03*
G04 #@! TD*
D13*
G04 #@! TO.C,J3*
X58900000Y-36550000D03*
X56360000Y-36550000D03*
G04 #@! TD*
G04 #@! TO.C,J2*
X244400000Y-36550000D03*
X241860000Y-36550000D03*
G04 #@! TD*
D16*
G04 #@! TO.C,TP19*
X46900000Y-35550000D03*
G04 #@! TD*
G04 #@! TO.C,TP22*
X242900000Y-148050000D03*
G04 #@! TD*
G04 #@! TO.C,TP20*
X223900000Y-35550000D03*
G04 #@! TD*
G04 #@! TO.C,TP21*
X46900000Y-148050000D03*
G04 #@! TD*
D10*
G04 #@! TO.C,JP1*
X260940000Y-134550000D03*
X258400000Y-134550000D03*
G04 #@! TD*
G04 #@! TO.C,JP2*
X244440000Y-43050000D03*
X241900000Y-43050000D03*
G04 #@! TD*
G04 #@! TO.C,JP3*
X167440000Y-134550000D03*
X164900000Y-134550000D03*
G04 #@! TD*
G04 #@! TO.C,JP4*
X143940000Y-134550000D03*
X141400000Y-134550000D03*
G04 #@! TD*
G04 #@! TO.C,JP5*
X120440000Y-134550000D03*
X117900000Y-134550000D03*
G04 #@! TD*
G04 #@! TO.C,JP6*
X96940000Y-134550000D03*
X94400000Y-134550000D03*
G04 #@! TD*
G04 #@! TO.C,JP7*
X261440000Y-93550000D03*
X258900000Y-93550000D03*
G04 #@! TD*
G04 #@! TO.C,JP8*
X240360000Y-86050000D03*
X242900000Y-86050000D03*
G04 #@! TD*
G04 #@! TO.C,JP9*
X173940000Y-99550000D03*
X171400000Y-99550000D03*
G04 #@! TD*
G04 #@! TO.C,JP10*
X145940000Y-99550000D03*
X143400000Y-99550000D03*
G04 #@! TD*
G04 #@! TO.C,JP11*
X126940000Y-99550000D03*
X124400000Y-99550000D03*
G04 #@! TD*
G04 #@! TO.C,JP12*
X98940000Y-99550000D03*
X96400000Y-99550000D03*
G04 #@! TD*
D17*
G04 #@! TO.C,F1*
X39900000Y-35550000D03*
G04 #@! TD*
G04 #@! TO.C,F2*
X254400000Y-35550000D03*
G04 #@! TD*
G04 #@! TO.C,F3*
X39900000Y-148050000D03*
G04 #@! TD*
D18*
G04 #@! TO.C,H4*
X261400000Y-148050000D03*
G04 #@! TD*
G04 #@! TO.C,H3*
X32900000Y-148050000D03*
G04 #@! TD*
G04 #@! TO.C,H2*
X261400000Y-35550000D03*
G04 #@! TD*
G04 #@! TO.C,H1*
X32900000Y-35550000D03*
G04 #@! TD*
G04 #@! TO.C,H5*
X139400000Y-79050000D03*
G04 #@! TD*
D12*
G04 #@! TO.C,H9*
X195900000Y-99050000D03*
G04 #@! TD*
G04 #@! TO.C,H7*
X195900000Y-62550000D03*
G04 #@! TD*
G04 #@! TO.C,H8*
X91900000Y-99050000D03*
G04 #@! TD*
G04 #@! TO.C,H6*
X91900000Y-62550000D03*
G04 #@! TD*
G04 #@! TO.C,H10*
X22050000Y-24700000D03*
G04 #@! TD*
G04 #@! TO.C,H11*
X272250000Y-24700000D03*
G04 #@! TD*
G04 #@! TO.C,H13*
X272250000Y-158900000D03*
G04 #@! TD*
G04 #@! TO.C,H12*
X22050000Y-158900000D03*
G04 #@! TD*
D19*
G04 #@! TO.C,REF\002A\002A*
X194400000Y-153650000D03*
X188400000Y-153650000D03*
X193400000Y-153650000D03*
X192400000Y-153650000D03*
X191400000Y-153650000D03*
X190400000Y-153650000D03*
X189400000Y-153650000D03*
G04 #@! TD*
G04 #@! TO.C,REF\002A\002A*
X94400000Y-153650000D03*
X88400000Y-153650000D03*
X93400000Y-153650000D03*
X92400000Y-153650000D03*
X91400000Y-153650000D03*
X90400000Y-153650000D03*
X89400000Y-153650000D03*
G04 #@! TD*
G04 #@! TO.C,REF\002A\002A*
X40400000Y-153650000D03*
X34400000Y-153650000D03*
X39400000Y-153650000D03*
X38400000Y-153650000D03*
X37400000Y-153650000D03*
X36400000Y-153650000D03*
X35400000Y-153650000D03*
G04 #@! TD*
G04 #@! TO.C,REF\002A\002A*
X248400000Y-153650000D03*
X242400000Y-153650000D03*
X247400000Y-153650000D03*
X246400000Y-153650000D03*
X245400000Y-153650000D03*
X244400000Y-153650000D03*
X243400000Y-153650000D03*
G04 #@! TD*
G04 #@! TO.C,REF\002A\002A*
X267000000Y-157550000D03*
X267000000Y-163550000D03*
X267000000Y-158550000D03*
X267000000Y-159550000D03*
X267000000Y-160550000D03*
X267000000Y-161550000D03*
X267000000Y-162550000D03*
G04 #@! TD*
G04 #@! TO.C,REF\002A\002A*
X267000000Y-20050000D03*
X267000000Y-26050000D03*
X267000000Y-21050000D03*
X267000000Y-22050000D03*
X267000000Y-23050000D03*
X267000000Y-24050000D03*
X267000000Y-25050000D03*
G04 #@! TD*
G04 #@! TO.C,REF\002A\002A*
X267000000Y-111550000D03*
X267000000Y-117550000D03*
X267000000Y-112550000D03*
X267000000Y-113550000D03*
X267000000Y-114550000D03*
X267000000Y-115550000D03*
X267000000Y-116550000D03*
G04 #@! TD*
G04 #@! TO.C,REF\002A\002A*
X267000000Y-66050000D03*
X267000000Y-72050000D03*
X267000000Y-67050000D03*
X267000000Y-68050000D03*
X267000000Y-69050000D03*
X267000000Y-70050000D03*
X267000000Y-71050000D03*
G04 #@! TD*
G04 #@! TO.C,REF\002A\002A*
X27300000Y-163550000D03*
X27300000Y-157550000D03*
X27300000Y-162550000D03*
X27300000Y-161550000D03*
X27300000Y-160550000D03*
X27300000Y-159550000D03*
X27300000Y-158550000D03*
G04 #@! TD*
G04 #@! TO.C,REF\002A\002A*
X27300000Y-26050000D03*
X27300000Y-20050000D03*
X27300000Y-25050000D03*
X27300000Y-24050000D03*
X27300000Y-23050000D03*
X27300000Y-22050000D03*
X27300000Y-21050000D03*
G04 #@! TD*
G04 #@! TO.C,REF\002A\002A*
X27300000Y-72050000D03*
X27300000Y-66050000D03*
X27300000Y-71050000D03*
X27300000Y-70050000D03*
X27300000Y-69050000D03*
X27300000Y-68050000D03*
X27300000Y-67050000D03*
G04 #@! TD*
G04 #@! TO.C,REF\002A\002A*
X27300000Y-117550000D03*
X27300000Y-111550000D03*
X27300000Y-116550000D03*
X27300000Y-115550000D03*
X27300000Y-114550000D03*
X27300000Y-113550000D03*
X27300000Y-112550000D03*
G04 #@! TD*
G04 #@! TO.C,REF\002A\002A*
X34400000Y-29950000D03*
X40400000Y-29950000D03*
X35400000Y-29950000D03*
X36400000Y-29950000D03*
X37400000Y-29950000D03*
X38400000Y-29950000D03*
X39400000Y-29950000D03*
G04 #@! TD*
G04 #@! TO.C,REF\002A\002A*
X253900000Y-29950000D03*
X259900000Y-29950000D03*
X254900000Y-29950000D03*
X255900000Y-29950000D03*
X256900000Y-29950000D03*
X257900000Y-29950000D03*
X258900000Y-29950000D03*
G04 #@! TD*
G04 #@! TO.C,REF\002A\002A*
X107400000Y-29950000D03*
X113400000Y-29950000D03*
X108400000Y-29950000D03*
X109400000Y-29950000D03*
X110400000Y-29950000D03*
X111400000Y-29950000D03*
X112400000Y-29950000D03*
G04 #@! TD*
G04 #@! TO.C,REF\002A\002A*
X180900000Y-29950000D03*
X186900000Y-29950000D03*
X181900000Y-29950000D03*
X182900000Y-29950000D03*
X183900000Y-29950000D03*
X184900000Y-29950000D03*
X185900000Y-29950000D03*
G04 #@! TD*
M02*
