G04 #@! TF.GenerationSoftware,KiCad,Pcbnew,(5.0.0)*
G04 #@! TF.CreationDate,2018-11-26T17:37:17-05:00*
G04 #@! TF.ProjectId,PREP400,505245503430302E6B696361645F7063,1*
G04 #@! TF.SameCoordinates,PX4585da0PY443c430*
G04 #@! TF.FileFunction,Paste,Top*
G04 #@! TF.FilePolarity,Positive*
%FSLAX46Y46*%
G04 Gerber Fmt 4.6, Leading zero omitted, Abs format (unit mm)*
G04 Created by KiCad (PCBNEW (5.0.0)) date 11/26/18 17:37:17*
%MOMM*%
%LPD*%
G01*
G04 APERTURE LIST*
%ADD10R,1.000000X1.000000*%
%ADD11R,1.400000X1.000000*%
%ADD12R,1.000000X1.400000*%
%ADD13R,0.800000X0.800000*%
%ADD14R,1.000000X1.800000*%
%ADD15R,1.800000X1.000000*%
%ADD16R,2.032000X1.143000*%
%ADD17R,2.300000X2.500000*%
%ADD18R,2.500000X2.300000*%
%ADD19R,2.650000X1.750000*%
%ADD20R,2.000000X4.100000*%
%ADD21R,4.100000X2.000000*%
%ADD22R,1.900000X3.250000*%
%ADD23R,1.900000X0.950000*%
%ADD24R,5.700000X3.000000*%
%ADD25R,0.600000X1.350000*%
%ADD26R,0.380000X1.350000*%
%ADD27R,3.000000X5.700000*%
%ADD28R,1.350000X0.600000*%
%ADD29R,1.350000X0.380000*%
%ADD30R,1.000000X1.600000*%
%ADD31R,1.600000X1.000000*%
%ADD32R,1.950000X0.600000*%
G04 APERTURE END LIST*
D10*
G04 #@! TO.C,C136*
X218500000Y-45500000D03*
X220500000Y-45500000D03*
G04 #@! TD*
G04 #@! TO.C,C50*
X144000000Y-17500000D03*
X144000000Y-19500000D03*
G04 #@! TD*
G04 #@! TO.C,C52*
X120500000Y-17500000D03*
X120500000Y-19500000D03*
G04 #@! TD*
G04 #@! TO.C,C54*
X97000000Y-17500000D03*
X97000000Y-19500000D03*
G04 #@! TD*
G04 #@! TO.C,C56*
X73500000Y-17500000D03*
X73500000Y-19500000D03*
G04 #@! TD*
G04 #@! TO.C,C98*
X35000000Y-15000000D03*
X37000000Y-15000000D03*
G04 #@! TD*
G04 #@! TO.C,C100*
X35000000Y-38500000D03*
X37000000Y-38500000D03*
G04 #@! TD*
G04 #@! TO.C,C102*
X35000000Y-62000000D03*
X37000000Y-62000000D03*
G04 #@! TD*
G04 #@! TO.C,C104*
X35000000Y-85500000D03*
X37000000Y-85500000D03*
G04 #@! TD*
G04 #@! TO.C,L8*
X56500000Y-66500000D03*
X58500000Y-66500000D03*
G04 #@! TD*
G04 #@! TO.C,L7*
X84500000Y-66500000D03*
X86500000Y-66500000D03*
G04 #@! TD*
G04 #@! TO.C,L6*
X103500000Y-66500000D03*
X105500000Y-66500000D03*
G04 #@! TD*
G04 #@! TO.C,L5*
X131500000Y-66500000D03*
X133500000Y-66500000D03*
G04 #@! TD*
G04 #@! TO.C,L4*
X205000000Y-53000000D03*
X203000000Y-53000000D03*
G04 #@! TD*
G04 #@! TO.C,L3*
X219500000Y-55500000D03*
X221500000Y-55500000D03*
G04 #@! TD*
G04 #@! TO.C,L2*
X205000000Y-5000000D03*
X203000000Y-5000000D03*
G04 #@! TD*
G04 #@! TO.C,L9*
X126500000Y-96500000D03*
X128500000Y-96500000D03*
G04 #@! TD*
G04 #@! TO.C,L10*
X103000000Y-96500000D03*
X105000000Y-96500000D03*
G04 #@! TD*
G04 #@! TO.C,L11*
X79500000Y-96500000D03*
X81500000Y-96500000D03*
G04 #@! TD*
G04 #@! TO.C,L12*
X56000000Y-96500000D03*
X58000000Y-96500000D03*
G04 #@! TD*
D11*
G04 #@! TO.C,D1*
X129500000Y-85500000D03*
X129500000Y-87400000D03*
X131700000Y-86450000D03*
G04 #@! TD*
D12*
G04 #@! TO.C,D2*
X142500000Y-92000000D03*
X144400000Y-92000000D03*
X143450000Y-89800000D03*
G04 #@! TD*
D11*
G04 #@! TO.C,D3*
X106000000Y-85500000D03*
X106000000Y-87400000D03*
X108200000Y-86450000D03*
G04 #@! TD*
D12*
G04 #@! TO.C,D4*
X119000000Y-92000000D03*
X120900000Y-92000000D03*
X119950000Y-89800000D03*
G04 #@! TD*
D11*
G04 #@! TO.C,D5*
X82500000Y-85500000D03*
X82500000Y-87400000D03*
X84700000Y-86450000D03*
G04 #@! TD*
D12*
G04 #@! TO.C,D6*
X95500000Y-92000000D03*
X97400000Y-92000000D03*
X96450000Y-89800000D03*
G04 #@! TD*
D11*
G04 #@! TO.C,D7*
X59000000Y-85500000D03*
X59000000Y-87400000D03*
X61200000Y-86450000D03*
G04 #@! TD*
D12*
G04 #@! TO.C,D8*
X72000000Y-92000000D03*
X73900000Y-92000000D03*
X72950000Y-89800000D03*
G04 #@! TD*
G04 #@! TO.C,D15*
X136500000Y-40500000D03*
X138400000Y-40500000D03*
X137450000Y-38300000D03*
G04 #@! TD*
G04 #@! TO.C,D16*
X113000000Y-40500000D03*
X114900000Y-40500000D03*
X113950000Y-38300000D03*
G04 #@! TD*
G04 #@! TO.C,D17*
X89500000Y-40500000D03*
X91400000Y-40500000D03*
X90450000Y-38300000D03*
G04 #@! TD*
G04 #@! TO.C,D18*
X66000000Y-40500000D03*
X67900000Y-40500000D03*
X66950000Y-38300000D03*
G04 #@! TD*
G04 #@! TO.C,D19*
X147000000Y-14000000D03*
X145100000Y-14000000D03*
X146050000Y-16200000D03*
G04 #@! TD*
G04 #@! TO.C,D20*
X123500000Y-14000000D03*
X121600000Y-14000000D03*
X122550000Y-16200000D03*
G04 #@! TD*
G04 #@! TO.C,D21*
X100000000Y-14000000D03*
X98100000Y-14000000D03*
X99050000Y-16200000D03*
G04 #@! TD*
G04 #@! TO.C,D22*
X76500000Y-14000000D03*
X74600000Y-14000000D03*
X75550000Y-16200000D03*
G04 #@! TD*
D11*
G04 #@! TO.C,D23*
X31500000Y-12000000D03*
X31500000Y-13900000D03*
X33700000Y-12950000D03*
G04 #@! TD*
G04 #@! TO.C,D24*
X31500000Y-35500000D03*
X31500000Y-37400000D03*
X33700000Y-36450000D03*
G04 #@! TD*
G04 #@! TO.C,D25*
X31500000Y-59000000D03*
X31500000Y-60900000D03*
X33700000Y-59950000D03*
G04 #@! TD*
G04 #@! TO.C,D26*
X31500000Y-82500000D03*
X31500000Y-84400000D03*
X33700000Y-83450000D03*
G04 #@! TD*
G04 #@! TO.C,D27*
X137500000Y-55500000D03*
X137500000Y-57400000D03*
X139700000Y-56450000D03*
G04 #@! TD*
G04 #@! TO.C,D28*
X109500000Y-55500000D03*
X109500000Y-57400000D03*
X111700000Y-56450000D03*
G04 #@! TD*
G04 #@! TO.C,D29*
X90500000Y-55500000D03*
X90500000Y-57400000D03*
X92700000Y-56450000D03*
G04 #@! TD*
G04 #@! TO.C,D30*
X62500000Y-55500000D03*
X62500000Y-57400000D03*
X64700000Y-56450000D03*
G04 #@! TD*
D13*
G04 #@! TO.C,R57*
X95000000Y-52000000D03*
X96600000Y-52000000D03*
G04 #@! TD*
G04 #@! TO.C,R70*
X67000000Y-66500000D03*
X67000000Y-64900000D03*
G04 #@! TD*
G04 #@! TO.C,R69*
X95000000Y-66500000D03*
X95000000Y-64900000D03*
G04 #@! TD*
G04 #@! TO.C,R68*
X114000000Y-66500000D03*
X114000000Y-64900000D03*
G04 #@! TD*
G04 #@! TO.C,R67*
X142000000Y-66500000D03*
X142000000Y-64900000D03*
G04 #@! TD*
G04 #@! TO.C,R66*
X63500000Y-41500000D03*
X63500000Y-39900000D03*
G04 #@! TD*
G04 #@! TO.C,R65*
X87000000Y-41500000D03*
X87000000Y-39900000D03*
G04 #@! TD*
G04 #@! TO.C,R64*
X110500000Y-41500000D03*
X110500000Y-39900000D03*
G04 #@! TD*
G04 #@! TO.C,R63*
X134000000Y-41500000D03*
X134000000Y-39900000D03*
G04 #@! TD*
G04 #@! TO.C,R62*
X63500000Y-91000000D03*
X63500000Y-92600000D03*
G04 #@! TD*
G04 #@! TO.C,R61*
X87000000Y-91000000D03*
X87000000Y-92600000D03*
G04 #@! TD*
G04 #@! TO.C,R60*
X110500000Y-91000000D03*
X110500000Y-92600000D03*
G04 #@! TD*
G04 #@! TO.C,R59*
X134000000Y-91000000D03*
X134000000Y-92600000D03*
G04 #@! TD*
G04 #@! TO.C,R1*
X198000000Y-6000000D03*
X196400000Y-6000000D03*
G04 #@! TD*
G04 #@! TO.C,R2*
X196500000Y-8000000D03*
X198100000Y-8000000D03*
G04 #@! TD*
G04 #@! TO.C,R3*
X134000000Y-87500000D03*
X134000000Y-89100000D03*
G04 #@! TD*
G04 #@! TO.C,R4*
X137500000Y-87500000D03*
X135900000Y-87500000D03*
G04 #@! TD*
G04 #@! TO.C,R5*
X110500000Y-87500000D03*
X110500000Y-89100000D03*
G04 #@! TD*
G04 #@! TO.C,R6*
X114000000Y-87500000D03*
X112400000Y-87500000D03*
G04 #@! TD*
G04 #@! TO.C,R7*
X87000000Y-87500000D03*
X87000000Y-89100000D03*
G04 #@! TD*
G04 #@! TO.C,R8*
X90500000Y-87500000D03*
X88900000Y-87500000D03*
G04 #@! TD*
G04 #@! TO.C,R9*
X63500000Y-87500000D03*
X63500000Y-89100000D03*
G04 #@! TD*
G04 #@! TO.C,R10*
X67000000Y-87500000D03*
X65400000Y-87500000D03*
G04 #@! TD*
G04 #@! TO.C,R11*
X143500000Y-87500000D03*
X143500000Y-85900000D03*
G04 #@! TD*
G04 #@! TO.C,R12*
X120000000Y-87500000D03*
X120000000Y-85900000D03*
G04 #@! TD*
G04 #@! TO.C,R13*
X96500000Y-87500000D03*
X96500000Y-85900000D03*
G04 #@! TD*
G04 #@! TO.C,R14*
X73000000Y-87500000D03*
X73000000Y-85900000D03*
G04 #@! TD*
G04 #@! TO.C,R15*
X142000000Y-109000000D03*
X142000000Y-110600000D03*
G04 #@! TD*
G04 #@! TO.C,R16*
X118500000Y-109000000D03*
X118500000Y-110600000D03*
G04 #@! TD*
G04 #@! TO.C,R17*
X95000000Y-109000000D03*
X95000000Y-110600000D03*
G04 #@! TD*
G04 #@! TO.C,R18*
X71500000Y-109000000D03*
X71500000Y-110600000D03*
G04 #@! TD*
G04 #@! TO.C,R19*
X-1000000Y-16500000D03*
X-1000000Y-18100000D03*
G04 #@! TD*
G04 #@! TO.C,R20*
X-1000000Y-34000000D03*
X-1000000Y-35600000D03*
G04 #@! TD*
G04 #@! TO.C,R21*
X-1000000Y-51500000D03*
X-1000000Y-53100000D03*
G04 #@! TD*
G04 #@! TO.C,R22*
X-1000000Y-69000000D03*
X-1000000Y-70600000D03*
G04 #@! TD*
G04 #@! TO.C,R23*
X-1000000Y-20000000D03*
X-2600000Y-20000000D03*
G04 #@! TD*
G04 #@! TO.C,R24*
X-1000000Y-37500000D03*
X-2600000Y-37500000D03*
G04 #@! TD*
G04 #@! TO.C,R25*
X-1000000Y-55000000D03*
X-2600000Y-55000000D03*
G04 #@! TD*
G04 #@! TO.C,R26*
X-1000000Y-72500000D03*
X-2600000Y-72500000D03*
G04 #@! TD*
G04 #@! TO.C,R27*
X-1000000Y-86500000D03*
X-1000000Y-88100000D03*
G04 #@! TD*
G04 #@! TO.C,R28*
X-1000000Y-104000000D03*
X-1000000Y-105600000D03*
G04 #@! TD*
G04 #@! TO.C,R29*
X-1000000Y-90000000D03*
X-2600000Y-90000000D03*
G04 #@! TD*
G04 #@! TO.C,R30*
X-1000000Y-107500000D03*
X-2600000Y-107500000D03*
G04 #@! TD*
G04 #@! TO.C,R31*
X134000000Y-38000000D03*
X134000000Y-36400000D03*
G04 #@! TD*
G04 #@! TO.C,R32*
X136000000Y-36000000D03*
X137600000Y-36000000D03*
G04 #@! TD*
G04 #@! TO.C,R33*
X110500000Y-38000000D03*
X110500000Y-36400000D03*
G04 #@! TD*
G04 #@! TO.C,R34*
X112500000Y-36000000D03*
X114100000Y-36000000D03*
G04 #@! TD*
G04 #@! TO.C,R35*
X87000000Y-38000000D03*
X87000000Y-36400000D03*
G04 #@! TD*
G04 #@! TO.C,R36*
X89000000Y-36000000D03*
X90600000Y-36000000D03*
G04 #@! TD*
G04 #@! TO.C,R37*
X63500000Y-38000000D03*
X63500000Y-36400000D03*
G04 #@! TD*
G04 #@! TO.C,R38*
X65500000Y-36000000D03*
X67100000Y-36000000D03*
G04 #@! TD*
G04 #@! TO.C,R39*
X209000000Y-57500000D03*
X209000000Y-55900000D03*
G04 #@! TD*
G04 #@! TO.C,R40*
X209000000Y-45000000D03*
X209000000Y-43400000D03*
G04 #@! TD*
G04 #@! TO.C,R41*
X126500000Y-79000000D03*
X126500000Y-80600000D03*
G04 #@! TD*
G04 #@! TO.C,R42*
X79500000Y-79000000D03*
X79500000Y-80600000D03*
G04 #@! TD*
G04 #@! TO.C,R43*
X119000000Y-61500000D03*
X119000000Y-63100000D03*
G04 #@! TD*
G04 #@! TO.C,R44*
X72000000Y-61500000D03*
X72000000Y-63100000D03*
G04 #@! TD*
G04 #@! TO.C,R45*
X142000000Y-63000000D03*
X142000000Y-61400000D03*
G04 #@! TD*
G04 #@! TO.C,R46*
X142000000Y-59500000D03*
X142000000Y-57900000D03*
G04 #@! TD*
G04 #@! TO.C,R47*
X114000000Y-63000000D03*
X114000000Y-61400000D03*
G04 #@! TD*
G04 #@! TO.C,R48*
X114000000Y-59500000D03*
X114000000Y-57900000D03*
G04 #@! TD*
G04 #@! TO.C,R50*
X209000000Y-61000000D03*
X209000000Y-62600000D03*
G04 #@! TD*
G04 #@! TO.C,R51*
X95000000Y-63000000D03*
X95000000Y-61400000D03*
G04 #@! TD*
G04 #@! TO.C,R52*
X95000000Y-59500000D03*
X95000000Y-57900000D03*
G04 #@! TD*
G04 #@! TO.C,R53*
X67000000Y-63000000D03*
X67000000Y-61400000D03*
G04 #@! TD*
G04 #@! TO.C,R54*
X67000000Y-59500000D03*
X67000000Y-57900000D03*
G04 #@! TD*
G04 #@! TO.C,R55*
X142000000Y-52000000D03*
X143600000Y-52000000D03*
G04 #@! TD*
G04 #@! TO.C,R56*
X114000000Y-52000000D03*
X115600000Y-52000000D03*
G04 #@! TD*
G04 #@! TO.C,R58*
X67000000Y-52000000D03*
X68600000Y-52000000D03*
G04 #@! TD*
G04 #@! TO.C,R49*
X210000000Y-66000000D03*
X211600000Y-66000000D03*
G04 #@! TD*
G04 #@! TO.C,R71*
X202000000Y-48000000D03*
X203600000Y-48000000D03*
G04 #@! TD*
G04 #@! TO.C,R72*
X161500000Y-72000000D03*
X159900000Y-72000000D03*
G04 #@! TD*
G04 #@! TO.C,R73*
X148000000Y-109000000D03*
X148000000Y-110600000D03*
G04 #@! TD*
G04 #@! TO.C,R74*
X124500000Y-109000000D03*
X124500000Y-110600000D03*
G04 #@! TD*
G04 #@! TO.C,R75*
X101000000Y-109000000D03*
X101000000Y-110600000D03*
G04 #@! TD*
G04 #@! TO.C,R76*
X77500000Y-109000000D03*
X77500000Y-110600000D03*
G04 #@! TD*
D14*
G04 #@! TO.C,TP1*
X128500000Y-80000000D03*
G04 #@! TD*
G04 #@! TO.C,TP2*
X117000000Y-62500000D03*
G04 #@! TD*
G04 #@! TO.C,TP3*
X81500000Y-80000000D03*
G04 #@! TD*
G04 #@! TO.C,TP4*
X70000000Y-62500000D03*
G04 #@! TD*
G04 #@! TO.C,TP5*
X115000000Y-76500000D03*
G04 #@! TD*
D15*
G04 #@! TO.C,TP6*
X131500000Y-60000000D03*
G04 #@! TD*
G04 #@! TO.C,TP7*
X39500000Y-11500000D03*
G04 #@! TD*
G04 #@! TO.C,TP8*
X156000000Y-20500000D03*
G04 #@! TD*
D14*
G04 #@! TO.C,TP9*
X55000000Y-12000000D03*
G04 #@! TD*
G04 #@! TO.C,TP10*
X147500000Y-23000000D03*
G04 #@! TD*
G04 #@! TO.C,TP11*
X149500000Y-23000000D03*
G04 #@! TD*
G04 #@! TO.C,TP12*
X151500000Y-23000000D03*
G04 #@! TD*
D15*
G04 #@! TO.C,TP13*
X146000000Y-57500000D03*
G04 #@! TD*
G04 #@! TO.C,TP14*
X118000000Y-57500000D03*
G04 #@! TD*
G04 #@! TO.C,TP15*
X99000000Y-57500000D03*
G04 #@! TD*
G04 #@! TO.C,TP16*
X71000000Y-57500000D03*
G04 #@! TD*
D14*
G04 #@! TO.C,TP17*
X221000000Y-91500000D03*
G04 #@! TD*
G04 #@! TO.C,TP18*
X221500000Y-64500000D03*
G04 #@! TD*
D15*
G04 #@! TO.C,TP23*
X44500000Y-85500000D03*
G04 #@! TD*
G04 #@! TO.C,TP24*
X38000000Y-104500000D03*
G04 #@! TD*
G04 #@! TO.C,TP25*
X35000000Y-104500000D03*
G04 #@! TD*
G04 #@! TO.C,TP26*
X192000000Y-6000000D03*
G04 #@! TD*
D14*
G04 #@! TO.C,TP27*
X147000000Y-87500000D03*
G04 #@! TD*
G04 #@! TO.C,TP28*
X123500000Y-87500000D03*
G04 #@! TD*
G04 #@! TO.C,TP29*
X100000000Y-87500000D03*
G04 #@! TD*
G04 #@! TO.C,TP30*
X76500000Y-87500000D03*
G04 #@! TD*
D15*
G04 #@! TO.C,TP31*
X140000000Y-106500000D03*
G04 #@! TD*
G04 #@! TO.C,TP32*
X116500000Y-106500000D03*
G04 #@! TD*
G04 #@! TO.C,TP33*
X93000000Y-106500000D03*
G04 #@! TD*
G04 #@! TO.C,TP34*
X69500000Y-106500000D03*
G04 #@! TD*
G04 #@! TO.C,TP35*
X-3500000Y-18000000D03*
G04 #@! TD*
G04 #@! TO.C,TP36*
X-3500000Y-35500000D03*
G04 #@! TD*
G04 #@! TO.C,TP37*
X-3500000Y-53000000D03*
G04 #@! TD*
G04 #@! TO.C,TP38*
X-3500000Y-70500000D03*
G04 #@! TD*
G04 #@! TO.C,TP39*
X-3500000Y-88000000D03*
G04 #@! TD*
G04 #@! TO.C,TP40*
X-3500000Y-105500000D03*
G04 #@! TD*
D14*
G04 #@! TO.C,TP41*
X145000000Y-36000000D03*
G04 #@! TD*
G04 #@! TO.C,TP42*
X121500000Y-36000000D03*
G04 #@! TD*
G04 #@! TO.C,TP43*
X98000000Y-36000000D03*
G04 #@! TD*
G04 #@! TO.C,TP44*
X74500000Y-36000000D03*
G04 #@! TD*
G04 #@! TO.C,TP45*
X145500000Y-22000000D03*
G04 #@! TD*
G04 #@! TO.C,TP46*
X122000000Y-22000000D03*
G04 #@! TD*
G04 #@! TO.C,TP47*
X98500000Y-22000000D03*
G04 #@! TD*
G04 #@! TO.C,TP48*
X75000000Y-22000000D03*
G04 #@! TD*
D15*
G04 #@! TO.C,TP49*
X39500000Y-13500000D03*
G04 #@! TD*
G04 #@! TO.C,TP50*
X39500000Y-37000000D03*
G04 #@! TD*
G04 #@! TO.C,TP51*
X39500000Y-60500000D03*
G04 #@! TD*
G04 #@! TO.C,TP52*
X39500000Y-84000000D03*
G04 #@! TD*
D14*
G04 #@! TO.C,TP53*
X140000000Y-52000000D03*
G04 #@! TD*
G04 #@! TO.C,TP54*
X112000000Y-52000000D03*
G04 #@! TD*
G04 #@! TO.C,TP55*
X93000000Y-52000000D03*
G04 #@! TD*
G04 #@! TO.C,TP56*
X65000000Y-52000000D03*
G04 #@! TD*
D13*
G04 #@! TO.C,C190*
X39000000Y-101000000D03*
X40600000Y-101000000D03*
G04 #@! TD*
G04 #@! TO.C,C189*
X39000000Y-77500000D03*
X40600000Y-77500000D03*
G04 #@! TD*
G04 #@! TO.C,C188*
X39000000Y-54000000D03*
X40600000Y-54000000D03*
G04 #@! TD*
G04 #@! TO.C,C187*
X39000000Y-30500000D03*
X40600000Y-30500000D03*
G04 #@! TD*
G04 #@! TO.C,C186*
X29000000Y-101000000D03*
X27400000Y-101000000D03*
G04 #@! TD*
G04 #@! TO.C,C185*
X29000000Y-77500000D03*
X27400000Y-77500000D03*
G04 #@! TD*
G04 #@! TO.C,C184*
X29000000Y-54000000D03*
X27400000Y-54000000D03*
G04 #@! TD*
G04 #@! TO.C,C183*
X29000000Y-30500000D03*
X27400000Y-30500000D03*
G04 #@! TD*
G04 #@! TO.C,C182*
X29500000Y-87000000D03*
X27900000Y-87000000D03*
G04 #@! TD*
G04 #@! TO.C,C181*
X29500000Y-63500000D03*
X27900000Y-63500000D03*
G04 #@! TD*
G04 #@! TO.C,C180*
X29500000Y-40000000D03*
X27900000Y-40000000D03*
G04 #@! TD*
G04 #@! TO.C,C179*
X29500000Y-16500000D03*
X27900000Y-16500000D03*
G04 #@! TD*
G04 #@! TO.C,C178*
X39500000Y-87000000D03*
X41100000Y-87000000D03*
G04 #@! TD*
G04 #@! TO.C,C177*
X39500000Y-63500000D03*
X41100000Y-63500000D03*
G04 #@! TD*
G04 #@! TO.C,C176*
X39500000Y-40000000D03*
X41100000Y-40000000D03*
G04 #@! TD*
G04 #@! TO.C,C175*
X39500000Y-16500000D03*
X41100000Y-16500000D03*
G04 #@! TD*
G04 #@! TO.C,C174*
X67000000Y-54000000D03*
X68600000Y-54000000D03*
G04 #@! TD*
G04 #@! TO.C,C173*
X95000000Y-54000000D03*
X96600000Y-54000000D03*
G04 #@! TD*
G04 #@! TO.C,C172*
X114000000Y-54000000D03*
X115600000Y-54000000D03*
G04 #@! TD*
G04 #@! TO.C,C171*
X142000000Y-54000000D03*
X143600000Y-54000000D03*
G04 #@! TD*
G04 #@! TO.C,C170*
X58500000Y-76500000D03*
X58500000Y-74900000D03*
G04 #@! TD*
G04 #@! TO.C,C169*
X56500000Y-76500000D03*
X56500000Y-74900000D03*
G04 #@! TD*
G04 #@! TO.C,C168*
X86500000Y-76500000D03*
X86500000Y-74900000D03*
G04 #@! TD*
G04 #@! TO.C,C167*
X84500000Y-76500000D03*
X84500000Y-74900000D03*
G04 #@! TD*
G04 #@! TO.C,C166*
X105500000Y-76500000D03*
X105500000Y-74900000D03*
G04 #@! TD*
G04 #@! TO.C,C165*
X103500000Y-76500000D03*
X103500000Y-74900000D03*
G04 #@! TD*
G04 #@! TO.C,C164*
X133500000Y-76500000D03*
X133500000Y-74900000D03*
G04 #@! TD*
G04 #@! TO.C,C163*
X131500000Y-76500000D03*
X131500000Y-74900000D03*
G04 #@! TD*
G04 #@! TO.C,C162*
X80500000Y-61000000D03*
X78900000Y-61000000D03*
G04 #@! TD*
G04 #@! TO.C,C161*
X127500000Y-61000000D03*
X125900000Y-61000000D03*
G04 #@! TD*
G04 #@! TO.C,C160*
X72500000Y-81000000D03*
X70900000Y-81000000D03*
G04 #@! TD*
G04 #@! TO.C,C159*
X119500000Y-81000000D03*
X117900000Y-81000000D03*
G04 #@! TD*
G04 #@! TO.C,C158*
X58000000Y-21500000D03*
X58000000Y-23100000D03*
G04 #@! TD*
G04 #@! TO.C,C157*
X81500000Y-21500000D03*
X81500000Y-23100000D03*
G04 #@! TD*
G04 #@! TO.C,C156*
X105000000Y-21500000D03*
X105000000Y-23100000D03*
G04 #@! TD*
G04 #@! TO.C,C155*
X128500000Y-21500000D03*
X128500000Y-23100000D03*
G04 #@! TD*
G04 #@! TO.C,C154*
X58000000Y-11500000D03*
X58000000Y-9900000D03*
G04 #@! TD*
G04 #@! TO.C,C153*
X81500000Y-11500000D03*
X81500000Y-9900000D03*
G04 #@! TD*
G04 #@! TO.C,C152*
X105000000Y-11500000D03*
X105000000Y-9900000D03*
G04 #@! TD*
G04 #@! TO.C,C151*
X142500000Y-12000000D03*
X142500000Y-10400000D03*
G04 #@! TD*
G04 #@! TO.C,C150*
X72000000Y-12000000D03*
X72000000Y-10400000D03*
G04 #@! TD*
G04 #@! TO.C,C149*
X95500000Y-12000000D03*
X95500000Y-10400000D03*
G04 #@! TD*
G04 #@! TO.C,C148*
X119000000Y-12000000D03*
X119000000Y-10400000D03*
G04 #@! TD*
G04 #@! TO.C,C147*
X128500000Y-11500000D03*
X128500000Y-9900000D03*
G04 #@! TD*
G04 #@! TO.C,C146*
X72000000Y-22000000D03*
X72000000Y-23600000D03*
G04 #@! TD*
G04 #@! TO.C,C145*
X95500000Y-22000000D03*
X95500000Y-23600000D03*
G04 #@! TD*
G04 #@! TO.C,C144*
X119000000Y-22000000D03*
X119000000Y-23600000D03*
G04 #@! TD*
G04 #@! TO.C,C143*
X142500000Y-22000000D03*
X142500000Y-23600000D03*
G04 #@! TD*
G04 #@! TO.C,C142*
X71000000Y-36000000D03*
X71000000Y-34400000D03*
G04 #@! TD*
G04 #@! TO.C,C141*
X94500000Y-36000000D03*
X94500000Y-34400000D03*
G04 #@! TD*
G04 #@! TO.C,C140*
X118000000Y-36000000D03*
X118000000Y-34400000D03*
G04 #@! TD*
G04 #@! TO.C,C139*
X141500000Y-36000000D03*
X141500000Y-34400000D03*
G04 #@! TD*
G04 #@! TO.C,C138*
X219000000Y-49500000D03*
X220600000Y-49500000D03*
G04 #@! TD*
G04 #@! TO.C,C137*
X219000000Y-47500000D03*
X220600000Y-47500000D03*
G04 #@! TD*
G04 #@! TO.C,C135*
X203000000Y-55000000D03*
X203000000Y-56600000D03*
G04 #@! TD*
G04 #@! TO.C,C134*
X205000000Y-55000000D03*
X205000000Y-56600000D03*
G04 #@! TD*
G04 #@! TO.C,C133*
X221500000Y-53500000D03*
X219900000Y-53500000D03*
G04 #@! TD*
G04 #@! TO.C,C132*
X221500000Y-51500000D03*
X219900000Y-51500000D03*
G04 #@! TD*
G04 #@! TO.C,C131*
X75500000Y-109000000D03*
X75500000Y-110600000D03*
G04 #@! TD*
G04 #@! TO.C,C130*
X99000000Y-109000000D03*
X99000000Y-110600000D03*
G04 #@! TD*
G04 #@! TO.C,C129*
X122500000Y-109000000D03*
X122500000Y-110600000D03*
G04 #@! TD*
G04 #@! TO.C,C128*
X146000000Y-109000000D03*
X146000000Y-110600000D03*
G04 #@! TD*
G04 #@! TO.C,C127*
X71500000Y-115000000D03*
X73100000Y-115000000D03*
G04 #@! TD*
G04 #@! TO.C,C126*
X95000000Y-115000000D03*
X96600000Y-115000000D03*
G04 #@! TD*
G04 #@! TO.C,C125*
X118500000Y-115000000D03*
X120100000Y-115000000D03*
G04 #@! TD*
G04 #@! TO.C,C124*
X142000000Y-115000000D03*
X143600000Y-115000000D03*
G04 #@! TD*
G04 #@! TO.C,C123*
X71000000Y-87500000D03*
X71000000Y-85900000D03*
G04 #@! TD*
G04 #@! TO.C,C122*
X94500000Y-87500000D03*
X94500000Y-85900000D03*
G04 #@! TD*
G04 #@! TO.C,C121*
X118000000Y-87500000D03*
X118000000Y-85900000D03*
G04 #@! TD*
G04 #@! TO.C,C120*
X141500000Y-87500000D03*
X141500000Y-85900000D03*
G04 #@! TD*
G04 #@! TO.C,C119*
X18500000Y-7000000D03*
X16900000Y-7000000D03*
G04 #@! TD*
G04 #@! TO.C,C118*
X18500000Y-5000000D03*
X16900000Y-5000000D03*
G04 #@! TD*
G04 #@! TO.C,C117*
X207000000Y-2000000D03*
X208600000Y-2000000D03*
G04 #@! TD*
G04 #@! TO.C,C116*
X207000000Y0D03*
X208600000Y0D03*
G04 #@! TD*
G04 #@! TO.C,C1*
X139500000Y-87500000D03*
X139500000Y-85900000D03*
G04 #@! TD*
G04 #@! TO.C,C2*
X116000000Y-87500000D03*
X116000000Y-85900000D03*
G04 #@! TD*
G04 #@! TO.C,C3*
X92500000Y-87500000D03*
X92500000Y-85900000D03*
G04 #@! TD*
G04 #@! TO.C,C4*
X69000000Y-87500000D03*
X69000000Y-85900000D03*
G04 #@! TD*
G04 #@! TO.C,C5*
X142000000Y-113000000D03*
X143600000Y-113000000D03*
G04 #@! TD*
G04 #@! TO.C,C6*
X118500000Y-113000000D03*
X120100000Y-113000000D03*
G04 #@! TD*
G04 #@! TO.C,C7*
X95000000Y-113000000D03*
X96600000Y-113000000D03*
G04 #@! TD*
G04 #@! TO.C,C8*
X71500000Y-113000000D03*
X73100000Y-113000000D03*
G04 #@! TD*
G04 #@! TO.C,C9*
X144000000Y-109000000D03*
X144000000Y-110600000D03*
G04 #@! TD*
G04 #@! TO.C,C10*
X120500000Y-109000000D03*
X120500000Y-110600000D03*
G04 #@! TD*
G04 #@! TO.C,C11*
X97000000Y-109000000D03*
X97000000Y-110600000D03*
G04 #@! TD*
G04 #@! TO.C,C12*
X73500000Y-109000000D03*
X73500000Y-110600000D03*
G04 #@! TD*
G04 #@! TO.C,C13*
X139500000Y-36000000D03*
X139500000Y-34400000D03*
G04 #@! TD*
G04 #@! TO.C,C14*
X116000000Y-36000000D03*
X116000000Y-34400000D03*
G04 #@! TD*
G04 #@! TO.C,C15*
X92500000Y-36000000D03*
X92500000Y-34400000D03*
G04 #@! TD*
G04 #@! TO.C,C16*
X69000000Y-36000000D03*
X69000000Y-34400000D03*
G04 #@! TD*
G04 #@! TO.C,C17*
X140500000Y-22000000D03*
X140500000Y-23600000D03*
G04 #@! TD*
G04 #@! TO.C,C18*
X140500000Y-12000000D03*
X140500000Y-10400000D03*
G04 #@! TD*
G04 #@! TO.C,C19*
X130500000Y-11500000D03*
X130500000Y-9900000D03*
G04 #@! TD*
G04 #@! TO.C,C20*
X130500000Y-21500000D03*
X130500000Y-23100000D03*
G04 #@! TD*
G04 #@! TO.C,C22*
X117000000Y-22000000D03*
X117000000Y-23600000D03*
G04 #@! TD*
G04 #@! TO.C,C23*
X117000000Y-12000000D03*
X117000000Y-10400000D03*
G04 #@! TD*
G04 #@! TO.C,C24*
X107000000Y-11500000D03*
X107000000Y-9900000D03*
G04 #@! TD*
G04 #@! TO.C,C25*
X107000000Y-21500000D03*
X107000000Y-23100000D03*
G04 #@! TD*
G04 #@! TO.C,C27*
X93500000Y-22000000D03*
X93500000Y-23600000D03*
G04 #@! TD*
G04 #@! TO.C,C28*
X93500000Y-12000000D03*
X93500000Y-10400000D03*
G04 #@! TD*
G04 #@! TO.C,C29*
X83500000Y-11500000D03*
X83500000Y-9900000D03*
G04 #@! TD*
G04 #@! TO.C,C30*
X83500000Y-21500000D03*
X83500000Y-23100000D03*
G04 #@! TD*
G04 #@! TO.C,C32*
X70000000Y-22000000D03*
X70000000Y-23600000D03*
G04 #@! TD*
G04 #@! TO.C,C33*
X70000000Y-12000000D03*
X70000000Y-10400000D03*
G04 #@! TD*
G04 #@! TO.C,C34*
X60000000Y-11500000D03*
X60000000Y-9900000D03*
G04 #@! TD*
G04 #@! TO.C,C35*
X60000000Y-21500000D03*
X60000000Y-23100000D03*
G04 #@! TD*
G04 #@! TO.C,C37*
X129000000Y-14500000D03*
X129000000Y-16100000D03*
G04 #@! TD*
G04 #@! TO.C,C38*
X127000000Y-14500000D03*
X127000000Y-16100000D03*
G04 #@! TD*
G04 #@! TO.C,C39*
X105500000Y-14500000D03*
X105500000Y-16100000D03*
G04 #@! TD*
G04 #@! TO.C,C40*
X103500000Y-14500000D03*
X103500000Y-16100000D03*
G04 #@! TD*
G04 #@! TO.C,C41*
X82000000Y-14500000D03*
X82000000Y-16100000D03*
G04 #@! TD*
G04 #@! TO.C,C42*
X80000000Y-14500000D03*
X80000000Y-16100000D03*
G04 #@! TD*
G04 #@! TO.C,C43*
X58500000Y-14500000D03*
X58500000Y-16100000D03*
G04 #@! TD*
G04 #@! TO.C,C44*
X56500000Y-14500000D03*
X56500000Y-16100000D03*
G04 #@! TD*
G04 #@! TO.C,C45*
X147000000Y-12000000D03*
X145400000Y-12000000D03*
G04 #@! TD*
G04 #@! TO.C,C46*
X123500000Y-12000000D03*
X121900000Y-12000000D03*
G04 #@! TD*
G04 #@! TO.C,C47*
X100000000Y-12000000D03*
X98400000Y-12000000D03*
G04 #@! TD*
G04 #@! TO.C,C48*
X76500000Y-12000000D03*
X74900000Y-12000000D03*
G04 #@! TD*
G04 #@! TO.C,C49*
X142000000Y-17500000D03*
X142000000Y-19100000D03*
G04 #@! TD*
G04 #@! TO.C,C51*
X118500000Y-17500000D03*
X118500000Y-19100000D03*
G04 #@! TD*
G04 #@! TO.C,C53*
X95000000Y-17500000D03*
X95000000Y-19100000D03*
G04 #@! TD*
G04 #@! TO.C,C55*
X71500000Y-17500000D03*
X71500000Y-19100000D03*
G04 #@! TD*
G04 #@! TO.C,C57*
X143000000Y-15500000D03*
X141400000Y-15500000D03*
G04 #@! TD*
G04 #@! TO.C,C58*
X119500000Y-15500000D03*
X117900000Y-15500000D03*
G04 #@! TD*
G04 #@! TO.C,C59*
X96000000Y-15500000D03*
X94400000Y-15500000D03*
G04 #@! TD*
G04 #@! TO.C,C60*
X72500000Y-15500000D03*
X70900000Y-15500000D03*
G04 #@! TD*
G04 #@! TO.C,C61*
X119500000Y-79000000D03*
X117900000Y-79000000D03*
G04 #@! TD*
G04 #@! TO.C,C62*
X72500000Y-79000000D03*
X70900000Y-79000000D03*
G04 #@! TD*
G04 #@! TO.C,C63*
X127500000Y-63000000D03*
X125900000Y-63000000D03*
G04 #@! TD*
G04 #@! TO.C,C64*
X80500000Y-63000000D03*
X78900000Y-63000000D03*
G04 #@! TD*
G04 #@! TO.C,C65*
X39500000Y-18500000D03*
X41100000Y-18500000D03*
G04 #@! TD*
G04 #@! TO.C,C66*
X29500000Y-18500000D03*
X27900000Y-18500000D03*
G04 #@! TD*
G04 #@! TO.C,C67*
X29000000Y-28500000D03*
X27400000Y-28500000D03*
G04 #@! TD*
G04 #@! TO.C,C68*
X39000000Y-28500000D03*
X40600000Y-28500000D03*
G04 #@! TD*
G04 #@! TO.C,C70*
X39500000Y-42000000D03*
X41100000Y-42000000D03*
G04 #@! TD*
G04 #@! TO.C,C71*
X29500000Y-42000000D03*
X27900000Y-42000000D03*
G04 #@! TD*
G04 #@! TO.C,C72*
X29000000Y-52000000D03*
X27400000Y-52000000D03*
G04 #@! TD*
G04 #@! TO.C,C73*
X39000000Y-52000000D03*
X40600000Y-52000000D03*
G04 #@! TD*
G04 #@! TO.C,C75*
X39500000Y-65500000D03*
X41100000Y-65500000D03*
G04 #@! TD*
G04 #@! TO.C,C76*
X29500000Y-65500000D03*
X27900000Y-65500000D03*
G04 #@! TD*
G04 #@! TO.C,C77*
X29000000Y-75500000D03*
X27400000Y-75500000D03*
G04 #@! TD*
G04 #@! TO.C,C78*
X39000000Y-75500000D03*
X40600000Y-75500000D03*
G04 #@! TD*
G04 #@! TO.C,C80*
X39500000Y-89000000D03*
X41100000Y-89000000D03*
G04 #@! TD*
G04 #@! TO.C,C81*
X29500000Y-89000000D03*
X27900000Y-89000000D03*
G04 #@! TD*
G04 #@! TO.C,C82*
X29000000Y-99000000D03*
X27400000Y-99000000D03*
G04 #@! TD*
G04 #@! TO.C,C83*
X39000000Y-99000000D03*
X40600000Y-99000000D03*
G04 #@! TD*
G04 #@! TO.C,C85*
X32000000Y-30000000D03*
X33600000Y-30000000D03*
G04 #@! TD*
G04 #@! TO.C,C86*
X32000000Y-32000000D03*
X33600000Y-32000000D03*
G04 #@! TD*
G04 #@! TO.C,C87*
X32000000Y-53500000D03*
X33600000Y-53500000D03*
G04 #@! TD*
G04 #@! TO.C,C88*
X32000000Y-55500000D03*
X33600000Y-55500000D03*
G04 #@! TD*
G04 #@! TO.C,C89*
X32000000Y-77000000D03*
X33600000Y-77000000D03*
G04 #@! TD*
G04 #@! TO.C,C90*
X32000000Y-79000000D03*
X33600000Y-79000000D03*
G04 #@! TD*
G04 #@! TO.C,C91*
X32000000Y-100500000D03*
X33600000Y-100500000D03*
G04 #@! TD*
G04 #@! TO.C,C92*
X32000000Y-102500000D03*
X33600000Y-102500000D03*
G04 #@! TD*
G04 #@! TO.C,C93*
X29500000Y-12000000D03*
X29500000Y-13600000D03*
G04 #@! TD*
G04 #@! TO.C,C94*
X29500000Y-35500000D03*
X29500000Y-37100000D03*
G04 #@! TD*
G04 #@! TO.C,C95*
X29500000Y-59000000D03*
X29500000Y-60600000D03*
G04 #@! TD*
G04 #@! TO.C,C96*
X29500000Y-82500000D03*
X29500000Y-84100000D03*
G04 #@! TD*
G04 #@! TO.C,C97*
X35000000Y-17000000D03*
X36600000Y-17000000D03*
G04 #@! TD*
G04 #@! TO.C,C99*
X35000000Y-40500000D03*
X36600000Y-40500000D03*
G04 #@! TD*
G04 #@! TO.C,C101*
X35000000Y-64000000D03*
X36600000Y-64000000D03*
G04 #@! TD*
G04 #@! TO.C,C103*
X35000000Y-87500000D03*
X36600000Y-87500000D03*
G04 #@! TD*
G04 #@! TO.C,C105*
X33000000Y-16000000D03*
X33000000Y-17600000D03*
G04 #@! TD*
G04 #@! TO.C,C106*
X33000000Y-39500000D03*
X33000000Y-41100000D03*
G04 #@! TD*
G04 #@! TO.C,C107*
X33000000Y-63000000D03*
X33000000Y-64600000D03*
G04 #@! TD*
G04 #@! TO.C,C108*
X33000000Y-86500000D03*
X33000000Y-88100000D03*
G04 #@! TD*
G04 #@! TO.C,C109*
X142000000Y-56000000D03*
X143600000Y-56000000D03*
G04 #@! TD*
G04 #@! TO.C,C110*
X114000000Y-56000000D03*
X115600000Y-56000000D03*
G04 #@! TD*
G04 #@! TO.C,C111*
X95000000Y-56000000D03*
X96600000Y-56000000D03*
G04 #@! TD*
G04 #@! TO.C,C112*
X67000000Y-56000000D03*
X68600000Y-56000000D03*
G04 #@! TD*
G04 #@! TO.C,C191*
X131500000Y-102500000D03*
X131500000Y-100900000D03*
G04 #@! TD*
G04 #@! TO.C,C192*
X133500000Y-102500000D03*
X133500000Y-100900000D03*
G04 #@! TD*
G04 #@! TO.C,C193*
X108000000Y-102500000D03*
X108000000Y-100900000D03*
G04 #@! TD*
G04 #@! TO.C,C194*
X110000000Y-102500000D03*
X110000000Y-100900000D03*
G04 #@! TD*
G04 #@! TO.C,C195*
X84500000Y-102500000D03*
X84500000Y-100900000D03*
G04 #@! TD*
G04 #@! TO.C,C196*
X86500000Y-102500000D03*
X86500000Y-100900000D03*
G04 #@! TD*
G04 #@! TO.C,C197*
X61000000Y-102500000D03*
X61000000Y-100900000D03*
G04 #@! TD*
G04 #@! TO.C,C198*
X63000000Y-102500000D03*
X63000000Y-100900000D03*
G04 #@! TD*
D16*
G04 #@! TO.C,IC1*
X139505000Y-116500000D03*
X139505000Y-113960000D03*
X139505000Y-111420000D03*
X139505000Y-108880000D03*
X128075000Y-108880000D03*
X128075000Y-111420000D03*
X128075000Y-113960000D03*
X128075000Y-116500000D03*
G04 #@! TD*
G04 #@! TO.C,IC2*
X116005000Y-116500000D03*
X116005000Y-113960000D03*
X116005000Y-111420000D03*
X116005000Y-108880000D03*
X104575000Y-108880000D03*
X104575000Y-111420000D03*
X104575000Y-113960000D03*
X104575000Y-116500000D03*
G04 #@! TD*
G04 #@! TO.C,IC3*
X92505000Y-116500000D03*
X92505000Y-113960000D03*
X92505000Y-111420000D03*
X92505000Y-108880000D03*
X81075000Y-108880000D03*
X81075000Y-111420000D03*
X81075000Y-113960000D03*
X81075000Y-116500000D03*
G04 #@! TD*
G04 #@! TO.C,IC4*
X69005000Y-116500000D03*
X69005000Y-113960000D03*
X69005000Y-111420000D03*
X69005000Y-108880000D03*
X57575000Y-108880000D03*
X57575000Y-111420000D03*
X57575000Y-113960000D03*
X57575000Y-116500000D03*
G04 #@! TD*
D17*
G04 #@! TO.C,D42*
X64000000Y-61200000D03*
X64000000Y-65500000D03*
G04 #@! TD*
G04 #@! TO.C,D41*
X92000000Y-61200000D03*
X92000000Y-65500000D03*
G04 #@! TD*
G04 #@! TO.C,D40*
X111000000Y-61200000D03*
X111000000Y-65500000D03*
G04 #@! TD*
G04 #@! TO.C,D39*
X139000000Y-61200000D03*
X139000000Y-65500000D03*
G04 #@! TD*
G04 #@! TO.C,D38*
X60000000Y-35200000D03*
X60000000Y-39500000D03*
G04 #@! TD*
G04 #@! TO.C,D37*
X83500000Y-35200000D03*
X83500000Y-39500000D03*
G04 #@! TD*
G04 #@! TO.C,D36*
X107000000Y-35200000D03*
X107000000Y-39500000D03*
G04 #@! TD*
G04 #@! TO.C,D35*
X130500000Y-35200000D03*
X130500000Y-39500000D03*
G04 #@! TD*
D18*
G04 #@! TO.C,D34*
X56200000Y-91000000D03*
X60500000Y-91000000D03*
G04 #@! TD*
G04 #@! TO.C,D33*
X79700000Y-91000000D03*
X84000000Y-91000000D03*
G04 #@! TD*
G04 #@! TO.C,D32*
X103200000Y-91000000D03*
X107500000Y-91000000D03*
G04 #@! TD*
G04 #@! TO.C,D31*
X126700000Y-91000000D03*
X131000000Y-91000000D03*
G04 #@! TD*
D19*
G04 #@! TO.C,D9*
X4700000Y-8500000D03*
X9000000Y-8500000D03*
G04 #@! TD*
G04 #@! TO.C,D10*
X4700000Y-26000000D03*
X9000000Y-26000000D03*
G04 #@! TD*
G04 #@! TO.C,D11*
X4700000Y-43500000D03*
X9000000Y-43500000D03*
G04 #@! TD*
G04 #@! TO.C,D12*
X4700000Y-61000000D03*
X9000000Y-61000000D03*
G04 #@! TD*
G04 #@! TO.C,D13*
X4700000Y-78500000D03*
X9000000Y-78500000D03*
G04 #@! TD*
G04 #@! TO.C,D14*
X4700000Y-96000000D03*
X9000000Y-96000000D03*
G04 #@! TD*
D20*
G04 #@! TO.C,C21*
X135500000Y500000D03*
X135500000Y-8200000D03*
G04 #@! TD*
G04 #@! TO.C,C26*
X112000000Y500000D03*
X112000000Y-8200000D03*
G04 #@! TD*
G04 #@! TO.C,C31*
X88500000Y500000D03*
X88500000Y-8200000D03*
G04 #@! TD*
G04 #@! TO.C,C36*
X65000000Y500000D03*
X65000000Y-8200000D03*
G04 #@! TD*
D21*
G04 #@! TO.C,C69*
X17000000Y-23500000D03*
X25700000Y-23500000D03*
G04 #@! TD*
G04 #@! TO.C,C74*
X17000000Y-47000000D03*
X25700000Y-47000000D03*
G04 #@! TD*
G04 #@! TO.C,C79*
X17000000Y-70500000D03*
X25700000Y-70500000D03*
G04 #@! TD*
G04 #@! TO.C,C84*
X17000000Y-94000000D03*
X25700000Y-94000000D03*
G04 #@! TD*
D22*
G04 #@! TO.C,Q1*
X191900000Y-1200000D03*
D23*
X198000000Y-1200000D03*
X198000000Y1100000D03*
X198000000Y-3500000D03*
G04 #@! TD*
D22*
G04 #@! TO.C,Q2*
X-7100000Y-11700000D03*
D23*
X-1000000Y-11700000D03*
X-1000000Y-9400000D03*
X-1000000Y-14000000D03*
G04 #@! TD*
D22*
G04 #@! TO.C,Q3*
X-7100000Y-29200000D03*
D23*
X-1000000Y-29200000D03*
X-1000000Y-26900000D03*
X-1000000Y-31500000D03*
G04 #@! TD*
D22*
G04 #@! TO.C,Q4*
X-7100000Y-46700000D03*
D23*
X-1000000Y-46700000D03*
X-1000000Y-44400000D03*
X-1000000Y-49000000D03*
G04 #@! TD*
D22*
G04 #@! TO.C,Q5*
X-7100000Y-64200000D03*
D23*
X-1000000Y-64200000D03*
X-1000000Y-61900000D03*
X-1000000Y-66500000D03*
G04 #@! TD*
D22*
G04 #@! TO.C,Q6*
X-7100000Y-81700000D03*
D23*
X-1000000Y-81700000D03*
X-1000000Y-79400000D03*
X-1000000Y-84000000D03*
G04 #@! TD*
D22*
G04 #@! TO.C,Q7*
X-7100000Y-99200000D03*
D23*
X-1000000Y-99200000D03*
X-1000000Y-96900000D03*
X-1000000Y-101500000D03*
G04 #@! TD*
D24*
G04 #@! TO.C,IC14*
X34175000Y-94050000D03*
D25*
X29845000Y-91000000D03*
D26*
X30595000Y-91000000D03*
X31245000Y-91000000D03*
X31895000Y-91000000D03*
X32545000Y-91000000D03*
X33195000Y-91000000D03*
X33845000Y-91000000D03*
X34495000Y-91000000D03*
X35145000Y-91000000D03*
X35795000Y-91000000D03*
X36445000Y-91000000D03*
X37095000Y-91000000D03*
X37745000Y-91000000D03*
D25*
X38495000Y-91000000D03*
X38495000Y-97100000D03*
D26*
X37745000Y-97100000D03*
X37095000Y-97100000D03*
X36445000Y-97100000D03*
X35795000Y-97100000D03*
X35145000Y-97100000D03*
X34495000Y-97100000D03*
X33845000Y-97100000D03*
X33195000Y-97100000D03*
X32545000Y-97100000D03*
X31895000Y-97100000D03*
X31245000Y-97100000D03*
X30595000Y-97100000D03*
D25*
X29845000Y-97100000D03*
G04 #@! TD*
D24*
G04 #@! TO.C,IC13*
X34175000Y-70550000D03*
D25*
X29845000Y-67500000D03*
D26*
X30595000Y-67500000D03*
X31245000Y-67500000D03*
X31895000Y-67500000D03*
X32545000Y-67500000D03*
X33195000Y-67500000D03*
X33845000Y-67500000D03*
X34495000Y-67500000D03*
X35145000Y-67500000D03*
X35795000Y-67500000D03*
X36445000Y-67500000D03*
X37095000Y-67500000D03*
X37745000Y-67500000D03*
D25*
X38495000Y-67500000D03*
X38495000Y-73600000D03*
D26*
X37745000Y-73600000D03*
X37095000Y-73600000D03*
X36445000Y-73600000D03*
X35795000Y-73600000D03*
X35145000Y-73600000D03*
X34495000Y-73600000D03*
X33845000Y-73600000D03*
X33195000Y-73600000D03*
X32545000Y-73600000D03*
X31895000Y-73600000D03*
X31245000Y-73600000D03*
X30595000Y-73600000D03*
D25*
X29845000Y-73600000D03*
G04 #@! TD*
D24*
G04 #@! TO.C,IC12*
X34175000Y-47050000D03*
D25*
X29845000Y-44000000D03*
D26*
X30595000Y-44000000D03*
X31245000Y-44000000D03*
X31895000Y-44000000D03*
X32545000Y-44000000D03*
X33195000Y-44000000D03*
X33845000Y-44000000D03*
X34495000Y-44000000D03*
X35145000Y-44000000D03*
X35795000Y-44000000D03*
X36445000Y-44000000D03*
X37095000Y-44000000D03*
X37745000Y-44000000D03*
D25*
X38495000Y-44000000D03*
X38495000Y-50100000D03*
D26*
X37745000Y-50100000D03*
X37095000Y-50100000D03*
X36445000Y-50100000D03*
X35795000Y-50100000D03*
X35145000Y-50100000D03*
X34495000Y-50100000D03*
X33845000Y-50100000D03*
X33195000Y-50100000D03*
X32545000Y-50100000D03*
X31895000Y-50100000D03*
X31245000Y-50100000D03*
X30595000Y-50100000D03*
D25*
X29845000Y-50100000D03*
G04 #@! TD*
D24*
G04 #@! TO.C,IC11*
X34175000Y-23550000D03*
D25*
X29845000Y-20500000D03*
D26*
X30595000Y-20500000D03*
X31245000Y-20500000D03*
X31895000Y-20500000D03*
X32545000Y-20500000D03*
X33195000Y-20500000D03*
X33845000Y-20500000D03*
X34495000Y-20500000D03*
X35145000Y-20500000D03*
X35795000Y-20500000D03*
X36445000Y-20500000D03*
X37095000Y-20500000D03*
X37745000Y-20500000D03*
D25*
X38495000Y-20500000D03*
X38495000Y-26600000D03*
D26*
X37745000Y-26600000D03*
X37095000Y-26600000D03*
X36445000Y-26600000D03*
X35795000Y-26600000D03*
X35145000Y-26600000D03*
X34495000Y-26600000D03*
X33845000Y-26600000D03*
X33195000Y-26600000D03*
X32545000Y-26600000D03*
X31895000Y-26600000D03*
X31245000Y-26600000D03*
X30595000Y-26600000D03*
D25*
X29845000Y-26600000D03*
G04 #@! TD*
D27*
G04 #@! TO.C,IC8*
X64950000Y-16675000D03*
D28*
X68000000Y-12345000D03*
D29*
X68000000Y-13095000D03*
X68000000Y-13745000D03*
X68000000Y-14395000D03*
X68000000Y-15045000D03*
X68000000Y-15695000D03*
X68000000Y-16345000D03*
X68000000Y-16995000D03*
X68000000Y-17645000D03*
X68000000Y-18295000D03*
X68000000Y-18945000D03*
X68000000Y-19595000D03*
X68000000Y-20245000D03*
D28*
X68000000Y-20995000D03*
X61900000Y-20995000D03*
D29*
X61900000Y-20245000D03*
X61900000Y-19595000D03*
X61900000Y-18945000D03*
X61900000Y-18295000D03*
X61900000Y-17645000D03*
X61900000Y-16995000D03*
X61900000Y-16345000D03*
X61900000Y-15695000D03*
X61900000Y-15045000D03*
X61900000Y-14395000D03*
X61900000Y-13745000D03*
X61900000Y-13095000D03*
D28*
X61900000Y-12345000D03*
G04 #@! TD*
D27*
G04 #@! TO.C,IC7*
X88450000Y-16675000D03*
D28*
X91500000Y-12345000D03*
D29*
X91500000Y-13095000D03*
X91500000Y-13745000D03*
X91500000Y-14395000D03*
X91500000Y-15045000D03*
X91500000Y-15695000D03*
X91500000Y-16345000D03*
X91500000Y-16995000D03*
X91500000Y-17645000D03*
X91500000Y-18295000D03*
X91500000Y-18945000D03*
X91500000Y-19595000D03*
X91500000Y-20245000D03*
D28*
X91500000Y-20995000D03*
X85400000Y-20995000D03*
D29*
X85400000Y-20245000D03*
X85400000Y-19595000D03*
X85400000Y-18945000D03*
X85400000Y-18295000D03*
X85400000Y-17645000D03*
X85400000Y-16995000D03*
X85400000Y-16345000D03*
X85400000Y-15695000D03*
X85400000Y-15045000D03*
X85400000Y-14395000D03*
X85400000Y-13745000D03*
X85400000Y-13095000D03*
D28*
X85400000Y-12345000D03*
G04 #@! TD*
D27*
G04 #@! TO.C,IC6*
X111950000Y-16675000D03*
D28*
X115000000Y-12345000D03*
D29*
X115000000Y-13095000D03*
X115000000Y-13745000D03*
X115000000Y-14395000D03*
X115000000Y-15045000D03*
X115000000Y-15695000D03*
X115000000Y-16345000D03*
X115000000Y-16995000D03*
X115000000Y-17645000D03*
X115000000Y-18295000D03*
X115000000Y-18945000D03*
X115000000Y-19595000D03*
X115000000Y-20245000D03*
D28*
X115000000Y-20995000D03*
X108900000Y-20995000D03*
D29*
X108900000Y-20245000D03*
X108900000Y-19595000D03*
X108900000Y-18945000D03*
X108900000Y-18295000D03*
X108900000Y-17645000D03*
X108900000Y-16995000D03*
X108900000Y-16345000D03*
X108900000Y-15695000D03*
X108900000Y-15045000D03*
X108900000Y-14395000D03*
X108900000Y-13745000D03*
X108900000Y-13095000D03*
D28*
X108900000Y-12345000D03*
G04 #@! TD*
D27*
G04 #@! TO.C,IC5*
X135450000Y-16675000D03*
D28*
X138500000Y-12345000D03*
D29*
X138500000Y-13095000D03*
X138500000Y-13745000D03*
X138500000Y-14395000D03*
X138500000Y-15045000D03*
X138500000Y-15695000D03*
X138500000Y-16345000D03*
X138500000Y-16995000D03*
X138500000Y-17645000D03*
X138500000Y-18295000D03*
X138500000Y-18945000D03*
X138500000Y-19595000D03*
X138500000Y-20245000D03*
D28*
X138500000Y-20995000D03*
X132400000Y-20995000D03*
D29*
X132400000Y-20245000D03*
X132400000Y-19595000D03*
X132400000Y-18945000D03*
X132400000Y-18295000D03*
X132400000Y-17645000D03*
X132400000Y-16995000D03*
X132400000Y-16345000D03*
X132400000Y-15695000D03*
X132400000Y-15045000D03*
X132400000Y-14395000D03*
X132400000Y-13745000D03*
X132400000Y-13095000D03*
D28*
X132400000Y-12345000D03*
G04 #@! TD*
D30*
G04 #@! TO.C,C115*
X219000000Y-96000000D03*
X222000000Y-96000000D03*
G04 #@! TD*
D31*
G04 #@! TO.C,C113*
X214000000Y-96000000D03*
X214000000Y-99000000D03*
G04 #@! TD*
G04 #@! TO.C,C114*
X211000000Y-96000000D03*
X211000000Y-99000000D03*
G04 #@! TD*
D30*
G04 #@! TO.C,L1*
X221000000Y-102000000D03*
X218000000Y-102000000D03*
G04 #@! TD*
D32*
G04 #@! TO.C,IC9*
X127500000Y-76805000D03*
X127500000Y-75535000D03*
X127500000Y-74265000D03*
X127500000Y-72995000D03*
X127500000Y-71725000D03*
X127500000Y-70455000D03*
X127500000Y-69185000D03*
X127500000Y-67915000D03*
X127500000Y-66645000D03*
X127500000Y-65375000D03*
X118100000Y-65375000D03*
X118100000Y-66645000D03*
X118100000Y-67915000D03*
X118100000Y-69185000D03*
X118100000Y-70455000D03*
X118100000Y-71725000D03*
X118100000Y-72995000D03*
X118100000Y-74265000D03*
X118100000Y-75535000D03*
X118100000Y-76805000D03*
G04 #@! TD*
G04 #@! TO.C,IC10*
X80500000Y-76805000D03*
X80500000Y-75535000D03*
X80500000Y-74265000D03*
X80500000Y-72995000D03*
X80500000Y-71725000D03*
X80500000Y-70455000D03*
X80500000Y-69185000D03*
X80500000Y-67915000D03*
X80500000Y-66645000D03*
X80500000Y-65375000D03*
X71100000Y-65375000D03*
X71100000Y-66645000D03*
X71100000Y-67915000D03*
X71100000Y-69185000D03*
X71100000Y-70455000D03*
X71100000Y-71725000D03*
X71100000Y-72995000D03*
X71100000Y-74265000D03*
X71100000Y-75535000D03*
X71100000Y-76805000D03*
G04 #@! TD*
M02*
