G04 #@! TF.GenerationSoftware,KiCad,Pcbnew,(5.0.0)*
G04 #@! TF.CreationDate,2019-04-01T15:57:56-04:00*
G04 #@! TF.ProjectId,PREP400,505245503430302E6B696361645F7063,2*
G04 #@! TF.SameCoordinates,Original*
G04 #@! TF.FileFunction,Soldermask,Top*
G04 #@! TF.FilePolarity,Negative*
%FSLAX46Y46*%
G04 Gerber Fmt 4.6, Leading zero omitted, Abs format (unit mm)*
G04 Created by KiCad (PCBNEW (5.0.0)) date 04/01/19 15:57:56*
%MOMM*%
%LPD*%
G01*
G04 APERTURE LIST*
%ADD10R,0.901600X0.901600*%
%ADD11O,1.828800X1.828800*%
%ADD12R,1.828800X1.828800*%
%ADD13C,3.276600*%
%ADD14O,2.006600X2.006600*%
%ADD15O,3.149600X1.625600*%
%ADD16O,1.625600X3.149600*%
%ADD17R,1.101600X1.351600*%
%ADD18R,1.351600X1.101600*%
%ADD19C,3.159000*%
%ADD20R,1.101600X1.101600*%
%ADD21R,1.501600X1.101600*%
%ADD22R,1.101600X1.501600*%
%ADD23R,1.101600X1.901600*%
%ADD24R,1.901600X1.101600*%
%ADD25C,2.901600*%
%ADD26C,0.601600*%
%ADD27R,2.133600X1.244600*%
%ADD28R,2.401600X2.601600*%
%ADD29R,2.601600X2.401600*%
%ADD30R,2.751600X1.851600*%
%ADD31R,2.101600X4.201600*%
%ADD32R,4.201600X2.101600*%
%ADD33O,4.673600X2.387600*%
%ADD34R,2.001600X3.351600*%
%ADD35R,2.001600X1.051600*%
%ADD36R,5.801600X3.101600*%
%ADD37R,0.701600X1.451600*%
%ADD38R,0.481600X1.451600*%
%ADD39R,3.101600X5.801600*%
%ADD40R,1.451600X0.701600*%
%ADD41R,1.451600X0.481600*%
%ADD42R,1.101600X1.701600*%
%ADD43R,1.701600X1.101600*%
%ADD44R,2.051600X0.701600*%
%ADD45C,5.101600*%
G04 APERTURE END LIST*
D10*
G04 #@! TO.C,C42*
X152900000Y-86050000D03*
X152900000Y-87650000D03*
G04 #@! TD*
D11*
G04 #@! TO.C,U1*
X238860000Y-99050000D03*
D12*
X241400000Y-99050000D03*
D11*
X238860000Y-101590000D03*
X241400000Y-101590000D03*
X238860000Y-104130000D03*
X241400000Y-104130000D03*
X238860000Y-106670000D03*
X241400000Y-106670000D03*
X238860000Y-109210000D03*
X241400000Y-109210000D03*
X238860000Y-111750000D03*
X241400000Y-111750000D03*
X238860000Y-114290000D03*
X241400000Y-114290000D03*
X238860000Y-116830000D03*
X241400000Y-116830000D03*
X238860000Y-120894000D03*
D12*
X241400000Y-120894000D03*
D11*
X238860000Y-123434000D03*
X241400000Y-123434000D03*
X238860000Y-125974000D03*
X241400000Y-125974000D03*
X238860000Y-128514000D03*
X241400000Y-128514000D03*
X238860000Y-131054000D03*
X241400000Y-131054000D03*
X238860000Y-133594000D03*
X241400000Y-133594000D03*
X238860000Y-136134000D03*
X241400000Y-136134000D03*
X238860000Y-138674000D03*
X241400000Y-138674000D03*
X238860000Y-141214000D03*
X241400000Y-141214000D03*
X238860000Y-143754000D03*
X241400000Y-143754000D03*
X287120000Y-111750000D03*
D12*
X284580000Y-111750000D03*
D11*
X287120000Y-109210000D03*
X284580000Y-109210000D03*
X287120000Y-106670000D03*
X284580000Y-106670000D03*
X287120000Y-104130000D03*
X284580000Y-104130000D03*
X287120000Y-101590000D03*
X284580000Y-101590000D03*
X287120000Y-99050000D03*
X284580000Y-99050000D03*
X287120000Y-134610000D03*
D12*
X284580000Y-134610000D03*
D11*
X287120000Y-132070000D03*
X284580000Y-132070000D03*
X287120000Y-129530000D03*
X284580000Y-129530000D03*
X287120000Y-126990000D03*
X284580000Y-126990000D03*
X287120000Y-124450000D03*
X284580000Y-124450000D03*
X287120000Y-121910000D03*
X284580000Y-121910000D03*
X287120000Y-119370000D03*
X284580000Y-119370000D03*
X287120000Y-116830000D03*
X284580000Y-116830000D03*
D13*
X240130000Y-93970000D03*
X286612000Y-93970000D03*
X286612000Y-147310000D03*
X240130000Y-148580000D03*
G04 #@! TD*
D14*
G04 #@! TO.C,JP1*
X291400000Y-170550000D03*
X293940000Y-170550000D03*
G04 #@! TD*
G04 #@! TO.C,JP2*
X274900000Y-79050000D03*
X277440000Y-79050000D03*
G04 #@! TD*
G04 #@! TO.C,JP3*
X197900000Y-170550000D03*
X200440000Y-170550000D03*
G04 #@! TD*
G04 #@! TO.C,JP4*
X174400000Y-170550000D03*
X176940000Y-170550000D03*
G04 #@! TD*
G04 #@! TO.C,JP5*
X150900000Y-170550000D03*
X153440000Y-170550000D03*
G04 #@! TD*
G04 #@! TO.C,JP6*
X127400000Y-170550000D03*
X129940000Y-170550000D03*
G04 #@! TD*
G04 #@! TO.C,JP7*
X291900000Y-129550000D03*
X294440000Y-129550000D03*
G04 #@! TD*
G04 #@! TO.C,JP8*
X275900000Y-122050000D03*
X273360000Y-122050000D03*
G04 #@! TD*
G04 #@! TO.C,JP9*
X204400000Y-135550000D03*
X206940000Y-135550000D03*
G04 #@! TD*
G04 #@! TO.C,JP10*
X176400000Y-135550000D03*
X178940000Y-135550000D03*
G04 #@! TD*
G04 #@! TO.C,JP11*
X157400000Y-135550000D03*
X159940000Y-135550000D03*
G04 #@! TD*
G04 #@! TO.C,JP12*
X129400000Y-135550000D03*
X131940000Y-135550000D03*
G04 #@! TD*
D15*
G04 #@! TO.C,J13*
X76900000Y-171010000D03*
X76900000Y-173550000D03*
G04 #@! TD*
G04 #@! TO.C,J12*
X76900000Y-153510000D03*
X76900000Y-156050000D03*
G04 #@! TD*
G04 #@! TO.C,J11*
X76900000Y-136010000D03*
X76900000Y-138550000D03*
G04 #@! TD*
G04 #@! TO.C,J10*
X76900000Y-118510000D03*
X76900000Y-121050000D03*
G04 #@! TD*
G04 #@! TO.C,J9*
X76900000Y-101010000D03*
X76900000Y-103550000D03*
G04 #@! TD*
G04 #@! TO.C,J8*
X76900000Y-83510000D03*
X76900000Y-86050000D03*
G04 #@! TD*
D16*
G04 #@! TO.C,J3*
X89360000Y-72550000D03*
X91900000Y-72550000D03*
G04 #@! TD*
G04 #@! TO.C,J2*
X274860000Y-72550000D03*
X277400000Y-72550000D03*
G04 #@! TD*
D15*
G04 #@! TO.C,J29*
X117900000Y-169550000D03*
X117900000Y-167010000D03*
X117900000Y-164470000D03*
X117900000Y-161930000D03*
G04 #@! TD*
G04 #@! TO.C,J28*
X117900000Y-146050000D03*
X117900000Y-143510000D03*
X117900000Y-140970000D03*
X117900000Y-138430000D03*
G04 #@! TD*
G04 #@! TO.C,J27*
X117900000Y-122550000D03*
X117900000Y-120010000D03*
X117900000Y-117470000D03*
X117900000Y-114930000D03*
G04 #@! TD*
G04 #@! TO.C,J26*
X117900000Y-99050000D03*
X117900000Y-96510000D03*
X117900000Y-93970000D03*
X117900000Y-91430000D03*
G04 #@! TD*
D16*
G04 #@! TO.C,J21*
X133900000Y-99050000D03*
X136440000Y-99050000D03*
X138980000Y-99050000D03*
X141520000Y-99050000D03*
G04 #@! TD*
G04 #@! TO.C,J20*
X157400000Y-99050000D03*
X159940000Y-99050000D03*
X162480000Y-99050000D03*
X165020000Y-99050000D03*
G04 #@! TD*
G04 #@! TO.C,J19*
X180900000Y-99050000D03*
X183440000Y-99050000D03*
X185980000Y-99050000D03*
X188520000Y-99050000D03*
G04 #@! TD*
G04 #@! TO.C,J18*
X204400000Y-99050000D03*
X206940000Y-99050000D03*
X209480000Y-99050000D03*
X212020000Y-99050000D03*
G04 #@! TD*
G04 #@! TO.C,J17*
X133900000Y-117050000D03*
X136440000Y-117050000D03*
X138980000Y-117050000D03*
G04 #@! TD*
G04 #@! TO.C,J16*
X157400000Y-117050000D03*
X159940000Y-117050000D03*
X162480000Y-117050000D03*
G04 #@! TD*
G04 #@! TO.C,J15*
X180900000Y-117050000D03*
X183440000Y-117050000D03*
X185980000Y-117050000D03*
G04 #@! TD*
G04 #@! TO.C,J14*
X204400000Y-117050000D03*
X206940000Y-117050000D03*
X209480000Y-117050000D03*
G04 #@! TD*
G04 #@! TO.C,J7*
X133900000Y-168050000D03*
X136440000Y-168050000D03*
X138980000Y-168050000D03*
G04 #@! TD*
G04 #@! TO.C,J6*
X157400000Y-168050000D03*
X159940000Y-168050000D03*
X162480000Y-168050000D03*
G04 #@! TD*
G04 #@! TO.C,J5*
X180900000Y-168050000D03*
X183440000Y-168050000D03*
X185980000Y-168050000D03*
G04 #@! TD*
G04 #@! TO.C,J4*
X204400000Y-168050000D03*
X206940000Y-168050000D03*
X209480000Y-168050000D03*
G04 #@! TD*
G04 #@! TO.C,J25*
X129400000Y-142050000D03*
X131940000Y-142050000D03*
X134480000Y-142050000D03*
X137020000Y-142050000D03*
X139560000Y-142050000D03*
G04 #@! TD*
G04 #@! TO.C,J24*
X157400000Y-142050000D03*
X159940000Y-142050000D03*
X162480000Y-142050000D03*
X165020000Y-142050000D03*
X167560000Y-142050000D03*
G04 #@! TD*
G04 #@! TO.C,J23*
X176400000Y-142050000D03*
X178940000Y-142050000D03*
X181480000Y-142050000D03*
X184020000Y-142050000D03*
X186560000Y-142050000D03*
G04 #@! TD*
G04 #@! TO.C,J22*
X204400000Y-142050000D03*
X206940000Y-142050000D03*
X209480000Y-142050000D03*
X212020000Y-142050000D03*
X214560000Y-142050000D03*
G04 #@! TD*
D17*
G04 #@! TO.C,C136*
X293400000Y-117050000D03*
X291400000Y-117050000D03*
G04 #@! TD*
D18*
G04 #@! TO.C,C50*
X216900000Y-91050000D03*
X216900000Y-89050000D03*
G04 #@! TD*
G04 #@! TO.C,C52*
X193400000Y-91050000D03*
X193400000Y-89050000D03*
G04 #@! TD*
G04 #@! TO.C,C54*
X169900000Y-91050000D03*
X169900000Y-89050000D03*
G04 #@! TD*
G04 #@! TO.C,C56*
X146400000Y-91050000D03*
X146400000Y-89050000D03*
G04 #@! TD*
D17*
G04 #@! TO.C,C98*
X109900000Y-86550000D03*
X107900000Y-86550000D03*
G04 #@! TD*
G04 #@! TO.C,C100*
X109900000Y-110050000D03*
X107900000Y-110050000D03*
G04 #@! TD*
G04 #@! TO.C,C102*
X109900000Y-133550000D03*
X107900000Y-133550000D03*
G04 #@! TD*
G04 #@! TO.C,C104*
X109900000Y-157050000D03*
X107900000Y-157050000D03*
G04 #@! TD*
D19*
G04 #@! TO.C,F1*
X72900000Y-71550000D03*
G04 #@! TD*
G04 #@! TO.C,F2*
X287400000Y-71550000D03*
G04 #@! TD*
G04 #@! TO.C,F3*
X72900000Y-184050000D03*
G04 #@! TD*
D20*
G04 #@! TO.C,L8*
X130400000Y-138050000D03*
X132400000Y-138050000D03*
G04 #@! TD*
G04 #@! TO.C,L7*
X158400000Y-138050000D03*
X160400000Y-138050000D03*
G04 #@! TD*
G04 #@! TO.C,L6*
X177400000Y-138050000D03*
X179400000Y-138050000D03*
G04 #@! TD*
G04 #@! TO.C,L5*
X205400000Y-138050000D03*
X207400000Y-138050000D03*
G04 #@! TD*
G04 #@! TO.C,L4*
X277900000Y-124550000D03*
X275900000Y-124550000D03*
G04 #@! TD*
G04 #@! TO.C,L3*
X292400000Y-127050000D03*
X294400000Y-127050000D03*
G04 #@! TD*
G04 #@! TO.C,L2*
X277900000Y-76550000D03*
X275900000Y-76550000D03*
G04 #@! TD*
G04 #@! TO.C,L9*
X199400000Y-168050000D03*
X201400000Y-168050000D03*
G04 #@! TD*
G04 #@! TO.C,L10*
X175900000Y-168050000D03*
X177900000Y-168050000D03*
G04 #@! TD*
G04 #@! TO.C,L11*
X152400000Y-168050000D03*
X154400000Y-168050000D03*
G04 #@! TD*
G04 #@! TO.C,L12*
X128900000Y-168050000D03*
X130900000Y-168050000D03*
G04 #@! TD*
D21*
G04 #@! TO.C,D1*
X202400000Y-157050000D03*
X202400000Y-158950000D03*
X204600000Y-158000000D03*
G04 #@! TD*
D22*
G04 #@! TO.C,D2*
X215400000Y-163550000D03*
X217300000Y-163550000D03*
X216350000Y-161350000D03*
G04 #@! TD*
D21*
G04 #@! TO.C,D3*
X178900000Y-157050000D03*
X178900000Y-158950000D03*
X181100000Y-158000000D03*
G04 #@! TD*
D22*
G04 #@! TO.C,D4*
X191900000Y-163550000D03*
X193800000Y-163550000D03*
X192850000Y-161350000D03*
G04 #@! TD*
D21*
G04 #@! TO.C,D5*
X155400000Y-157050000D03*
X155400000Y-158950000D03*
X157600000Y-158000000D03*
G04 #@! TD*
D22*
G04 #@! TO.C,D6*
X168400000Y-163550000D03*
X170300000Y-163550000D03*
X169350000Y-161350000D03*
G04 #@! TD*
D21*
G04 #@! TO.C,D7*
X131900000Y-157050000D03*
X131900000Y-158950000D03*
X134100000Y-158000000D03*
G04 #@! TD*
D22*
G04 #@! TO.C,D8*
X144900000Y-163550000D03*
X146800000Y-163550000D03*
X145850000Y-161350000D03*
G04 #@! TD*
G04 #@! TO.C,D15*
X209400000Y-112050000D03*
X211300000Y-112050000D03*
X210350000Y-109850000D03*
G04 #@! TD*
G04 #@! TO.C,D16*
X185900000Y-112050000D03*
X187800000Y-112050000D03*
X186850000Y-109850000D03*
G04 #@! TD*
G04 #@! TO.C,D17*
X162400000Y-112050000D03*
X164300000Y-112050000D03*
X163350000Y-109850000D03*
G04 #@! TD*
G04 #@! TO.C,D18*
X138900000Y-112050000D03*
X140800000Y-112050000D03*
X139850000Y-109850000D03*
G04 #@! TD*
G04 #@! TO.C,D19*
X219900000Y-85550000D03*
X218000000Y-85550000D03*
X218950000Y-87750000D03*
G04 #@! TD*
G04 #@! TO.C,D20*
X196400000Y-85550000D03*
X194500000Y-85550000D03*
X195450000Y-87750000D03*
G04 #@! TD*
G04 #@! TO.C,D21*
X172900000Y-85550000D03*
X171000000Y-85550000D03*
X171950000Y-87750000D03*
G04 #@! TD*
G04 #@! TO.C,D22*
X149400000Y-85550000D03*
X147500000Y-85550000D03*
X148450000Y-87750000D03*
G04 #@! TD*
D21*
G04 #@! TO.C,D23*
X104400000Y-83550000D03*
X104400000Y-85450000D03*
X106600000Y-84500000D03*
G04 #@! TD*
G04 #@! TO.C,D24*
X104400000Y-107050000D03*
X104400000Y-108950000D03*
X106600000Y-108000000D03*
G04 #@! TD*
G04 #@! TO.C,D25*
X104400000Y-130550000D03*
X104400000Y-132450000D03*
X106600000Y-131500000D03*
G04 #@! TD*
G04 #@! TO.C,D26*
X104400000Y-154050000D03*
X104400000Y-155950000D03*
X106600000Y-155000000D03*
G04 #@! TD*
G04 #@! TO.C,D27*
X210400000Y-127050000D03*
X210400000Y-128950000D03*
X212600000Y-128000000D03*
G04 #@! TD*
G04 #@! TO.C,D28*
X182400000Y-127050000D03*
X182400000Y-128950000D03*
X184600000Y-128000000D03*
G04 #@! TD*
G04 #@! TO.C,D29*
X163400000Y-127050000D03*
X163400000Y-128950000D03*
X165600000Y-128000000D03*
G04 #@! TD*
G04 #@! TO.C,D30*
X135400000Y-127050000D03*
X135400000Y-128950000D03*
X137600000Y-128000000D03*
G04 #@! TD*
D10*
G04 #@! TO.C,R57*
X167900000Y-123550000D03*
X169500000Y-123550000D03*
G04 #@! TD*
G04 #@! TO.C,R70*
X139900000Y-138050000D03*
X139900000Y-136450000D03*
G04 #@! TD*
G04 #@! TO.C,R69*
X167900000Y-138050000D03*
X167900000Y-136450000D03*
G04 #@! TD*
G04 #@! TO.C,R68*
X186900000Y-138050000D03*
X186900000Y-136450000D03*
G04 #@! TD*
G04 #@! TO.C,R67*
X214900000Y-138050000D03*
X214900000Y-136450000D03*
G04 #@! TD*
G04 #@! TO.C,R66*
X136400000Y-113050000D03*
X136400000Y-111450000D03*
G04 #@! TD*
G04 #@! TO.C,R65*
X159900000Y-113050000D03*
X159900000Y-111450000D03*
G04 #@! TD*
G04 #@! TO.C,R64*
X183400000Y-113050000D03*
X183400000Y-111450000D03*
G04 #@! TD*
G04 #@! TO.C,R63*
X206900000Y-113050000D03*
X206900000Y-111450000D03*
G04 #@! TD*
G04 #@! TO.C,R62*
X136400000Y-162550000D03*
X136400000Y-164150000D03*
G04 #@! TD*
G04 #@! TO.C,R61*
X159900000Y-162550000D03*
X159900000Y-164150000D03*
G04 #@! TD*
G04 #@! TO.C,R60*
X183400000Y-162550000D03*
X183400000Y-164150000D03*
G04 #@! TD*
G04 #@! TO.C,R59*
X206900000Y-162550000D03*
X206900000Y-164150000D03*
G04 #@! TD*
G04 #@! TO.C,R1*
X270900000Y-77550000D03*
X269300000Y-77550000D03*
G04 #@! TD*
G04 #@! TO.C,R2*
X269400000Y-79550000D03*
X271000000Y-79550000D03*
G04 #@! TD*
G04 #@! TO.C,R3*
X206900000Y-159050000D03*
X206900000Y-160650000D03*
G04 #@! TD*
G04 #@! TO.C,R4*
X210400000Y-159050000D03*
X208800000Y-159050000D03*
G04 #@! TD*
G04 #@! TO.C,R5*
X183400000Y-159050000D03*
X183400000Y-160650000D03*
G04 #@! TD*
G04 #@! TO.C,R6*
X186900000Y-159050000D03*
X185300000Y-159050000D03*
G04 #@! TD*
G04 #@! TO.C,R7*
X159900000Y-159050000D03*
X159900000Y-160650000D03*
G04 #@! TD*
G04 #@! TO.C,R8*
X163400000Y-159050000D03*
X161800000Y-159050000D03*
G04 #@! TD*
G04 #@! TO.C,R9*
X136400000Y-159050000D03*
X136400000Y-160650000D03*
G04 #@! TD*
G04 #@! TO.C,R10*
X139900000Y-159050000D03*
X138300000Y-159050000D03*
G04 #@! TD*
G04 #@! TO.C,R11*
X216400000Y-159050000D03*
X216400000Y-157450000D03*
G04 #@! TD*
G04 #@! TO.C,R12*
X192900000Y-159050000D03*
X192900000Y-157450000D03*
G04 #@! TD*
G04 #@! TO.C,R13*
X169400000Y-159050000D03*
X169400000Y-157450000D03*
G04 #@! TD*
G04 #@! TO.C,R14*
X145900000Y-159050000D03*
X145900000Y-157450000D03*
G04 #@! TD*
G04 #@! TO.C,R15*
X214900000Y-180550000D03*
X214900000Y-182150000D03*
G04 #@! TD*
G04 #@! TO.C,R16*
X191400000Y-180550000D03*
X191400000Y-182150000D03*
G04 #@! TD*
G04 #@! TO.C,R17*
X167900000Y-180550000D03*
X167900000Y-182150000D03*
G04 #@! TD*
G04 #@! TO.C,R18*
X144400000Y-180550000D03*
X144400000Y-182150000D03*
G04 #@! TD*
G04 #@! TO.C,R19*
X71900000Y-88050000D03*
X71900000Y-89650000D03*
G04 #@! TD*
G04 #@! TO.C,R20*
X71900000Y-105550000D03*
X71900000Y-107150000D03*
G04 #@! TD*
G04 #@! TO.C,R21*
X71900000Y-123050000D03*
X71900000Y-124650000D03*
G04 #@! TD*
G04 #@! TO.C,R22*
X71900000Y-140550000D03*
X71900000Y-142150000D03*
G04 #@! TD*
G04 #@! TO.C,R23*
X71900000Y-91550000D03*
X70300000Y-91550000D03*
G04 #@! TD*
G04 #@! TO.C,R24*
X71900000Y-109050000D03*
X70300000Y-109050000D03*
G04 #@! TD*
G04 #@! TO.C,R25*
X71900000Y-126550000D03*
X70300000Y-126550000D03*
G04 #@! TD*
G04 #@! TO.C,R26*
X71900000Y-144050000D03*
X70300000Y-144050000D03*
G04 #@! TD*
G04 #@! TO.C,R27*
X71900000Y-158050000D03*
X71900000Y-159650000D03*
G04 #@! TD*
G04 #@! TO.C,R28*
X71900000Y-175550000D03*
X71900000Y-177150000D03*
G04 #@! TD*
G04 #@! TO.C,R29*
X71900000Y-161550000D03*
X70300000Y-161550000D03*
G04 #@! TD*
G04 #@! TO.C,R30*
X71900000Y-179050000D03*
X70300000Y-179050000D03*
G04 #@! TD*
G04 #@! TO.C,R31*
X206900000Y-109550000D03*
X206900000Y-107950000D03*
G04 #@! TD*
G04 #@! TO.C,R32*
X208900000Y-107550000D03*
X210500000Y-107550000D03*
G04 #@! TD*
G04 #@! TO.C,R33*
X183400000Y-109550000D03*
X183400000Y-107950000D03*
G04 #@! TD*
G04 #@! TO.C,R34*
X185400000Y-107550000D03*
X187000000Y-107550000D03*
G04 #@! TD*
G04 #@! TO.C,R35*
X159900000Y-109550000D03*
X159900000Y-107950000D03*
G04 #@! TD*
G04 #@! TO.C,R36*
X161900000Y-107550000D03*
X163500000Y-107550000D03*
G04 #@! TD*
G04 #@! TO.C,R37*
X136400000Y-109550000D03*
X136400000Y-107950000D03*
G04 #@! TD*
G04 #@! TO.C,R38*
X138400000Y-107550000D03*
X140000000Y-107550000D03*
G04 #@! TD*
G04 #@! TO.C,R39*
X281900000Y-129050000D03*
X281900000Y-127450000D03*
G04 #@! TD*
G04 #@! TO.C,R40*
X281900000Y-116550000D03*
X281900000Y-114950000D03*
G04 #@! TD*
G04 #@! TO.C,R41*
X199400000Y-150550000D03*
X199400000Y-152150000D03*
G04 #@! TD*
G04 #@! TO.C,R42*
X152400000Y-150550000D03*
X152400000Y-152150000D03*
G04 #@! TD*
G04 #@! TO.C,R43*
X191900000Y-133050000D03*
X191900000Y-134650000D03*
G04 #@! TD*
G04 #@! TO.C,R44*
X144900000Y-133050000D03*
X144900000Y-134650000D03*
G04 #@! TD*
G04 #@! TO.C,R45*
X214900000Y-134550000D03*
X214900000Y-132950000D03*
G04 #@! TD*
G04 #@! TO.C,R46*
X214900000Y-131050000D03*
X214900000Y-129450000D03*
G04 #@! TD*
G04 #@! TO.C,R47*
X186900000Y-134550000D03*
X186900000Y-132950000D03*
G04 #@! TD*
G04 #@! TO.C,R48*
X186900000Y-131050000D03*
X186900000Y-129450000D03*
G04 #@! TD*
G04 #@! TO.C,R50*
X281900000Y-132550000D03*
X281900000Y-134150000D03*
G04 #@! TD*
G04 #@! TO.C,R51*
X167900000Y-134550000D03*
X167900000Y-132950000D03*
G04 #@! TD*
G04 #@! TO.C,R52*
X167900000Y-131050000D03*
X167900000Y-129450000D03*
G04 #@! TD*
G04 #@! TO.C,R53*
X139900000Y-134550000D03*
X139900000Y-132950000D03*
G04 #@! TD*
G04 #@! TO.C,R54*
X139900000Y-131050000D03*
X139900000Y-129450000D03*
G04 #@! TD*
G04 #@! TO.C,R55*
X214900000Y-123550000D03*
X216500000Y-123550000D03*
G04 #@! TD*
G04 #@! TO.C,R56*
X186900000Y-123550000D03*
X188500000Y-123550000D03*
G04 #@! TD*
G04 #@! TO.C,R58*
X139900000Y-123550000D03*
X141500000Y-123550000D03*
G04 #@! TD*
G04 #@! TO.C,R49*
X282900000Y-137550000D03*
X284500000Y-137550000D03*
G04 #@! TD*
G04 #@! TO.C,R71*
X274900000Y-119550000D03*
X276500000Y-119550000D03*
G04 #@! TD*
G04 #@! TO.C,R72*
X234400000Y-143550000D03*
X232800000Y-143550000D03*
G04 #@! TD*
G04 #@! TO.C,R73*
X220900000Y-180550000D03*
X220900000Y-182150000D03*
G04 #@! TD*
G04 #@! TO.C,R74*
X197400000Y-180550000D03*
X197400000Y-182150000D03*
G04 #@! TD*
G04 #@! TO.C,R75*
X173900000Y-180550000D03*
X173900000Y-182150000D03*
G04 #@! TD*
G04 #@! TO.C,R76*
X150400000Y-180550000D03*
X150400000Y-182150000D03*
G04 #@! TD*
D23*
G04 #@! TO.C,TP1*
X201400000Y-151550000D03*
G04 #@! TD*
G04 #@! TO.C,TP2*
X189900000Y-134050000D03*
G04 #@! TD*
G04 #@! TO.C,TP3*
X154400000Y-151550000D03*
G04 #@! TD*
G04 #@! TO.C,TP4*
X142900000Y-134050000D03*
G04 #@! TD*
G04 #@! TO.C,TP5*
X187900000Y-148050000D03*
G04 #@! TD*
D24*
G04 #@! TO.C,TP6*
X204400000Y-131550000D03*
G04 #@! TD*
G04 #@! TO.C,TP7*
X112400000Y-83050000D03*
G04 #@! TD*
G04 #@! TO.C,TP8*
X228900000Y-92050000D03*
G04 #@! TD*
D23*
G04 #@! TO.C,TP9*
X127900000Y-83550000D03*
G04 #@! TD*
G04 #@! TO.C,TP10*
X220400000Y-94550000D03*
G04 #@! TD*
G04 #@! TO.C,TP11*
X222400000Y-94550000D03*
G04 #@! TD*
G04 #@! TO.C,TP12*
X224400000Y-94550000D03*
G04 #@! TD*
D24*
G04 #@! TO.C,TP13*
X218900000Y-129050000D03*
G04 #@! TD*
G04 #@! TO.C,TP14*
X190900000Y-129050000D03*
G04 #@! TD*
G04 #@! TO.C,TP15*
X171900000Y-129050000D03*
G04 #@! TD*
G04 #@! TO.C,TP16*
X143900000Y-129050000D03*
G04 #@! TD*
D23*
G04 #@! TO.C,TP17*
X293900000Y-163050000D03*
G04 #@! TD*
G04 #@! TO.C,TP18*
X294400000Y-136050000D03*
G04 #@! TD*
D24*
G04 #@! TO.C,TP23*
X117400000Y-157050000D03*
G04 #@! TD*
G04 #@! TO.C,TP24*
X110900000Y-176050000D03*
G04 #@! TD*
G04 #@! TO.C,TP25*
X107900000Y-176050000D03*
G04 #@! TD*
G04 #@! TO.C,TP26*
X264900000Y-77550000D03*
G04 #@! TD*
D23*
G04 #@! TO.C,TP27*
X219900000Y-159050000D03*
G04 #@! TD*
G04 #@! TO.C,TP28*
X196400000Y-159050000D03*
G04 #@! TD*
G04 #@! TO.C,TP29*
X172900000Y-159050000D03*
G04 #@! TD*
G04 #@! TO.C,TP30*
X149400000Y-159050000D03*
G04 #@! TD*
D24*
G04 #@! TO.C,TP31*
X212900000Y-178050000D03*
G04 #@! TD*
G04 #@! TO.C,TP32*
X189400000Y-178050000D03*
G04 #@! TD*
G04 #@! TO.C,TP33*
X165900000Y-178050000D03*
G04 #@! TD*
G04 #@! TO.C,TP34*
X142400000Y-178050000D03*
G04 #@! TD*
G04 #@! TO.C,TP35*
X75900000Y-89550000D03*
G04 #@! TD*
G04 #@! TO.C,TP36*
X75900000Y-107050000D03*
G04 #@! TD*
G04 #@! TO.C,TP37*
X75900000Y-124650000D03*
G04 #@! TD*
G04 #@! TO.C,TP38*
X75900000Y-142150000D03*
G04 #@! TD*
G04 #@! TO.C,TP39*
X75900000Y-159550000D03*
G04 #@! TD*
G04 #@! TO.C,TP40*
X75400000Y-177050000D03*
G04 #@! TD*
D23*
G04 #@! TO.C,TP41*
X217900000Y-107550000D03*
G04 #@! TD*
G04 #@! TO.C,TP42*
X194400000Y-107550000D03*
G04 #@! TD*
G04 #@! TO.C,TP43*
X170900000Y-107550000D03*
G04 #@! TD*
G04 #@! TO.C,TP44*
X147400000Y-107550000D03*
G04 #@! TD*
G04 #@! TO.C,TP45*
X218400000Y-93550000D03*
G04 #@! TD*
G04 #@! TO.C,TP46*
X194900000Y-93550000D03*
G04 #@! TD*
G04 #@! TO.C,TP47*
X171400000Y-93550000D03*
G04 #@! TD*
G04 #@! TO.C,TP48*
X147900000Y-93550000D03*
G04 #@! TD*
D24*
G04 #@! TO.C,TP49*
X112400000Y-85050000D03*
G04 #@! TD*
G04 #@! TO.C,TP50*
X112400000Y-108550000D03*
G04 #@! TD*
G04 #@! TO.C,TP51*
X112400000Y-132050000D03*
G04 #@! TD*
G04 #@! TO.C,TP52*
X112400000Y-155550000D03*
G04 #@! TD*
D23*
G04 #@! TO.C,TP53*
X212900000Y-123550000D03*
G04 #@! TD*
G04 #@! TO.C,TP54*
X184900000Y-123550000D03*
G04 #@! TD*
G04 #@! TO.C,TP55*
X165900000Y-123550000D03*
G04 #@! TD*
G04 #@! TO.C,TP56*
X137900000Y-123550000D03*
G04 #@! TD*
D10*
G04 #@! TO.C,C190*
X111900000Y-172550000D03*
X113500000Y-172550000D03*
G04 #@! TD*
G04 #@! TO.C,C189*
X111900000Y-149050000D03*
X113500000Y-149050000D03*
G04 #@! TD*
G04 #@! TO.C,C188*
X111900000Y-125550000D03*
X113500000Y-125550000D03*
G04 #@! TD*
G04 #@! TO.C,C187*
X111900000Y-102050000D03*
X113500000Y-102050000D03*
G04 #@! TD*
G04 #@! TO.C,C186*
X101900000Y-172550000D03*
X100300000Y-172550000D03*
G04 #@! TD*
G04 #@! TO.C,C185*
X101900000Y-149050000D03*
X100300000Y-149050000D03*
G04 #@! TD*
G04 #@! TO.C,C184*
X101900000Y-125550000D03*
X100300000Y-125550000D03*
G04 #@! TD*
G04 #@! TO.C,C183*
X101900000Y-102050000D03*
X100300000Y-102050000D03*
G04 #@! TD*
G04 #@! TO.C,C182*
X102400000Y-158550000D03*
X100800000Y-158550000D03*
G04 #@! TD*
G04 #@! TO.C,C181*
X102400000Y-135050000D03*
X100800000Y-135050000D03*
G04 #@! TD*
G04 #@! TO.C,C180*
X102400000Y-111550000D03*
X100800000Y-111550000D03*
G04 #@! TD*
G04 #@! TO.C,C179*
X102400000Y-88050000D03*
X100800000Y-88050000D03*
G04 #@! TD*
G04 #@! TO.C,C178*
X112400000Y-158550000D03*
X114000000Y-158550000D03*
G04 #@! TD*
G04 #@! TO.C,C177*
X112400000Y-135050000D03*
X114000000Y-135050000D03*
G04 #@! TD*
G04 #@! TO.C,C176*
X112400000Y-111550000D03*
X114000000Y-111550000D03*
G04 #@! TD*
G04 #@! TO.C,C175*
X112400000Y-88050000D03*
X114000000Y-88050000D03*
G04 #@! TD*
G04 #@! TO.C,C174*
X139900000Y-125550000D03*
X141500000Y-125550000D03*
G04 #@! TD*
G04 #@! TO.C,C173*
X167900000Y-125550000D03*
X169500000Y-125550000D03*
G04 #@! TD*
G04 #@! TO.C,C172*
X186900000Y-125550000D03*
X188500000Y-125550000D03*
G04 #@! TD*
G04 #@! TO.C,C171*
X214900000Y-125550000D03*
X216500000Y-125550000D03*
G04 #@! TD*
G04 #@! TO.C,C170*
X131400000Y-148050000D03*
X131400000Y-146450000D03*
G04 #@! TD*
G04 #@! TO.C,C169*
X129400000Y-148050000D03*
X129400000Y-146450000D03*
G04 #@! TD*
G04 #@! TO.C,C168*
X159400000Y-148050000D03*
X159400000Y-146450000D03*
G04 #@! TD*
G04 #@! TO.C,C167*
X157400000Y-148050000D03*
X157400000Y-146450000D03*
G04 #@! TD*
G04 #@! TO.C,C166*
X178400000Y-148050000D03*
X178400000Y-146450000D03*
G04 #@! TD*
G04 #@! TO.C,C165*
X176400000Y-148050000D03*
X176400000Y-146450000D03*
G04 #@! TD*
G04 #@! TO.C,C164*
X206400000Y-148050000D03*
X206400000Y-146450000D03*
G04 #@! TD*
G04 #@! TO.C,C163*
X204400000Y-148050000D03*
X204400000Y-146450000D03*
G04 #@! TD*
G04 #@! TO.C,C162*
X153400000Y-132550000D03*
X151800000Y-132550000D03*
G04 #@! TD*
G04 #@! TO.C,C161*
X200400000Y-132550000D03*
X198800000Y-132550000D03*
G04 #@! TD*
G04 #@! TO.C,C160*
X145400000Y-152550000D03*
X143800000Y-152550000D03*
G04 #@! TD*
G04 #@! TO.C,C159*
X192400000Y-152550000D03*
X190800000Y-152550000D03*
G04 #@! TD*
G04 #@! TO.C,C158*
X130900000Y-93050000D03*
X130900000Y-94650000D03*
G04 #@! TD*
G04 #@! TO.C,C157*
X154400000Y-93050000D03*
X154400000Y-94650000D03*
G04 #@! TD*
G04 #@! TO.C,C156*
X177900000Y-93050000D03*
X177900000Y-94650000D03*
G04 #@! TD*
G04 #@! TO.C,C155*
X201400000Y-93050000D03*
X201400000Y-94650000D03*
G04 #@! TD*
G04 #@! TO.C,C154*
X130900000Y-83050000D03*
X130900000Y-81450000D03*
G04 #@! TD*
G04 #@! TO.C,C153*
X154400000Y-83050000D03*
X154400000Y-81450000D03*
G04 #@! TD*
G04 #@! TO.C,C152*
X177900000Y-83050000D03*
X177900000Y-81450000D03*
G04 #@! TD*
G04 #@! TO.C,C151*
X215400000Y-83550000D03*
X215400000Y-81950000D03*
G04 #@! TD*
G04 #@! TO.C,C150*
X144900000Y-83550000D03*
X144900000Y-81950000D03*
G04 #@! TD*
G04 #@! TO.C,C149*
X168400000Y-83550000D03*
X168400000Y-81950000D03*
G04 #@! TD*
G04 #@! TO.C,C148*
X191900000Y-83550000D03*
X191900000Y-81950000D03*
G04 #@! TD*
G04 #@! TO.C,C147*
X201400000Y-83050000D03*
X201400000Y-81450000D03*
G04 #@! TD*
G04 #@! TO.C,C146*
X144900000Y-93550000D03*
X144900000Y-95150000D03*
G04 #@! TD*
G04 #@! TO.C,C145*
X168400000Y-93550000D03*
X168400000Y-95150000D03*
G04 #@! TD*
G04 #@! TO.C,C144*
X191900000Y-93550000D03*
X191900000Y-95150000D03*
G04 #@! TD*
G04 #@! TO.C,C143*
X215400000Y-93550000D03*
X215400000Y-95150000D03*
G04 #@! TD*
G04 #@! TO.C,C142*
X143900000Y-107550000D03*
X143900000Y-105950000D03*
G04 #@! TD*
G04 #@! TO.C,C141*
X167400000Y-107550000D03*
X167400000Y-105950000D03*
G04 #@! TD*
G04 #@! TO.C,C140*
X190900000Y-107550000D03*
X190900000Y-105950000D03*
G04 #@! TD*
G04 #@! TO.C,C139*
X214400000Y-107550000D03*
X214400000Y-105950000D03*
G04 #@! TD*
G04 #@! TO.C,C138*
X291900000Y-121050000D03*
X293500000Y-121050000D03*
G04 #@! TD*
G04 #@! TO.C,C137*
X291900000Y-119050000D03*
X293500000Y-119050000D03*
G04 #@! TD*
G04 #@! TO.C,C135*
X275900000Y-126550000D03*
X275900000Y-128150000D03*
G04 #@! TD*
G04 #@! TO.C,C134*
X277900000Y-126550000D03*
X277900000Y-128150000D03*
G04 #@! TD*
G04 #@! TO.C,C133*
X294400000Y-125050000D03*
X292800000Y-125050000D03*
G04 #@! TD*
G04 #@! TO.C,C132*
X294400000Y-123050000D03*
X292800000Y-123050000D03*
G04 #@! TD*
G04 #@! TO.C,C131*
X148400000Y-180550000D03*
X148400000Y-182150000D03*
G04 #@! TD*
G04 #@! TO.C,C130*
X171900000Y-180550000D03*
X171900000Y-182150000D03*
G04 #@! TD*
G04 #@! TO.C,C129*
X195400000Y-180550000D03*
X195400000Y-182150000D03*
G04 #@! TD*
G04 #@! TO.C,C128*
X218900000Y-180550000D03*
X218900000Y-182150000D03*
G04 #@! TD*
G04 #@! TO.C,C127*
X144400000Y-186550000D03*
X146000000Y-186550000D03*
G04 #@! TD*
G04 #@! TO.C,C126*
X167900000Y-186550000D03*
X169500000Y-186550000D03*
G04 #@! TD*
G04 #@! TO.C,C125*
X191400000Y-186550000D03*
X193000000Y-186550000D03*
G04 #@! TD*
G04 #@! TO.C,C124*
X214900000Y-186550000D03*
X216500000Y-186550000D03*
G04 #@! TD*
G04 #@! TO.C,C123*
X143900000Y-159050000D03*
X143900000Y-157450000D03*
G04 #@! TD*
G04 #@! TO.C,C122*
X167400000Y-159050000D03*
X167400000Y-157450000D03*
G04 #@! TD*
G04 #@! TO.C,C121*
X190900000Y-159050000D03*
X190900000Y-157450000D03*
G04 #@! TD*
G04 #@! TO.C,C120*
X214400000Y-159050000D03*
X214400000Y-157450000D03*
G04 #@! TD*
G04 #@! TO.C,C119*
X91400000Y-78550000D03*
X89800000Y-78550000D03*
G04 #@! TD*
G04 #@! TO.C,C118*
X91400000Y-76550000D03*
X89800000Y-76550000D03*
G04 #@! TD*
G04 #@! TO.C,C117*
X279900000Y-73550000D03*
X281500000Y-73550000D03*
G04 #@! TD*
G04 #@! TO.C,C116*
X279900000Y-71550000D03*
X281500000Y-71550000D03*
G04 #@! TD*
G04 #@! TO.C,C1*
X212400000Y-159050000D03*
X212400000Y-157450000D03*
G04 #@! TD*
G04 #@! TO.C,C2*
X188900000Y-159050000D03*
X188900000Y-157450000D03*
G04 #@! TD*
G04 #@! TO.C,C3*
X165400000Y-159050000D03*
X165400000Y-157450000D03*
G04 #@! TD*
G04 #@! TO.C,C4*
X141900000Y-159050000D03*
X141900000Y-157450000D03*
G04 #@! TD*
G04 #@! TO.C,C5*
X214900000Y-184550000D03*
X216500000Y-184550000D03*
G04 #@! TD*
G04 #@! TO.C,C6*
X191400000Y-184550000D03*
X193000000Y-184550000D03*
G04 #@! TD*
G04 #@! TO.C,C7*
X167900000Y-184550000D03*
X169500000Y-184550000D03*
G04 #@! TD*
G04 #@! TO.C,C8*
X144400000Y-184550000D03*
X146000000Y-184550000D03*
G04 #@! TD*
G04 #@! TO.C,C9*
X216900000Y-180550000D03*
X216900000Y-182150000D03*
G04 #@! TD*
G04 #@! TO.C,C10*
X193400000Y-180550000D03*
X193400000Y-182150000D03*
G04 #@! TD*
G04 #@! TO.C,C11*
X169900000Y-180550000D03*
X169900000Y-182150000D03*
G04 #@! TD*
G04 #@! TO.C,C12*
X146400000Y-180550000D03*
X146400000Y-182150000D03*
G04 #@! TD*
G04 #@! TO.C,C13*
X212400000Y-107550000D03*
X212400000Y-105950000D03*
G04 #@! TD*
G04 #@! TO.C,C14*
X188900000Y-107550000D03*
X188900000Y-105950000D03*
G04 #@! TD*
G04 #@! TO.C,C15*
X165400000Y-107550000D03*
X165400000Y-105950000D03*
G04 #@! TD*
G04 #@! TO.C,C16*
X141900000Y-107550000D03*
X141900000Y-105950000D03*
G04 #@! TD*
G04 #@! TO.C,C17*
X213400000Y-93550000D03*
X213400000Y-95150000D03*
G04 #@! TD*
G04 #@! TO.C,C18*
X213400000Y-83550000D03*
X213400000Y-81950000D03*
G04 #@! TD*
G04 #@! TO.C,C19*
X203400000Y-83050000D03*
X203400000Y-81450000D03*
G04 #@! TD*
G04 #@! TO.C,C20*
X203400000Y-93050000D03*
X203400000Y-94650000D03*
G04 #@! TD*
G04 #@! TO.C,C22*
X189900000Y-93550000D03*
X189900000Y-95150000D03*
G04 #@! TD*
G04 #@! TO.C,C23*
X189900000Y-83550000D03*
X189900000Y-81950000D03*
G04 #@! TD*
G04 #@! TO.C,C24*
X179900000Y-83050000D03*
X179900000Y-81450000D03*
G04 #@! TD*
G04 #@! TO.C,C25*
X179900000Y-93050000D03*
X179900000Y-94650000D03*
G04 #@! TD*
G04 #@! TO.C,C27*
X166400000Y-93550000D03*
X166400000Y-95150000D03*
G04 #@! TD*
G04 #@! TO.C,C28*
X166400000Y-83550000D03*
X166400000Y-81950000D03*
G04 #@! TD*
G04 #@! TO.C,C29*
X156400000Y-83050000D03*
X156400000Y-81450000D03*
G04 #@! TD*
G04 #@! TO.C,C30*
X156400000Y-93050000D03*
X156400000Y-94650000D03*
G04 #@! TD*
G04 #@! TO.C,C32*
X142900000Y-93550000D03*
X142900000Y-95150000D03*
G04 #@! TD*
G04 #@! TO.C,C33*
X142900000Y-83550000D03*
X142900000Y-81950000D03*
G04 #@! TD*
G04 #@! TO.C,C34*
X132900000Y-83050000D03*
X132900000Y-81450000D03*
G04 #@! TD*
G04 #@! TO.C,C35*
X132900000Y-93050000D03*
X132900000Y-94650000D03*
G04 #@! TD*
G04 #@! TO.C,C37*
X201900000Y-86050000D03*
X201900000Y-87650000D03*
G04 #@! TD*
G04 #@! TO.C,C38*
X199900000Y-86050000D03*
X199900000Y-87650000D03*
G04 #@! TD*
G04 #@! TO.C,C39*
X178400000Y-86050000D03*
X178400000Y-87650000D03*
G04 #@! TD*
G04 #@! TO.C,C40*
X176400000Y-86050000D03*
X176400000Y-87650000D03*
G04 #@! TD*
G04 #@! TO.C,C41*
X154900000Y-86050000D03*
X154900000Y-87650000D03*
G04 #@! TD*
G04 #@! TO.C,C43*
X131400000Y-86050000D03*
X131400000Y-87650000D03*
G04 #@! TD*
G04 #@! TO.C,C44*
X129400000Y-86050000D03*
X129400000Y-87650000D03*
G04 #@! TD*
G04 #@! TO.C,C45*
X219900000Y-83050000D03*
X218300000Y-83050000D03*
G04 #@! TD*
G04 #@! TO.C,C46*
X196400000Y-83050000D03*
X194800000Y-83050000D03*
G04 #@! TD*
G04 #@! TO.C,C47*
X172900000Y-83050000D03*
X171300000Y-83050000D03*
G04 #@! TD*
G04 #@! TO.C,C48*
X149400000Y-83050000D03*
X147800000Y-83050000D03*
G04 #@! TD*
G04 #@! TO.C,C49*
X214900000Y-89050000D03*
X214900000Y-90650000D03*
G04 #@! TD*
G04 #@! TO.C,C51*
X191400000Y-89050000D03*
X191400000Y-90650000D03*
G04 #@! TD*
G04 #@! TO.C,C53*
X167900000Y-89050000D03*
X167900000Y-90650000D03*
G04 #@! TD*
G04 #@! TO.C,C55*
X144400000Y-89050000D03*
X144400000Y-90650000D03*
G04 #@! TD*
G04 #@! TO.C,C57*
X215900000Y-87050000D03*
X214300000Y-87050000D03*
G04 #@! TD*
G04 #@! TO.C,C58*
X192400000Y-87050000D03*
X190800000Y-87050000D03*
G04 #@! TD*
G04 #@! TO.C,C59*
X168900000Y-87050000D03*
X167300000Y-87050000D03*
G04 #@! TD*
G04 #@! TO.C,C60*
X145400000Y-87050000D03*
X143800000Y-87050000D03*
G04 #@! TD*
G04 #@! TO.C,C61*
X192400000Y-150550000D03*
X190800000Y-150550000D03*
G04 #@! TD*
G04 #@! TO.C,C62*
X145400000Y-150550000D03*
X143800000Y-150550000D03*
G04 #@! TD*
G04 #@! TO.C,C63*
X200400000Y-134550000D03*
X198800000Y-134550000D03*
G04 #@! TD*
G04 #@! TO.C,C64*
X153400000Y-134550000D03*
X151800000Y-134550000D03*
G04 #@! TD*
G04 #@! TO.C,C65*
X112400000Y-90050000D03*
X114000000Y-90050000D03*
G04 #@! TD*
G04 #@! TO.C,C66*
X102400000Y-90050000D03*
X100800000Y-90050000D03*
G04 #@! TD*
G04 #@! TO.C,C67*
X101900000Y-100050000D03*
X100300000Y-100050000D03*
G04 #@! TD*
G04 #@! TO.C,C68*
X111900000Y-100050000D03*
X113500000Y-100050000D03*
G04 #@! TD*
G04 #@! TO.C,C70*
X112400000Y-113550000D03*
X114000000Y-113550000D03*
G04 #@! TD*
G04 #@! TO.C,C71*
X102400000Y-113550000D03*
X100800000Y-113550000D03*
G04 #@! TD*
G04 #@! TO.C,C72*
X101900000Y-123550000D03*
X100300000Y-123550000D03*
G04 #@! TD*
G04 #@! TO.C,C73*
X111900000Y-123550000D03*
X113500000Y-123550000D03*
G04 #@! TD*
G04 #@! TO.C,C75*
X112400000Y-137050000D03*
X114000000Y-137050000D03*
G04 #@! TD*
G04 #@! TO.C,C76*
X102400000Y-137050000D03*
X100800000Y-137050000D03*
G04 #@! TD*
G04 #@! TO.C,C77*
X101900000Y-147050000D03*
X100300000Y-147050000D03*
G04 #@! TD*
G04 #@! TO.C,C78*
X111900000Y-147050000D03*
X113500000Y-147050000D03*
G04 #@! TD*
G04 #@! TO.C,C80*
X112400000Y-160550000D03*
X114000000Y-160550000D03*
G04 #@! TD*
G04 #@! TO.C,C81*
X102400000Y-160550000D03*
X100800000Y-160550000D03*
G04 #@! TD*
G04 #@! TO.C,C82*
X101900000Y-170550000D03*
X100300000Y-170550000D03*
G04 #@! TD*
G04 #@! TO.C,C83*
X111900000Y-170550000D03*
X113500000Y-170550000D03*
G04 #@! TD*
G04 #@! TO.C,C85*
X104900000Y-101550000D03*
X106500000Y-101550000D03*
G04 #@! TD*
G04 #@! TO.C,C86*
X104900000Y-103550000D03*
X106500000Y-103550000D03*
G04 #@! TD*
G04 #@! TO.C,C87*
X104900000Y-125050000D03*
X106500000Y-125050000D03*
G04 #@! TD*
G04 #@! TO.C,C88*
X104900000Y-127050000D03*
X106500000Y-127050000D03*
G04 #@! TD*
G04 #@! TO.C,C89*
X104900000Y-148550000D03*
X106500000Y-148550000D03*
G04 #@! TD*
G04 #@! TO.C,C90*
X104900000Y-150550000D03*
X106500000Y-150550000D03*
G04 #@! TD*
G04 #@! TO.C,C91*
X104900000Y-172050000D03*
X106500000Y-172050000D03*
G04 #@! TD*
G04 #@! TO.C,C92*
X104900000Y-174050000D03*
X106500000Y-174050000D03*
G04 #@! TD*
G04 #@! TO.C,C93*
X101900000Y-83550000D03*
X101900000Y-85150000D03*
G04 #@! TD*
G04 #@! TO.C,C94*
X101900000Y-107050000D03*
X101900000Y-108650000D03*
G04 #@! TD*
G04 #@! TO.C,C95*
X101900000Y-130550000D03*
X101900000Y-132150000D03*
G04 #@! TD*
G04 #@! TO.C,C96*
X101900000Y-154050000D03*
X101900000Y-155650000D03*
G04 #@! TD*
G04 #@! TO.C,C97*
X107900000Y-88550000D03*
X109500000Y-88550000D03*
G04 #@! TD*
G04 #@! TO.C,C99*
X107900000Y-112050000D03*
X109500000Y-112050000D03*
G04 #@! TD*
G04 #@! TO.C,C101*
X107900000Y-135550000D03*
X109500000Y-135550000D03*
G04 #@! TD*
G04 #@! TO.C,C103*
X107900000Y-159050000D03*
X109500000Y-159050000D03*
G04 #@! TD*
G04 #@! TO.C,C105*
X105900000Y-87550000D03*
X105900000Y-89150000D03*
G04 #@! TD*
G04 #@! TO.C,C106*
X105900000Y-111050000D03*
X105900000Y-112650000D03*
G04 #@! TD*
G04 #@! TO.C,C107*
X105900000Y-134550000D03*
X105900000Y-136150000D03*
G04 #@! TD*
G04 #@! TO.C,C108*
X105900000Y-158050000D03*
X105900000Y-159650000D03*
G04 #@! TD*
G04 #@! TO.C,C109*
X214900000Y-127550000D03*
X216500000Y-127550000D03*
G04 #@! TD*
G04 #@! TO.C,C110*
X186900000Y-127550000D03*
X188500000Y-127550000D03*
G04 #@! TD*
G04 #@! TO.C,C111*
X167900000Y-127550000D03*
X169500000Y-127550000D03*
G04 #@! TD*
G04 #@! TO.C,C112*
X139900000Y-127550000D03*
X141500000Y-127550000D03*
G04 #@! TD*
G04 #@! TO.C,C191*
X204400000Y-174050000D03*
X204400000Y-172450000D03*
G04 #@! TD*
G04 #@! TO.C,C192*
X206400000Y-174050000D03*
X206400000Y-172450000D03*
G04 #@! TD*
G04 #@! TO.C,C193*
X180900000Y-174050000D03*
X180900000Y-172450000D03*
G04 #@! TD*
G04 #@! TO.C,C194*
X182900000Y-174050000D03*
X182900000Y-172450000D03*
G04 #@! TD*
G04 #@! TO.C,C195*
X157400000Y-174050000D03*
X157400000Y-172450000D03*
G04 #@! TD*
G04 #@! TO.C,C196*
X159400000Y-174050000D03*
X159400000Y-172450000D03*
G04 #@! TD*
G04 #@! TO.C,C197*
X133900000Y-174050000D03*
X133900000Y-172450000D03*
G04 #@! TD*
G04 #@! TO.C,C198*
X135900000Y-174050000D03*
X135900000Y-172450000D03*
G04 #@! TD*
D25*
G04 #@! TO.C,TP19*
X79900000Y-71550000D03*
G04 #@! TD*
G04 #@! TO.C,TP22*
X275900000Y-184050000D03*
G04 #@! TD*
G04 #@! TO.C,TP20*
X256900000Y-71550000D03*
G04 #@! TD*
G04 #@! TO.C,TP21*
X79900000Y-184050000D03*
G04 #@! TD*
D26*
G04 #@! TO.C,REF\002A\002A*
X222400000Y-189650000D03*
X223400000Y-189650000D03*
X224400000Y-189650000D03*
X225400000Y-189650000D03*
X226400000Y-189650000D03*
X221400000Y-189650000D03*
X227400000Y-189650000D03*
G04 #@! TD*
G04 #@! TO.C,REF\002A\002A*
X122400000Y-189650000D03*
X123400000Y-189650000D03*
X124400000Y-189650000D03*
X125400000Y-189650000D03*
X126400000Y-189650000D03*
X121400000Y-189650000D03*
X127400000Y-189650000D03*
G04 #@! TD*
G04 #@! TO.C,REF\002A\002A*
X68400000Y-189650000D03*
X69400000Y-189650000D03*
X70400000Y-189650000D03*
X71400000Y-189650000D03*
X72400000Y-189650000D03*
X67400000Y-189650000D03*
X73400000Y-189650000D03*
G04 #@! TD*
G04 #@! TO.C,REF\002A\002A*
X276400000Y-189650000D03*
X277400000Y-189650000D03*
X278400000Y-189650000D03*
X279400000Y-189650000D03*
X280400000Y-189650000D03*
X275400000Y-189650000D03*
X281400000Y-189650000D03*
G04 #@! TD*
G04 #@! TO.C,REF\002A\002A*
X300000000Y-198550000D03*
X300000000Y-197550000D03*
X300000000Y-196550000D03*
X300000000Y-195550000D03*
X300000000Y-194550000D03*
X300000000Y-199550000D03*
X300000000Y-193550000D03*
G04 #@! TD*
G04 #@! TO.C,REF\002A\002A*
X300000000Y-61050000D03*
X300000000Y-60050000D03*
X300000000Y-59050000D03*
X300000000Y-58050000D03*
X300000000Y-57050000D03*
X300000000Y-62050000D03*
X300000000Y-56050000D03*
G04 #@! TD*
G04 #@! TO.C,REF\002A\002A*
X300000000Y-152550000D03*
X300000000Y-151550000D03*
X300000000Y-150550000D03*
X300000000Y-149550000D03*
X300000000Y-148550000D03*
X300000000Y-153550000D03*
X300000000Y-147550000D03*
G04 #@! TD*
G04 #@! TO.C,REF\002A\002A*
X300000000Y-107050000D03*
X300000000Y-106050000D03*
X300000000Y-105050000D03*
X300000000Y-104050000D03*
X300000000Y-103050000D03*
X300000000Y-108050000D03*
X300000000Y-102050000D03*
G04 #@! TD*
G04 #@! TO.C,REF\002A\002A*
X60300000Y-194550000D03*
X60300000Y-195550000D03*
X60300000Y-196550000D03*
X60300000Y-197550000D03*
X60300000Y-198550000D03*
X60300000Y-193550000D03*
X60300000Y-199550000D03*
G04 #@! TD*
G04 #@! TO.C,REF\002A\002A*
X60300000Y-57050000D03*
X60300000Y-58050000D03*
X60300000Y-59050000D03*
X60300000Y-60050000D03*
X60300000Y-61050000D03*
X60300000Y-56050000D03*
X60300000Y-62050000D03*
G04 #@! TD*
G04 #@! TO.C,REF\002A\002A*
X60300000Y-103050000D03*
X60300000Y-104050000D03*
X60300000Y-105050000D03*
X60300000Y-106050000D03*
X60300000Y-107050000D03*
X60300000Y-102050000D03*
X60300000Y-108050000D03*
G04 #@! TD*
G04 #@! TO.C,REF\002A\002A*
X60300000Y-148550000D03*
X60300000Y-149550000D03*
X60300000Y-150550000D03*
X60300000Y-151550000D03*
X60300000Y-152550000D03*
X60300000Y-147550000D03*
X60300000Y-153550000D03*
G04 #@! TD*
G04 #@! TO.C,REF\002A\002A*
X72400000Y-65950000D03*
X71400000Y-65950000D03*
X70400000Y-65950000D03*
X69400000Y-65950000D03*
X68400000Y-65950000D03*
X73400000Y-65950000D03*
X67400000Y-65950000D03*
G04 #@! TD*
G04 #@! TO.C,REF\002A\002A*
X291900000Y-65950000D03*
X290900000Y-65950000D03*
X289900000Y-65950000D03*
X288900000Y-65950000D03*
X287900000Y-65950000D03*
X292900000Y-65950000D03*
X286900000Y-65950000D03*
G04 #@! TD*
G04 #@! TO.C,REF\002A\002A*
X145400000Y-65950000D03*
X144400000Y-65950000D03*
X143400000Y-65950000D03*
X142400000Y-65950000D03*
X141400000Y-65950000D03*
X146400000Y-65950000D03*
X140400000Y-65950000D03*
G04 #@! TD*
G04 #@! TO.C,REF\002A\002A*
X218900000Y-65950000D03*
X217900000Y-65950000D03*
X216900000Y-65950000D03*
X215900000Y-65950000D03*
X214900000Y-65950000D03*
X219900000Y-65950000D03*
X213900000Y-65950000D03*
G04 #@! TD*
D27*
G04 #@! TO.C,IC1*
X212405000Y-188050000D03*
X212405000Y-185510000D03*
X212405000Y-182970000D03*
X212405000Y-180430000D03*
X200975000Y-180430000D03*
X200975000Y-182970000D03*
X200975000Y-185510000D03*
X200975000Y-188050000D03*
G04 #@! TD*
G04 #@! TO.C,IC2*
X188905000Y-188050000D03*
X188905000Y-185510000D03*
X188905000Y-182970000D03*
X188905000Y-180430000D03*
X177475000Y-180430000D03*
X177475000Y-182970000D03*
X177475000Y-185510000D03*
X177475000Y-188050000D03*
G04 #@! TD*
G04 #@! TO.C,IC3*
X165405000Y-188050000D03*
X165405000Y-185510000D03*
X165405000Y-182970000D03*
X165405000Y-180430000D03*
X153975000Y-180430000D03*
X153975000Y-182970000D03*
X153975000Y-185510000D03*
X153975000Y-188050000D03*
G04 #@! TD*
G04 #@! TO.C,IC4*
X141905000Y-188050000D03*
X141905000Y-185510000D03*
X141905000Y-182970000D03*
X141905000Y-180430000D03*
X130475000Y-180430000D03*
X130475000Y-182970000D03*
X130475000Y-185510000D03*
X130475000Y-188050000D03*
G04 #@! TD*
D28*
G04 #@! TO.C,D42*
X136900000Y-132750000D03*
X136900000Y-137050000D03*
G04 #@! TD*
G04 #@! TO.C,D41*
X164900000Y-132750000D03*
X164900000Y-137050000D03*
G04 #@! TD*
G04 #@! TO.C,D40*
X183900000Y-132750000D03*
X183900000Y-137050000D03*
G04 #@! TD*
G04 #@! TO.C,D39*
X211900000Y-132750000D03*
X211900000Y-137050000D03*
G04 #@! TD*
G04 #@! TO.C,D38*
X132900000Y-106750000D03*
X132900000Y-111050000D03*
G04 #@! TD*
G04 #@! TO.C,D37*
X156400000Y-106750000D03*
X156400000Y-111050000D03*
G04 #@! TD*
G04 #@! TO.C,D36*
X179900000Y-106750000D03*
X179900000Y-111050000D03*
G04 #@! TD*
G04 #@! TO.C,D35*
X203400000Y-106750000D03*
X203400000Y-111050000D03*
G04 #@! TD*
D29*
G04 #@! TO.C,D34*
X129100000Y-162550000D03*
X133400000Y-162550000D03*
G04 #@! TD*
G04 #@! TO.C,D33*
X152600000Y-162550000D03*
X156900000Y-162550000D03*
G04 #@! TD*
G04 #@! TO.C,D32*
X176100000Y-162550000D03*
X180400000Y-162550000D03*
G04 #@! TD*
G04 #@! TO.C,D31*
X199600000Y-162550000D03*
X203900000Y-162550000D03*
G04 #@! TD*
D11*
G04 #@! TO.C,P1*
X231430000Y-129530000D03*
X228890000Y-129530000D03*
X231430000Y-126990000D03*
X228890000Y-126990000D03*
X231430000Y-124450000D03*
X228890000Y-124450000D03*
X231430000Y-121910000D03*
X228890000Y-121910000D03*
X231430000Y-119370000D03*
X228890000Y-119370000D03*
X231430000Y-116830000D03*
X228890000Y-116830000D03*
X231430000Y-114290000D03*
X228890000Y-114290000D03*
X231430000Y-111750000D03*
X228890000Y-111750000D03*
X231430000Y-109210000D03*
X228890000Y-109210000D03*
X231430000Y-106670000D03*
X228890000Y-106670000D03*
X231430000Y-104130000D03*
D12*
X228890000Y-104130000D03*
G04 #@! TD*
D30*
G04 #@! TO.C,D9*
X77600000Y-80050000D03*
X81900000Y-80050000D03*
G04 #@! TD*
G04 #@! TO.C,D10*
X77600000Y-97550000D03*
X81900000Y-97550000D03*
G04 #@! TD*
G04 #@! TO.C,D11*
X77600000Y-115050000D03*
X81900000Y-115050000D03*
G04 #@! TD*
G04 #@! TO.C,D12*
X77600000Y-132550000D03*
X81900000Y-132550000D03*
G04 #@! TD*
G04 #@! TO.C,D13*
X77600000Y-150050000D03*
X81900000Y-150050000D03*
G04 #@! TD*
G04 #@! TO.C,D14*
X77600000Y-167550000D03*
X81900000Y-167550000D03*
G04 #@! TD*
D31*
G04 #@! TO.C,C21*
X208400000Y-71050000D03*
X208400000Y-79750000D03*
G04 #@! TD*
G04 #@! TO.C,C26*
X184900000Y-71050000D03*
X184900000Y-79750000D03*
G04 #@! TD*
G04 #@! TO.C,C31*
X161400000Y-71050000D03*
X161400000Y-79750000D03*
G04 #@! TD*
G04 #@! TO.C,C36*
X137900000Y-71050000D03*
X137900000Y-79750000D03*
G04 #@! TD*
D32*
G04 #@! TO.C,C69*
X89900000Y-95050000D03*
X98600000Y-95050000D03*
G04 #@! TD*
G04 #@! TO.C,C74*
X89900000Y-118550000D03*
X98600000Y-118550000D03*
G04 #@! TD*
G04 #@! TO.C,C79*
X89900000Y-142050000D03*
X98600000Y-142050000D03*
G04 #@! TD*
G04 #@! TO.C,C84*
X89900000Y-165550000D03*
X98600000Y-165550000D03*
G04 #@! TD*
D33*
G04 #@! TO.C,J1*
X286400000Y-174050000D03*
X286400000Y-178012400D03*
X286400000Y-181974800D03*
X286400000Y-185937200D03*
G04 #@! TD*
D34*
G04 #@! TO.C,Q1*
X264800000Y-72750000D03*
D35*
X270900000Y-72750000D03*
X270900000Y-70450000D03*
X270900000Y-75050000D03*
G04 #@! TD*
D34*
G04 #@! TO.C,Q2*
X65800000Y-83250000D03*
D35*
X71900000Y-83250000D03*
X71900000Y-80950000D03*
X71900000Y-85550000D03*
G04 #@! TD*
D34*
G04 #@! TO.C,Q3*
X65800000Y-100750000D03*
D35*
X71900000Y-100750000D03*
X71900000Y-98450000D03*
X71900000Y-103050000D03*
G04 #@! TD*
D34*
G04 #@! TO.C,Q4*
X65800000Y-118250000D03*
D35*
X71900000Y-118250000D03*
X71900000Y-115950000D03*
X71900000Y-120550000D03*
G04 #@! TD*
D34*
G04 #@! TO.C,Q5*
X65800000Y-135750000D03*
D35*
X71900000Y-135750000D03*
X71900000Y-133450000D03*
X71900000Y-138050000D03*
G04 #@! TD*
D34*
G04 #@! TO.C,Q6*
X65800000Y-153250000D03*
D35*
X71900000Y-153250000D03*
X71900000Y-150950000D03*
X71900000Y-155550000D03*
G04 #@! TD*
D34*
G04 #@! TO.C,Q7*
X65800000Y-170750000D03*
D35*
X71900000Y-170750000D03*
X71900000Y-168450000D03*
X71900000Y-173050000D03*
G04 #@! TD*
D36*
G04 #@! TO.C,IC14*
X107075000Y-165600000D03*
D37*
X102745000Y-162550000D03*
D38*
X103495000Y-162550000D03*
X104145000Y-162550000D03*
X104795000Y-162550000D03*
X105445000Y-162550000D03*
X106095000Y-162550000D03*
X106745000Y-162550000D03*
X107395000Y-162550000D03*
X108045000Y-162550000D03*
X108695000Y-162550000D03*
X109345000Y-162550000D03*
X109995000Y-162550000D03*
X110645000Y-162550000D03*
D37*
X111395000Y-162550000D03*
X111395000Y-168650000D03*
D38*
X110645000Y-168650000D03*
X109995000Y-168650000D03*
X109345000Y-168650000D03*
X108695000Y-168650000D03*
X108045000Y-168650000D03*
X107395000Y-168650000D03*
X106745000Y-168650000D03*
X106095000Y-168650000D03*
X105445000Y-168650000D03*
X104795000Y-168650000D03*
X104145000Y-168650000D03*
X103495000Y-168650000D03*
D37*
X102745000Y-168650000D03*
G04 #@! TD*
D36*
G04 #@! TO.C,IC13*
X107075000Y-142100000D03*
D37*
X102745000Y-139050000D03*
D38*
X103495000Y-139050000D03*
X104145000Y-139050000D03*
X104795000Y-139050000D03*
X105445000Y-139050000D03*
X106095000Y-139050000D03*
X106745000Y-139050000D03*
X107395000Y-139050000D03*
X108045000Y-139050000D03*
X108695000Y-139050000D03*
X109345000Y-139050000D03*
X109995000Y-139050000D03*
X110645000Y-139050000D03*
D37*
X111395000Y-139050000D03*
X111395000Y-145150000D03*
D38*
X110645000Y-145150000D03*
X109995000Y-145150000D03*
X109345000Y-145150000D03*
X108695000Y-145150000D03*
X108045000Y-145150000D03*
X107395000Y-145150000D03*
X106745000Y-145150000D03*
X106095000Y-145150000D03*
X105445000Y-145150000D03*
X104795000Y-145150000D03*
X104145000Y-145150000D03*
X103495000Y-145150000D03*
D37*
X102745000Y-145150000D03*
G04 #@! TD*
D36*
G04 #@! TO.C,IC12*
X107075000Y-118600000D03*
D37*
X102745000Y-115550000D03*
D38*
X103495000Y-115550000D03*
X104145000Y-115550000D03*
X104795000Y-115550000D03*
X105445000Y-115550000D03*
X106095000Y-115550000D03*
X106745000Y-115550000D03*
X107395000Y-115550000D03*
X108045000Y-115550000D03*
X108695000Y-115550000D03*
X109345000Y-115550000D03*
X109995000Y-115550000D03*
X110645000Y-115550000D03*
D37*
X111395000Y-115550000D03*
X111395000Y-121650000D03*
D38*
X110645000Y-121650000D03*
X109995000Y-121650000D03*
X109345000Y-121650000D03*
X108695000Y-121650000D03*
X108045000Y-121650000D03*
X107395000Y-121650000D03*
X106745000Y-121650000D03*
X106095000Y-121650000D03*
X105445000Y-121650000D03*
X104795000Y-121650000D03*
X104145000Y-121650000D03*
X103495000Y-121650000D03*
D37*
X102745000Y-121650000D03*
G04 #@! TD*
D36*
G04 #@! TO.C,IC11*
X107075000Y-95100000D03*
D37*
X102745000Y-92050000D03*
D38*
X103495000Y-92050000D03*
X104145000Y-92050000D03*
X104795000Y-92050000D03*
X105445000Y-92050000D03*
X106095000Y-92050000D03*
X106745000Y-92050000D03*
X107395000Y-92050000D03*
X108045000Y-92050000D03*
X108695000Y-92050000D03*
X109345000Y-92050000D03*
X109995000Y-92050000D03*
X110645000Y-92050000D03*
D37*
X111395000Y-92050000D03*
X111395000Y-98150000D03*
D38*
X110645000Y-98150000D03*
X109995000Y-98150000D03*
X109345000Y-98150000D03*
X108695000Y-98150000D03*
X108045000Y-98150000D03*
X107395000Y-98150000D03*
X106745000Y-98150000D03*
X106095000Y-98150000D03*
X105445000Y-98150000D03*
X104795000Y-98150000D03*
X104145000Y-98150000D03*
X103495000Y-98150000D03*
D37*
X102745000Y-98150000D03*
G04 #@! TD*
D39*
G04 #@! TO.C,IC8*
X137850000Y-88225000D03*
D40*
X140900000Y-83895000D03*
D41*
X140900000Y-84645000D03*
X140900000Y-85295000D03*
X140900000Y-85945000D03*
X140900000Y-86595000D03*
X140900000Y-87245000D03*
X140900000Y-87895000D03*
X140900000Y-88545000D03*
X140900000Y-89195000D03*
X140900000Y-89845000D03*
X140900000Y-90495000D03*
X140900000Y-91145000D03*
X140900000Y-91795000D03*
D40*
X140900000Y-92545000D03*
X134800000Y-92545000D03*
D41*
X134800000Y-91795000D03*
X134800000Y-91145000D03*
X134800000Y-90495000D03*
X134800000Y-89845000D03*
X134800000Y-89195000D03*
X134800000Y-88545000D03*
X134800000Y-87895000D03*
X134800000Y-87245000D03*
X134800000Y-86595000D03*
X134800000Y-85945000D03*
X134800000Y-85295000D03*
X134800000Y-84645000D03*
D40*
X134800000Y-83895000D03*
G04 #@! TD*
D39*
G04 #@! TO.C,IC7*
X161350000Y-88225000D03*
D40*
X164400000Y-83895000D03*
D41*
X164400000Y-84645000D03*
X164400000Y-85295000D03*
X164400000Y-85945000D03*
X164400000Y-86595000D03*
X164400000Y-87245000D03*
X164400000Y-87895000D03*
X164400000Y-88545000D03*
X164400000Y-89195000D03*
X164400000Y-89845000D03*
X164400000Y-90495000D03*
X164400000Y-91145000D03*
X164400000Y-91795000D03*
D40*
X164400000Y-92545000D03*
X158300000Y-92545000D03*
D41*
X158300000Y-91795000D03*
X158300000Y-91145000D03*
X158300000Y-90495000D03*
X158300000Y-89845000D03*
X158300000Y-89195000D03*
X158300000Y-88545000D03*
X158300000Y-87895000D03*
X158300000Y-87245000D03*
X158300000Y-86595000D03*
X158300000Y-85945000D03*
X158300000Y-85295000D03*
X158300000Y-84645000D03*
D40*
X158300000Y-83895000D03*
G04 #@! TD*
D39*
G04 #@! TO.C,IC6*
X184850000Y-88225000D03*
D40*
X187900000Y-83895000D03*
D41*
X187900000Y-84645000D03*
X187900000Y-85295000D03*
X187900000Y-85945000D03*
X187900000Y-86595000D03*
X187900000Y-87245000D03*
X187900000Y-87895000D03*
X187900000Y-88545000D03*
X187900000Y-89195000D03*
X187900000Y-89845000D03*
X187900000Y-90495000D03*
X187900000Y-91145000D03*
X187900000Y-91795000D03*
D40*
X187900000Y-92545000D03*
X181800000Y-92545000D03*
D41*
X181800000Y-91795000D03*
X181800000Y-91145000D03*
X181800000Y-90495000D03*
X181800000Y-89845000D03*
X181800000Y-89195000D03*
X181800000Y-88545000D03*
X181800000Y-87895000D03*
X181800000Y-87245000D03*
X181800000Y-86595000D03*
X181800000Y-85945000D03*
X181800000Y-85295000D03*
X181800000Y-84645000D03*
D40*
X181800000Y-83895000D03*
G04 #@! TD*
D39*
G04 #@! TO.C,IC5*
X208350000Y-88225000D03*
D40*
X211400000Y-83895000D03*
D41*
X211400000Y-84645000D03*
X211400000Y-85295000D03*
X211400000Y-85945000D03*
X211400000Y-86595000D03*
X211400000Y-87245000D03*
X211400000Y-87895000D03*
X211400000Y-88545000D03*
X211400000Y-89195000D03*
X211400000Y-89845000D03*
X211400000Y-90495000D03*
X211400000Y-91145000D03*
X211400000Y-91795000D03*
D40*
X211400000Y-92545000D03*
X205300000Y-92545000D03*
D41*
X205300000Y-91795000D03*
X205300000Y-91145000D03*
X205300000Y-90495000D03*
X205300000Y-89845000D03*
X205300000Y-89195000D03*
X205300000Y-88545000D03*
X205300000Y-87895000D03*
X205300000Y-87245000D03*
X205300000Y-86595000D03*
X205300000Y-85945000D03*
X205300000Y-85295000D03*
X205300000Y-84645000D03*
D40*
X205300000Y-83895000D03*
G04 #@! TD*
D42*
G04 #@! TO.C,C115*
X291900000Y-167550000D03*
X294900000Y-167550000D03*
G04 #@! TD*
D43*
G04 #@! TO.C,C113*
X286900000Y-167550000D03*
X286900000Y-170550000D03*
G04 #@! TD*
G04 #@! TO.C,C114*
X283900000Y-167550000D03*
X283900000Y-170550000D03*
G04 #@! TD*
D42*
G04 #@! TO.C,L1*
X293900000Y-173550000D03*
X290900000Y-173550000D03*
G04 #@! TD*
D44*
G04 #@! TO.C,IC9*
X200400000Y-148355000D03*
X200400000Y-147085000D03*
X200400000Y-145815000D03*
X200400000Y-144545000D03*
X200400000Y-143275000D03*
X200400000Y-142005000D03*
X200400000Y-140735000D03*
X200400000Y-139465000D03*
X200400000Y-138195000D03*
X200400000Y-136925000D03*
X191000000Y-136925000D03*
X191000000Y-138195000D03*
X191000000Y-139465000D03*
X191000000Y-140735000D03*
X191000000Y-142005000D03*
X191000000Y-143275000D03*
X191000000Y-144545000D03*
X191000000Y-145815000D03*
X191000000Y-147085000D03*
X191000000Y-148355000D03*
G04 #@! TD*
G04 #@! TO.C,IC10*
X153400000Y-148355000D03*
X153400000Y-147085000D03*
X153400000Y-145815000D03*
X153400000Y-144545000D03*
X153400000Y-143275000D03*
X153400000Y-142005000D03*
X153400000Y-140735000D03*
X153400000Y-139465000D03*
X153400000Y-138195000D03*
X153400000Y-136925000D03*
X144000000Y-136925000D03*
X144000000Y-138195000D03*
X144000000Y-139465000D03*
X144000000Y-140735000D03*
X144000000Y-142005000D03*
X144000000Y-143275000D03*
X144000000Y-144545000D03*
X144000000Y-145815000D03*
X144000000Y-147085000D03*
X144000000Y-148355000D03*
G04 #@! TD*
D45*
G04 #@! TO.C,H4*
X294400000Y-184050000D03*
G04 #@! TD*
G04 #@! TO.C,H3*
X65900000Y-184050000D03*
G04 #@! TD*
G04 #@! TO.C,H2*
X294400000Y-71550000D03*
G04 #@! TD*
G04 #@! TO.C,H1*
X65900000Y-71550000D03*
G04 #@! TD*
G04 #@! TO.C,H5*
X172400000Y-115050000D03*
G04 #@! TD*
D13*
G04 #@! TO.C,H9*
X228900000Y-135050000D03*
G04 #@! TD*
G04 #@! TO.C,H7*
X228900000Y-98550000D03*
G04 #@! TD*
G04 #@! TO.C,H8*
X124900000Y-135050000D03*
G04 #@! TD*
G04 #@! TO.C,H6*
X124900000Y-98550000D03*
G04 #@! TD*
G04 #@! TO.C,H10*
X55050000Y-60700000D03*
G04 #@! TD*
G04 #@! TO.C,H11*
X305250000Y-60700000D03*
G04 #@! TD*
G04 #@! TO.C,H13*
X305250000Y-194900000D03*
G04 #@! TD*
G04 #@! TO.C,H12*
X55050000Y-194900000D03*
G04 #@! TD*
M02*
