M48
;DRILL file {KiCad 4.0.5} date 06/08/17 15:42:18
;FORMAT={-:-/ absolute / metric / decimal}
FMAT,2
METRIC,TZ
T1C0.500
T2C1.016
T3C1.524
T4C1.600
T5C3.500
%
G90
G05
M71
T1
X36.25Y-55.55
X36.25Y-73.05
X36.25Y-90.55
X36.25Y-108.05
X36.25Y-125.55
X36.25Y-143.05
X38.9Y-43.55
X38.9Y-61.
X38.9Y-78.5
X38.9Y-96.
X38.9Y-113.5
X38.9Y-131.
X40.5Y-53.65
X40.5Y-71.15
X40.5Y-88.65
X40.5Y-106.15
X40.5Y-123.65
X40.5Y-141.15
X50.9Y-44.05
X50.9Y-61.55
X50.9Y-79.05
X50.9Y-96.55
X50.9Y-114.05
X50.9Y-131.55
X55.75Y-40.55
X55.75Y-42.55
X59.45Y-40.55
X59.45Y-42.55
X59.6Y-58.45
X59.6Y-59.65
X59.6Y-81.95
X59.6Y-83.15
X59.6Y-105.45
X59.6Y-106.65
X59.6Y-128.95
X59.6Y-130.15
X66.25Y-64.05
X66.25Y-66.05
X66.25Y-87.55
X66.25Y-89.55
X66.25Y-111.05
X66.25Y-113.05
X66.25Y-134.55
X66.25Y-136.55
X66.75Y-52.05
X66.75Y-54.05
X66.75Y-75.55
X66.75Y-77.55
X66.75Y-99.05
X66.75Y-101.05
X66.75Y-122.55
X66.75Y-124.55
X67.8Y-55.85
X67.8Y-62.35
X67.8Y-79.35
X67.8Y-85.85
X67.8Y-102.85
X67.8Y-109.35
X67.8Y-126.35
X67.8Y-132.85
X68.3Y-58.45
X68.3Y-59.65
X68.3Y-81.95
X68.3Y-83.15
X68.3Y-105.45
X68.3Y-106.65
X68.3Y-128.95
X68.3Y-130.15
X68.35Y-47.55
X68.35Y-71.05
X68.35Y-94.55
X68.35Y-118.05
X68.75Y-132.85
X68.8Y-55.85
X68.8Y-62.35
X68.8Y-79.35
X68.8Y-85.85
X68.8Y-102.85
X68.8Y-109.35
X68.8Y-126.35
X69.75Y-58.55
X69.75Y-59.65
X69.75Y-82.05
X69.75Y-83.15
X69.75Y-105.55
X69.75Y-106.65
X69.75Y-129.05
X69.75Y-130.15
X69.9Y-64.05
X69.95Y-66.05
X69.95Y-87.55
X69.95Y-89.55
X69.95Y-111.05
X69.95Y-113.05
X69.95Y-134.55
X69.95Y-136.55
X70.45Y-52.05
X70.45Y-54.05
X70.45Y-75.55
X70.45Y-77.55
X70.45Y-99.05
X70.45Y-101.05
X70.45Y-122.55
X70.45Y-124.55
X70.6Y-58.
X70.6Y-59.1
X70.6Y-60.2
X70.6Y-81.5
X70.6Y-82.6
X70.6Y-83.7
X70.6Y-105.
X70.6Y-106.1
X70.6Y-107.2
X70.6Y-128.5
X70.6Y-129.6
X70.6Y-130.7
X72.Y-64.25
X72.Y-87.75
X72.Y-111.25
X72.2Y-68.85
X72.2Y-92.35
X72.2Y-115.85
X73.Y-64.15
X73.Y-87.65
X73.Y-111.15
X73.Y-134.65
X73.8Y-69.05
X73.8Y-92.55
X73.8Y-116.05
X73.95Y-63.7
X73.95Y-87.2
X73.95Y-110.7
X73.95Y-134.2
X74.15Y-66.55
X74.15Y-90.05
X74.15Y-113.55
X74.15Y-137.05
X74.95Y-63.7
X74.95Y-87.2
X74.95Y-110.7
X74.95Y-134.2
X75.95Y-63.7
X75.95Y-87.2
X75.95Y-110.7
X75.95Y-134.2
X76.8Y-54.
X76.8Y-77.5
X76.8Y-101.
X76.8Y-124.5
X76.9Y-46.1
X77.55Y-58.
X77.55Y-59.1
X77.55Y-60.2
X77.55Y-81.5
X77.55Y-82.6
X77.55Y-83.7
X77.55Y-105.
X77.55Y-106.1
X77.55Y-107.2
X77.55Y-128.5
X77.55Y-129.6
X77.55Y-130.7
X77.85Y-64.05
X77.85Y-66.05
X77.85Y-87.55
X77.85Y-89.55
X77.85Y-111.05
X77.85Y-113.05
X77.85Y-134.55
X77.85Y-136.55
X78.05Y-50.55
X78.05Y-74.05
X78.05Y-97.55
X78.05Y-121.05
X78.35Y-52.05
X78.35Y-54.05
X78.35Y-75.55
X78.35Y-77.55
X78.35Y-99.05
X78.35Y-101.05
X78.35Y-122.55
X78.35Y-124.55
X78.4Y-58.55
X78.4Y-59.65
X78.4Y-82.05
X78.4Y-83.15
X78.4Y-105.55
X78.4Y-106.65
X78.4Y-129.05
X78.4Y-130.15
X79.35Y-62.35
X79.35Y-85.85
X79.35Y-109.35
X79.35Y-132.85
X80.35Y-62.35
X80.35Y-85.85
X80.35Y-109.35
X80.35Y-132.85
X81.55Y-64.05
X81.55Y-66.05
X81.55Y-87.55
X81.55Y-89.55
X81.55Y-111.05
X81.55Y-113.05
X81.55Y-134.55
X81.55Y-136.55
X82.05Y-52.05
X82.05Y-54.05
X82.05Y-75.55
X82.05Y-77.55
X82.05Y-99.05
X82.05Y-101.05
X82.05Y-122.55
X82.05Y-124.55
X82.8Y-123.55
X94.2Y-126.55
X94.9Y-49.15
X96.4Y-113.15
X97.4Y-52.3
X97.55Y-121.05
X97.9Y-44.4
X97.9Y-48.1
X97.9Y-56.
X97.9Y-59.7
X98.4Y-113.15
X99.7Y-50.15
X99.8Y-51.15
X99.9Y-44.4
X99.9Y-48.1
X99.9Y-56.
X99.9Y-59.7
X99.9Y-68.85
X100.25Y-52.1
X100.25Y-53.1
X100.25Y-54.1
X100.9Y-139.1
X101.05Y-91.05
X101.6Y-45.95
X101.6Y-46.95
X101.6Y-57.5
X101.6Y-58.5
X102.9Y-139.1
X103.75Y-48.75
X103.75Y-55.7
X103.9Y-94.85
X104.3Y-37.75
X104.3Y-46.45
X104.3Y-47.9
X104.3Y-56.55
X104.85Y-48.75
X104.85Y-55.7
X105.4Y-47.9
X105.4Y-56.55
X105.5Y-37.75
X105.5Y-46.45
X105.9Y-77.4
X105.95Y-48.75
X105.95Y-55.7
X107.25Y-144.45
X108.1Y-45.95
X108.1Y-46.95
X108.2Y-103.45
X108.2Y-109.8
X108.9Y-68.9
X108.9Y-120.4
X109.35Y-100.9
X109.35Y-102.2
X109.35Y-103.45
X109.35Y-109.8
X109.35Y-111.1
X109.45Y-54.95
X109.55Y-87.55
X109.55Y-89.55
X109.55Y-91.55
X109.75Y-114.55
X109.75Y-116.55
X109.9Y-44.9
X109.9Y-48.6
X109.9Y-56.5
X109.9Y-60.2
X110.1Y-54.15
X110.6Y-149.5
X110.9Y-68.9
X110.9Y-120.4
X111.9Y-44.9
X111.9Y-48.6
X111.9Y-56.5
X111.9Y-60.2
X111.9Y-96.
X111.9Y-128.9
X112.5Y-71.55
X112.6Y-104.7
X112.6Y-106.
X112.6Y-107.25
X112.6Y-108.55
X112.9Y-120.4
X113.4Y-56.35
X113.4Y-147.2
X113.45Y-114.55
X113.45Y-116.55
X113.6Y-104.7
X113.6Y-106.
X113.6Y-107.25
X113.6Y-108.55
X114.05Y-148.55
X114.05Y-150.55
X114.5Y-123.05
X115.4Y-147.2
X116.4Y-46.5
X117.4Y-147.2
X117.7Y-126.55
X117.75Y-96.55
X117.75Y-98.55
X117.8Y-104.7
X117.8Y-106.
X117.8Y-107.25
X117.8Y-108.55
X118.4Y-51.95
X118.45Y-144.55
X118.6Y-50.35
X118.8Y-104.7
X118.8Y-106.
X118.8Y-107.25
X118.8Y-108.55
X119.4Y-117.2
X120.9Y-52.3
X121.05Y-121.05
X121.4Y-44.4
X121.4Y-48.1
X121.4Y-56.
X121.4Y-59.7
X121.45Y-96.55
X121.45Y-98.55
X122.05Y-102.2
X122.05Y-103.45
X122.05Y-109.8
X122.05Y-111.1
X122.05Y-112.35
X123.2Y-50.15
X123.2Y-103.45
X123.2Y-109.8
X123.3Y-51.15
X123.4Y-44.4
X123.4Y-48.1
X123.4Y-56.
X123.4Y-59.7
X123.4Y-68.85
X123.75Y-52.1
X123.75Y-53.1
X123.75Y-54.1
X124.4Y-113.15
X124.4Y-139.1
X125.1Y-45.95
X125.1Y-46.95
X125.1Y-57.5
X125.1Y-58.5
X126.4Y-113.15
X126.4Y-139.1
X127.25Y-48.75
X127.25Y-55.7
X127.8Y-37.75
X127.8Y-46.45
X127.8Y-47.9
X127.8Y-56.55
X128.35Y-48.75
X128.35Y-55.7
X128.9Y-47.9
X128.9Y-56.55
X129.Y-37.75
X129.Y-46.45
X129.05Y-91.05
X129.4Y-77.4
X129.45Y-48.75
X129.45Y-55.7
X130.75Y-144.45
X131.6Y-45.95
X131.6Y-46.95
X131.9Y-94.85
X132.4Y-68.9
X132.4Y-120.4
X132.95Y-54.95
X133.4Y-44.9
X133.4Y-48.6
X133.4Y-56.5
X133.4Y-60.2
X133.6Y-54.15
X134.1Y-149.5
X134.4Y-68.9
X134.4Y-120.4
X135.4Y-44.9
X135.4Y-48.6
X135.4Y-56.5
X135.4Y-60.2
X135.4Y-128.9
X136.Y-71.55
X136.4Y-120.4
X136.9Y-56.2
X136.9Y-147.2
X137.55Y-87.55
X137.55Y-89.55
X137.55Y-91.55
X137.55Y-148.55
X137.55Y-150.55
X138.Y-123.05
X138.9Y-147.2
X139.9Y-46.5
X140.9Y-147.2
X141.2Y-126.55
X141.9Y-51.95
X141.95Y-144.55
X142.1Y-50.35
X143.4Y-113.15
X144.4Y-52.3
X144.55Y-121.05
X144.9Y-44.4
X144.9Y-48.1
X144.9Y-56.
X144.9Y-59.7
X145.4Y-113.15
X146.7Y-50.15
X146.8Y-51.15
X146.9Y-44.4
X146.9Y-48.1
X146.9Y-56.
X146.9Y-59.7
X146.9Y-68.85
X147.25Y-52.1
X147.25Y-53.1
X147.25Y-54.1
X147.9Y-139.1
X148.05Y-91.05
X148.6Y-45.95
X148.6Y-46.95
X148.6Y-57.5
X148.6Y-58.5
X149.9Y-139.1
X150.75Y-48.75
X150.75Y-55.7
X150.9Y-94.85
X151.3Y-37.75
X151.3Y-46.45
X151.3Y-47.9
X151.3Y-56.55
X151.85Y-48.75
X151.85Y-55.7
X152.4Y-47.9
X152.4Y-56.55
X152.5Y-37.75
X152.5Y-46.45
X152.9Y-77.4
X152.95Y-48.75
X152.95Y-55.7
X154.25Y-144.45
X155.1Y-45.95
X155.1Y-46.95
X155.2Y-103.45
X155.2Y-109.8
X155.9Y-68.9
X155.9Y-120.4
X156.35Y-100.6
X156.35Y-102.2
X156.35Y-103.45
X156.35Y-109.8
X156.35Y-111.1
X156.45Y-54.95
X156.55Y-87.55
X156.55Y-89.55
X156.55Y-91.55
X156.75Y-114.55
X156.75Y-116.55
X156.9Y-44.9
X156.9Y-48.6
X156.9Y-56.5
X156.9Y-60.2
X157.1Y-54.15
X157.6Y-149.5
X157.9Y-68.9
X157.9Y-120.4
X158.9Y-44.9
X158.9Y-48.6
X158.9Y-56.5
X158.9Y-60.2
X158.9Y-96.
X158.9Y-128.9
X159.5Y-71.55
X159.6Y-104.7
X159.6Y-106.
X159.6Y-107.25
X159.6Y-108.55
X159.9Y-120.4
X160.4Y-56.2
X160.4Y-147.2
X160.45Y-114.55
X160.45Y-116.55
X160.6Y-104.7
X160.6Y-106.
X160.6Y-107.25
X160.6Y-108.55
X161.05Y-148.55
X161.05Y-150.55
X161.5Y-123.05
X162.4Y-147.2
X163.4Y-46.5
X164.4Y-147.2
X164.7Y-126.55
X164.75Y-96.55
X164.75Y-98.55
X164.8Y-104.7
X164.8Y-106.
X164.8Y-107.25
X164.8Y-108.55
X165.4Y-51.95
X165.45Y-144.55
X165.6Y-50.35
X165.8Y-104.7
X165.8Y-106.
X165.8Y-107.25
X165.8Y-108.55
X166.4Y-117.2
X167.9Y-52.3
X168.05Y-121.05
X168.4Y-44.4
X168.4Y-48.1
X168.4Y-56.
X168.4Y-59.7
X168.45Y-96.55
X168.45Y-98.55
X169.05Y-102.2
X169.05Y-103.45
X169.05Y-109.8
X169.05Y-111.1
X169.05Y-112.35
X170.2Y-50.15
X170.2Y-103.45
X170.2Y-109.8
X170.3Y-51.15
X170.4Y-44.4
X170.4Y-48.1
X170.4Y-56.
X170.4Y-59.7
X170.4Y-68.85
X170.75Y-52.1
X170.75Y-53.1
X170.75Y-54.1
X171.4Y-113.15
X171.4Y-139.1
X172.1Y-45.95
X172.1Y-46.95
X172.1Y-57.5
X172.1Y-58.5
X173.4Y-113.15
X173.4Y-139.1
X174.25Y-48.75
X174.25Y-55.7
X174.8Y-37.75
X174.8Y-46.45
X174.8Y-47.9
X174.8Y-56.55
X175.35Y-48.75
X175.35Y-55.7
X175.9Y-47.9
X175.9Y-56.55
X176.Y-37.75
X176.Y-46.45
X176.05Y-91.05
X176.4Y-77.4
X176.45Y-48.75
X176.45Y-55.7
X177.75Y-144.45
X178.6Y-45.95
X178.6Y-46.95
X178.9Y-94.85
X179.4Y-68.9
X179.4Y-120.4
X179.95Y-54.95
X180.4Y-44.9
X180.4Y-48.6
X180.4Y-56.5
X180.4Y-60.2
X180.6Y-54.15
X181.1Y-149.5
X181.4Y-68.9
X181.4Y-120.4
X182.4Y-44.9
X182.4Y-48.6
X182.4Y-56.5
X182.4Y-60.2
X182.4Y-128.9
X183.Y-71.55
X183.4Y-120.4
X183.9Y-56.2
X183.9Y-147.2
X184.55Y-87.55
X184.55Y-89.55
X184.55Y-91.55
X184.55Y-148.55
X184.55Y-150.55
X185.Y-123.05
X185.9Y-147.2
X186.9Y-46.5
X187.9Y-99.75
X187.9Y-147.2
X188.65Y-52.85
X188.65Y-53.85
X188.65Y-54.85
X188.95Y-144.55
X193.45Y-55.9
X199.3Y-95.75
X199.3Y-96.75
X220.05Y-52.85
X220.95Y-54.85
X222.15Y-53.85
X228.8Y-81.5
X229.9Y-81.5
X231.Y-81.5
X232.1Y-81.5
X236.4Y-44.6
X237.55Y-61.7
X237.9Y-33.
X238.4Y-61.15
X239.05Y-43.55
X239.25Y-60.55
X240.15Y-60.05
X240.25Y-117.75
X240.85Y-83.55
X242.9Y-93.2
X244.9Y-93.2
X248.85Y-101.55
X248.9Y-94.7
X249.55Y-35.55
X249.55Y-37.55
X250.4Y-130.4
X250.9Y-129.5
X251.4Y-130.4
X253.4Y-130.4
X253.9Y-129.5
X254.4Y-130.4
X256.85Y-131.55
X257.25Y-81.05
X257.75Y-83.05
X257.75Y-85.05
X257.75Y-131.05
X257.75Y-132.05
X258.75Y-87.05
X258.75Y-89.05
X261.55Y-81.05
X261.55Y-83.05
X261.55Y-85.05
X263.05Y-131.05
X263.05Y-132.05
X263.95Y-131.55
T2
X43.9Y-47.51
X43.9Y-50.05
X43.9Y-65.01
X43.9Y-67.55
X43.9Y-82.51
X43.9Y-85.05
X43.9Y-100.01
X43.9Y-102.55
X43.9Y-117.51
X43.9Y-120.05
X43.9Y-135.01
X43.9Y-137.55
X56.36Y-36.55
X58.9Y-36.55
X84.9Y-55.43
X84.9Y-57.97
X84.9Y-60.51
X84.9Y-63.05
X84.9Y-78.93
X84.9Y-81.47
X84.9Y-84.01
X84.9Y-86.55
X84.9Y-102.43
X84.9Y-104.97
X84.9Y-107.51
X84.9Y-110.05
X84.9Y-125.93
X84.9Y-128.47
X84.9Y-131.01
X84.9Y-133.55
X94.4Y-134.55
X96.4Y-99.55
X96.4Y-106.05
X96.94Y-134.55
X98.94Y-99.55
X98.94Y-106.05
X100.9Y-63.05
X100.9Y-81.05
X100.9Y-132.05
X101.48Y-106.05
X103.44Y-63.05
X103.44Y-81.05
X103.44Y-132.05
X104.02Y-106.05
X105.98Y-63.05
X105.98Y-81.05
X105.98Y-132.05
X106.56Y-106.05
X108.52Y-63.05
X117.9Y-134.55
X120.44Y-134.55
X124.4Y-63.05
X124.4Y-81.05
X124.4Y-99.55
X124.4Y-106.05
X124.4Y-132.05
X126.94Y-63.05
X126.94Y-81.05
X126.94Y-99.55
X126.94Y-106.05
X126.94Y-132.05
X129.48Y-63.05
X129.48Y-81.05
X129.48Y-106.05
X129.48Y-132.05
X132.02Y-63.05
X132.02Y-106.05
X134.56Y-106.05
X141.4Y-134.55
X143.4Y-99.55
X143.4Y-106.05
X143.94Y-134.55
X145.94Y-99.55
X145.94Y-106.05
X147.9Y-63.05
X147.9Y-81.05
X147.9Y-132.05
X148.48Y-106.05
X150.44Y-63.05
X150.44Y-81.05
X150.44Y-132.05
X151.02Y-106.05
X152.98Y-63.05
X152.98Y-81.05
X152.98Y-132.05
X153.56Y-106.05
X155.52Y-63.05
X164.9Y-134.55
X167.44Y-134.55
X171.4Y-63.05
X171.4Y-81.05
X171.4Y-99.55
X171.4Y-106.05
X171.4Y-132.05
X173.94Y-63.05
X173.94Y-81.05
X173.94Y-99.55
X173.94Y-106.05
X173.94Y-132.05
X176.48Y-63.05
X176.48Y-81.05
X176.48Y-106.05
X176.48Y-132.05
X179.02Y-63.05
X179.02Y-106.05
X181.56Y-106.05
X195.89Y-68.13
X195.89Y-70.67
X195.89Y-73.21
X195.89Y-75.75
X195.89Y-78.29
X195.89Y-80.83
X195.89Y-83.37
X195.89Y-85.91
X195.89Y-88.45
X195.89Y-90.99
X195.89Y-93.53
X198.43Y-68.13
X198.43Y-70.67
X198.43Y-73.21
X198.43Y-75.75
X198.43Y-78.29
X198.43Y-80.83
X198.43Y-83.37
X198.43Y-85.91
X198.43Y-88.45
X198.43Y-90.99
X198.43Y-93.53
X205.86Y-63.05
X205.86Y-65.59
X205.86Y-68.13
X205.86Y-70.67
X205.86Y-73.21
X205.86Y-75.75
X205.86Y-78.29
X205.86Y-80.83
X205.86Y-84.894
X205.86Y-87.434
X205.86Y-89.974
X205.86Y-92.514
X205.86Y-95.054
X205.86Y-97.594
X205.86Y-100.134
X205.86Y-102.674
X205.86Y-105.214
X205.86Y-107.754
X208.4Y-63.05
X208.4Y-65.59
X208.4Y-68.13
X208.4Y-70.67
X208.4Y-73.21
X208.4Y-75.75
X208.4Y-78.29
X208.4Y-80.83
X208.4Y-84.894
X208.4Y-87.434
X208.4Y-89.974
X208.4Y-92.514
X208.4Y-95.054
X208.4Y-97.594
X208.4Y-100.134
X208.4Y-102.674
X208.4Y-105.214
X208.4Y-107.754
X240.36Y-86.05
X241.86Y-36.55
X241.9Y-43.05
X242.9Y-86.05
X244.4Y-36.55
X244.44Y-43.05
X251.58Y-63.05
X251.58Y-65.59
X251.58Y-68.13
X251.58Y-70.67
X251.58Y-73.21
X251.58Y-75.75
X251.58Y-80.83
X251.58Y-83.37
X251.58Y-85.91
X251.58Y-88.45
X251.58Y-90.99
X251.58Y-93.53
X251.58Y-96.07
X251.58Y-98.61
X254.12Y-63.05
X254.12Y-65.59
X254.12Y-68.13
X254.12Y-70.67
X254.12Y-73.21
X254.12Y-75.75
X254.12Y-80.83
X254.12Y-83.37
X254.12Y-85.91
X254.12Y-88.45
X254.12Y-90.99
X254.12Y-93.53
X254.12Y-96.07
X254.12Y-98.61
X258.4Y-134.55
X258.9Y-93.55
X260.94Y-134.55
X261.44Y-93.55
T3
X253.4Y-138.05
X253.4Y-142.012
X253.4Y-145.975
X253.4Y-149.937
T4
X46.9Y-35.55
X46.9Y-148.05
X223.9Y-35.55
X242.9Y-148.05
T5
X32.9Y-35.55
X32.9Y-148.05
X139.4Y-79.05
X261.4Y-35.55
X261.4Y-148.05
T0
M30
